<svg width="900" height="600" viewBox="0 0 900 600" fill="none" xmlns="http://www.w3.org/2000/svg">
<rect width="900" height="120" fill="#D9D9D9"/>
<path d="M0 600V57.0943C49.7923 57.6302 99.5846 58.1662 148 49.8555C196.415 41.5449 243.454 24.3877 298 20.9005C352.546 17.4134 414.6 27.5964 461 23.6151C507.4 19.6338 538.146 1.48818 585 0.0891567C631.854 -1.30987 694.815 14.0377 750 26.3296C805.185 38.6215 852.592 47.8579 900 57.0943V600H0Z" fill="white"/>
<path d="M0 600V134.006C54.6872 112.939 109.374 91.8727 162 75.1911C214.626 58.5095 265.19 46.2129 307 52.57C348.81 58.9271 381.867 83.9379 434 71.5717C486.133 59.2056 557.344 9.4624 616 17.2812C674.656 25.0999 720.759 90.4806 766 119.528C811.241 148.576 855.621 141.291 900 134.006V600H0Z" fill="#E5E5E5"/>
<path d="M0 600V211.822C43.7436 160.427 87.4872 109.032 141 99.6219C194.513 90.2115 257.795 122.786 309 129.482C360.205 136.178 399.333 116.995 451 136.72C502.667 156.446 566.872 215.08 614 217.251C661.128 219.423 691.179 165.133 736 154.817C780.821 144.502 840.41 178.162 900 211.822V600H0Z" fill="#CACACA"/>
<path d="M0 600V289.639C54.5821 293.827 109.164 298.014 160 285.115C210.836 272.215 257.926 242.227 310 215.442C362.074 188.656 419.133 165.072 465 175.629C510.867 186.185 545.541 230.882 595 242.587C644.459 254.292 708.703 233.005 762 235.348C815.297 237.692 857.649 263.665 900 289.639V600H0Z" fill="#B0B0B0"/>
<path d="M0 600V366.551C50.2 352.679 100.4 338.807 149 338.5C197.6 338.194 244.6 351.454 299 329.452C353.4 307.45 415.2 250.188 466 253.445C516.8 256.703 556.6 320.48 598 348.454C639.4 376.427 682.4 368.597 733 365.646C783.6 362.695 841.8 364.623 900 366.551V600H0Z" fill="#959595"/>
<path d="M0 600V444.367C56.2846 406.208 112.569 368.049 157 366.551C201.431 365.052 234.008 400.213 286 415.412C337.992 430.611 409.4 425.848 465 401.839C520.6 377.831 560.392 334.577 602 341.215C643.608 347.853 687.031 404.382 737 429.89C786.969 455.397 843.485 449.882 900 444.367V600H0Z" fill="#7B7B7B"/>
<path d="M0 600V522.184C46.0051 515.1 92.0103 508.017 148 498.658C203.99 489.298 269.964 477.663 316 475.132C362.036 472.6 388.133 479.173 438 490.514C487.867 501.855 561.503 517.963 617 512.23C672.497 506.497 709.856 478.923 754 476.941C798.144 474.96 849.072 498.572 900 522.184V600H0Z" fill="#606060"/>
</svg>
