<svg width="220" height="48" viewBox="0 0 220 48" fill="none" xmlns="http://www.w3.org/2000/svg">
<path d="M30.9974 0.0286011C29.7561 0.127818 28.9267 0.29318 27.894 0.634927C26.0925 1.23023 24.5216 2.21138 23.1429 3.60043C22.7475 3.99177 22.2531 4.55401 22.0334 4.84613C21.5171 5.54067 20.9239 6.54386 20.6383 7.2053C20.512 7.49745 20.3912 7.751 20.3747 7.77855C20.3527 7.80061 20.1989 7.61321 20.0286 7.36515C18.9411 5.76115 17.535 4.52094 15.8268 3.66106C13.2508 2.3602 10.2243 2.14523 7.47254 3.06575C2.88073 4.60912 -0.178649 9.02428 0.00809893 13.8528C0.101473 16.2175 0.842975 18.2956 2.27105 20.1586C2.96861 21.0737 4.24838 22.2422 5.07777 22.7328C5.2096 22.81 5.31945 22.8926 5.31945 22.9092C5.31945 22.9312 5.23706 23.0139 5.13271 23.0966C4.86355 23.3115 4.41864 24.0061 4.27036 24.447L4.13853 24.8219V31.0504V37.2791L4.26486 37.6815C4.51205 38.4752 5.18212 39.2415 5.9511 39.6271C6.72555 40.0074 5.56661 39.9746 19.1059 39.9967C27.4436 40.0074 31.4477 39.991 31.7005 39.9525C32.4638 39.8367 33.0682 39.5334 33.601 39.0098C34.2435 38.3815 34.54 37.6871 34.584 36.717C34.5951 36.3752 34.6281 36.094 34.6554 36.094C34.6938 36.094 41.0159 39.0045 42.065 39.506C42.7242 39.8203 43.3009 39.6934 43.6302 39.1531L43.795 38.8886L43.8117 31.8609C43.817 27.0101 43.806 24.7723 43.7676 24.6234C43.6359 24.1384 43.0755 23.7525 42.5977 23.8187C42.466 23.8407 40.7851 24.5848 38.5497 25.6211C36.4515 26.5967 34.7048 27.407 34.6664 27.4235C34.6224 27.4401 34.6004 27.0928 34.584 26.1062C34.562 25.0148 34.54 24.7226 34.4686 24.5187C34.4139 24.3864 34.3809 24.2486 34.3972 24.21C34.4083 24.1769 34.518 24.1273 34.6334 24.1053C35.43 23.9565 37.0886 23.273 38.0333 22.6997C40.8511 20.991 42.9327 18.0971 43.6249 14.9167C43.9928 13.2355 44.0258 11.4882 43.7073 9.90622C42.9437 6.04225 40.4338 2.82873 36.8744 1.14204C35.1442 0.320739 32.799 -0.120224 30.9974 0.0286011ZM32.4748 2.66337C33.0132 2.80668 33.3868 3.02166 33.8041 3.43506C34.2435 3.87052 34.4963 4.30595 34.6281 4.87921C34.9687 6.3344 33.9633 8.45655 32.6232 9.12903C32.2496 9.31643 32.1729 9.33297 31.7719 9.33297C31.4037 9.32745 31.2719 9.30539 30.9974 9.17861C30.2778 8.8424 29.6901 8.20849 29.2727 7.31554C28.7289 6.15801 28.6905 5.13828 29.1409 4.19019C29.3386 3.78231 30.0143 3.09882 30.4206 2.90038C31.0524 2.5862 31.8377 2.498 32.4748 2.66337ZM11.8227 4.95088C12.8883 5.31467 13.6188 6.34542 13.6133 7.46989C13.6078 8.69909 12.7509 10.1763 11.7623 10.6669C11.3888 10.8488 11.3009 10.8708 10.9439 10.8708C10.6088 10.8653 10.4825 10.8377 10.1969 10.6944C9.01047 10.1102 8.09321 8.16992 8.3953 6.87458C8.62601 5.8824 9.47735 5.0501 10.4605 4.84613C10.834 4.76897 11.4382 4.81306 11.8227 4.95088ZM25.708 9.32745C27.57 9.68574 29.1134 11.1244 28.9706 12.3811C28.8388 13.5662 27.4601 14.7237 25.7574 15.071C24.4063 15.3411 23.121 14.7789 22.4838 13.6324C22.2367 13.1969 22.1268 12.7449 22.1268 12.1992C22.1323 11.3779 22.363 10.7881 22.9287 10.1873C23.6593 9.41013 24.6095 9.11798 25.708 9.32745ZM39.0494 9.38258C39.5494 9.49282 40.0492 9.75739 40.4281 10.1157C41.0653 10.733 41.3455 11.3724 41.3508 12.2323C41.3508 13.0536 41.0983 13.7206 40.5876 14.2552C39.5604 15.3301 38.1541 15.4899 36.5449 14.7072C35.8637 14.382 35.3036 13.9466 34.9794 13.5056C34.6281 13.015 34.5237 12.7229 34.5237 12.2158C34.518 11.852 34.5457 11.7472 34.6938 11.4441C35.007 10.8102 35.5948 10.2645 36.4074 9.85661C37.3632 9.37706 38.2585 9.21721 39.0494 9.38258ZM5.74788 10.9149C6.85188 11.1905 7.91744 11.9457 8.28545 12.7284C8.79627 13.8198 8.16463 14.9387 6.61019 15.6718C5.4238 16.2341 4.33078 16.223 3.45195 15.6332C2.34246 14.8891 1.98544 13.4394 2.61159 12.2047C2.92467 11.5929 3.71561 10.9976 4.41317 10.8543C4.73174 10.7881 5.36889 10.8157 5.74788 10.9149ZM17.5679 10.937C17.7712 10.9811 18.0843 11.1078 18.2655 11.2126C19.8144 12.1441 20.0506 14.1946 18.7489 15.4183C17.8151 16.2947 16.5958 16.3774 15.1512 15.6608C14.7228 15.4458 14.5415 15.3135 14.157 14.9277C13.7726 14.5474 13.6627 14.3986 13.5584 14.1285C13.3881 13.6599 13.4211 13.0867 13.6462 12.6677C13.9648 12.0725 14.6953 11.4882 15.5082 11.174C16.3376 10.8488 16.9033 10.7826 17.5679 10.937ZM32.3981 15.1427C33.6283 15.6112 34.7378 17.6011 34.6334 19.1389C34.5567 20.302 33.8261 21.2886 32.722 21.7186C32.3487 21.8619 31.5137 21.9115 31.0634 21.8178C30.1297 21.6248 29.2617 20.8532 28.9322 19.9161C28.5092 18.698 29.031 16.8845 30.1187 15.7876C30.8546 15.049 31.5961 14.8395 32.3981 15.1427ZM11.6799 16.1679C12.8827 16.7743 13.8165 18.8027 13.4815 20.1035C13.2123 21.1618 12.3665 21.9445 11.3064 22.1099C9.99914 22.3139 8.70837 21.454 8.36235 20.1476C8.00534 18.8027 8.96103 16.7357 10.2188 16.1403C10.7297 15.8978 11.1581 15.9088 11.6799 16.1679ZM21.27 18.483C21.962 19.646 22.9947 20.8477 24.0382 21.6965L24.56 22.1209L21.1656 22.1375C19.2981 22.143 17.7602 22.1375 17.7437 22.1209C17.7327 22.1099 17.8041 22.0272 17.903 21.9445C18.9741 21.0681 20.0506 19.7232 20.6823 18.483C20.8251 18.1963 20.9514 17.9593 20.9514 17.9593C20.9569 17.9593 21.0997 18.1963 21.27 18.483Z" fill="white"/>
<path d="M63.73 26.5C63.73 25.1 64.04 23.89 64.66 22.87C65.3 21.85 66.13 21.07 67.15 20.53C68.17 19.97 69.28 19.69 70.48 19.69C71.48 19.69 72.37 19.82 73.15 20.08C73.93 20.34 74.63 20.69 75.25 21.13C75.89 21.57 76.44 22.05 76.9 22.57V17.74C76.04 17.06 75.1 16.53 74.08 16.15C73.08 15.77 71.81 15.58 70.27 15.58C68.67 15.58 67.18 15.84 65.8 16.36C64.44 16.88 63.25 17.63 62.23 18.61C61.23 19.59 60.45 20.75 59.89 22.09C59.35 23.41 59.08 24.88 59.08 26.5C59.08 28.12 59.35 29.6 59.89 30.94C60.45 32.26 61.23 33.41 62.23 34.39C63.25 35.37 64.44 36.12 65.8 36.64C67.18 37.16 68.67 37.42 70.27 37.42C71.81 37.42 73.08 37.23 74.08 36.85C75.1 36.47 76.04 35.94 76.9 35.26V30.43C76.44 30.95 75.89 31.43 75.25 31.87C74.63 32.31 73.93 32.66 73.15 32.92C72.37 33.18 71.48 33.31 70.48 33.31C69.28 33.31 68.17 33.04 67.15 32.5C66.13 31.94 65.3 31.15 64.66 30.13C64.04 29.09 63.73 27.88 63.73 26.5ZM81.1687 16V37H85.5187V16H81.1687ZM104.986 16V29.02L90.0456 14.95V37H94.1856V23.98L109.126 38.05V16H104.986ZM116.448 37H127.038V33.37H116.448V37ZM116.448 19.63H127.038V16H116.448V19.63ZM116.448 27.64H126.438V24.07H116.448V27.64ZM113.688 16V37H117.828V16H113.688ZM135.886 25.21L141.976 35.05L148.066 25.21L149.416 37H153.886L150.766 14.95L141.976 28.51L133.186 14.95L130.066 37H134.536L135.886 25.21ZM160.163 32.23H171.263L170.753 28.84H160.673L160.163 32.23ZM165.653 22.81L168.803 30.1L168.743 31.18L171.443 37H176.303L165.653 14.77L155.003 37H159.833L162.593 31L162.503 30.04L165.653 22.81ZM174.371 19.87H180.011V37H184.301V19.87H189.971V16H174.371V19.87ZM192.409 16V37H196.759V16H192.409ZM204.736 26.5C204.736 25.1 205.046 23.89 205.666 22.87C206.306 21.85 207.136 21.07 208.156 20.53C209.176 19.97 210.286 19.69 211.486 19.69C212.486 19.69 213.376 19.82 214.156 20.08C214.936 20.34 215.636 20.69 216.256 21.13C216.896 21.57 217.446 22.05 217.906 22.57V17.74C217.046 17.06 216.106 16.53 215.086 16.15C214.086 15.77 212.816 15.58 211.276 15.58C209.676 15.58 208.186 15.84 206.806 16.36C205.446 16.88 204.256 17.63 203.236 18.61C202.236 19.59 201.456 20.75 200.896 22.09C200.356 23.41 200.086 24.88 200.086 26.5C200.086 28.12 200.356 29.6 200.896 30.94C201.456 32.26 202.236 33.41 203.236 34.39C204.256 35.37 205.446 36.12 206.806 36.64C208.186 37.16 209.676 37.42 211.276 37.42C212.816 37.42 214.086 37.23 215.086 36.85C216.106 36.47 217.046 35.94 217.906 35.26V30.43C217.446 30.95 216.896 31.43 216.256 31.87C215.636 32.31 214.936 32.66 214.156 32.92C213.376 33.18 212.486 33.31 211.486 33.31C210.286 33.31 209.176 33.04 208.156 32.5C207.136 31.94 206.306 31.15 205.666 30.13C205.046 29.09 204.736 27.88 204.736 26.5Z" fill="white"/>
</svg>
