<svg width="144" height="60" viewBox="0 0 144 60" fill="none" xmlns="http://www.w3.org/2000/svg">
<circle cx="25" cy="27" r="25" fill="url(#paint0_linear_1_47)"/>
<path fill-rule="evenodd" clip-rule="evenodd" d="M28.2439 2C24.4421 10.6517 20.1004 21.6923 20.3205 22.0885C20.4544 22.3116 22.1944 22.5347 24.2022 22.5347C26.8792 22.5347 27.7269 22.6685 27.5931 23.0701C27.4592 23.3824 25.8976 28.0226 24.113 33.3766C21.9267 40.0691 21.0344 43.2815 21.3467 43.5938C21.6144 43.8615 22.016 43.9508 22.2391 43.7723C22.9976 43.3261 39.3719 18.0284 39.4612 17.2699C39.5058 16.6453 38.9258 16.4668 35.8918 16.2883L32.2779 16.0652L35.758 8.25729C36.2385 7.20892 36.6896 6.18996 37.0949 5.24424C36.5869 4.93837 36.0671 4.65006 35.5364 4.38015L34.9549 5.66951C33.8841 8.21267 32.2779 11.782 31.4301 13.6113C30.5824 15.4406 30.0024 17.1807 30.0916 17.493C30.2255 17.8499 31.4748 18.073 33.661 18.1622L37.0073 18.2961L31.3855 26.9071C28.307 31.6365 25.7192 35.429 25.6299 35.3397C25.5407 35.2505 26.4777 32.1719 27.6823 28.5133C28.9316 24.8548 29.8239 21.6424 29.7347 21.33C29.6008 20.9731 28.2177 20.75 25.9869 20.6608L22.4175 20.5269L26.4777 10.8005L29.9842 2.34575C29.4115 2.21055 28.8311 2.09505 28.2439 2Z" fill="white"/>
<path d="M61.8 13.5V38H74.4V35.2H64.775V13.5H61.8ZM77.3818 15.25C77.3818 15.7633 77.5685 16.2183 77.9418 16.615C78.3385 16.9883 78.7935 17.175 79.3068 17.175C79.8435 17.175 80.2985 16.9883 80.6718 16.615C81.0452 16.2183 81.2318 15.7633 81.2318 15.25C81.2318 14.7133 81.0452 14.2583 80.6718 13.885C80.2985 13.5117 79.8435 13.325 79.3068 13.325C78.7935 13.325 78.3385 13.5117 77.9418 13.885C77.5685 14.2583 77.3818 14.7133 77.3818 15.25ZM77.9068 21.9V38H80.7068V21.9H77.9068ZM85.3886 39.05C85.3886 40.4267 85.727 41.64 86.4036 42.69C87.0803 43.7633 88.0136 44.5917 89.2036 45.175C90.417 45.7583 91.8053 46.05 93.3686 46.05C94.722 46.05 96.0053 45.735 97.2186 45.105C98.432 44.475 99.4236 43.53 100.194 42.27C100.964 41.0333 101.349 39.4933 101.349 37.65V21.9H98.5486V37.65C98.5486 39.0033 98.2803 40.1 97.7436 40.94C97.2303 41.8033 96.577 42.4333 95.7836 42.83C94.9903 43.2267 94.1853 43.425 93.3686 43.425C92.3186 43.425 91.4086 43.215 90.6386 42.795C89.8686 42.3983 89.2736 41.8617 88.8536 41.185C88.4336 40.5317 88.2236 39.82 88.2236 39.05H85.3886ZM85.0736 29.95C85.0736 31.6767 85.4353 33.17 86.1586 34.43C86.882 35.69 87.8503 36.6583 89.0636 37.335C90.277 38.0117 91.607 38.35 93.0536 38.35C94.407 38.35 95.5853 38.0117 96.5886 37.335C97.592 36.6583 98.3736 35.69 98.9336 34.43C99.517 33.17 99.8086 31.6767 99.8086 29.95C99.8086 28.2 99.517 26.7067 98.9336 25.47C98.3736 24.21 97.592 23.2417 96.5886 22.565C95.5853 21.8883 94.407 21.55 93.0536 21.55C91.607 21.55 90.277 21.8883 89.0636 22.565C87.8503 23.2417 86.882 24.21 86.1586 25.47C85.4353 26.7067 85.0736 28.2 85.0736 29.95ZM87.9086 29.95C87.9086 28.7133 88.1536 27.6633 88.6436 26.8C89.157 25.9367 89.8336 25.2833 90.6736 24.84C91.5136 24.3967 92.4236 24.175 93.4036 24.175C94.0103 24.175 94.617 24.3033 95.2236 24.56C95.8303 24.8167 96.3786 25.19 96.8686 25.68C97.382 26.17 97.7903 26.7767 98.0936 27.5C98.397 28.2 98.5486 29.0167 98.5486 29.95C98.5486 31.1867 98.292 32.2367 97.7786 33.1C97.2653 33.9633 96.612 34.6167 95.8186 35.06C95.0253 35.5033 94.2203 35.725 93.4036 35.725C92.4236 35.725 91.5136 35.5033 90.6736 35.06C89.8336 34.6167 89.157 33.9633 88.6436 33.1C88.1536 32.2367 87.9086 31.1867 87.9086 29.95ZM109.235 10.7H106.435V38H109.235V10.7ZM116.76 28.2V38H119.56V27.85C119.56 26.45 119.326 25.2833 118.86 24.35C118.416 23.4167 117.775 22.7167 116.935 22.25C116.118 21.7833 115.15 21.55 114.03 21.55C112.91 21.55 111.918 21.8417 111.055 22.425C110.215 23.0083 109.55 23.8017 109.06 24.805C108.57 25.785 108.325 26.9167 108.325 28.2H109.235C109.235 27.43 109.398 26.7417 109.725 26.135C110.075 25.5283 110.553 25.05 111.16 24.7C111.79 24.35 112.513 24.175 113.33 24.175C114.473 24.175 115.325 24.5133 115.885 25.19C116.468 25.8667 116.76 26.87 116.76 28.2ZM122.373 21.9V24.525H130.423V21.9H122.373ZM124.998 16.3V38H127.798V16.3H124.998Z" fill="#E9E9E9"/>
<circle cx="79.5" cy="15.5" r="2.5" fill="#FFA44F"/>
<defs>
<linearGradient id="paint0_linear_1_47" x1="25" y1="2" x2="25" y2="52" gradientUnits="userSpaceOnUse">
<stop stop-color="#FFB45B"/>
<stop offset="1" stop-color="#FF440A"/>
</linearGradient>
</defs>
</svg>
