<svg width="80" height="80" viewBox="0 0 80 80" fill="none" xmlns="http://www.w3.org/2000/svg">
  <rect width="80" height="80" rx="20" fill="#333333"/>
  <path d="M28.1678 14.1202C27.0541 14.2443 25.9281 14.6042 25.6063 14.9516C25.2599 15.3363 25.1609 20.4985 25.0742 40.2908L25 58.8546L25.8538 59.1773C27.1531 59.686 27.6357 59.7729 30.0487 59.8473C33.6249 59.9714 39.4903 59.5743 43.1778 58.9663C48.969 57.9984 53.4732 55.1691 54.4879 51.856C54.7849 50.8756 54.8096 49.3369 54.5498 48.2946C53.8939 45.7631 51.2458 43.7653 46.0115 41.8543C41.8043 40.3156 39.7996 39.3601 38.686 38.3922C37.201 37.0769 37.2877 35.4513 38.9706 33.2301C39.3047 32.7833 40.5545 31.4184 41.7548 30.1775C43.9821 27.8818 44.341 27.4103 44.341 26.8146C44.341 26.3431 43.4624 24.7796 43.1902 24.7796C42.2869 24.7796 37.2134 29.3212 35.9512 31.2695C35.0974 32.5724 34.8128 33.4038 34.6519 34.9797C34.5034 36.5309 34.6643 38.5163 34.9984 39.2236C35.283 39.8192 36.3101 40.9733 37.201 41.693C38.1662 42.4748 39.9729 43.3434 42.423 44.1996C45.4176 45.242 46.6426 45.7259 47.8677 46.3464C50.4168 47.6245 51.2953 48.6172 51.3201 50.28C51.3325 50.9377 51.283 51.099 50.9241 51.583C50.3549 52.3771 49.1917 53.2209 47.6202 53.9903C45.9373 54.8217 44.7988 55.1816 42.3487 55.6655C37.7579 56.559 33.8724 56.832 30.754 56.4845C29.6527 56.3604 28.6999 56.2239 28.6257 56.1743C28.5143 56.1122 28.5143 51.4589 28.6133 37.9207C28.6875 27.9314 28.7494 19.27 28.7494 18.6619V17.5823H32.8205C35.0603 17.5823 37.4609 17.6444 38.1662 17.7064C44.6009 18.3517 48.4864 20.2006 50.0579 23.3649C50.5529 24.3825 50.59 24.519 50.59 25.4496C50.5776 27.4847 49.5258 29.1972 45.7269 33.3542C45.0092 34.1483 44.3286 35.0294 44.1306 35.414L43.8089 36.0841L44.0564 36.4192C44.4152 36.8907 45.5413 37.4615 47.4346 38.1192C52.4956 39.8565 55.8367 42.3755 57.4949 45.7011C58.955 48.6172 58.8065 52.191 57.1236 54.9582C55.3046 57.9736 51.1345 60.5174 45.7888 61.8824C41.2845 63.024 38.0301 63.3715 30.6179 63.4583L25.0124 63.5328L25.0619 64.6744C25.1485 66.635 25.5445 66.908 28.539 67.1066C32.8082 67.3796 39.6511 66.7467 44.8236 65.5927C52.3472 63.9175 56.2327 61.7459 59.4252 57.4276C63.6325 51.7319 62.6178 44.4974 56.8638 39.3849C55.6387 38.2929 54.0424 37.2506 52.0873 36.2827C51.1221 35.8111 50.2188 35.3148 50.0703 35.1659C49.5506 34.6943 49.7238 34.26 51.283 32.1629C54.2157 28.2044 54.7106 24.4197 52.7308 21.0941C51.0231 18.2152 46.6179 15.4976 42.5467 14.8027C38.7726 14.1575 31.2243 13.7976 28.1678 14.1202Z" fill="white"/>
</svg>
