<svg width="2067" height="2843" viewBox="0 0 2067 2843" fill="none" xmlns="http://www.w3.org/2000/svg">
<path d="M78.9414 0.976943C70.8807 3.77486 66.3507 7.57204 56.4914 19.6964C40.5699 39.2152 26.5136 54.9369 9.12656 72.7903L0 82.1833V104.7V127.15L8.1273 119.622C37.3722 92.4423 64.6853 62.2648 86.9354 32.7533C95.196 21.7615 109.519 1.11018 109.052 0.710474C108.986 0.643857 102.924 0.444005 95.5957 0.177537C83.871 -0.155549 81.8725 -0.0889322 78.9414 0.976943Z" fill="white"/>
<path d="M0 4.50737C0 7.705 0.199852 8.43779 0.799406 7.97147C6.9948 3.37488 7.32789 2.97518 6.66172 1.70945C6.12878 0.77681 5.19614 0.443724 2.99777 0.443724H0V4.50737Z" fill="white"/>
<path d="M341.013 1.17677C339.947 1.57648 335.884 6.3063 330.088 13.9673C324.959 20.629 316.432 31.6208 311.102 38.4158C273.463 86.3802 245.884 129.681 193.723 222.945C168.808 267.446 154.885 296.224 142.694 328.534C130.37 361.309 126.906 376.565 129.171 387.69C132.901 405.343 148.49 414.536 168.008 410.473C189.526 405.943 216.839 391.021 249.814 365.906C297.312 329.733 351.139 289.563 358.667 284.833C360.865 283.434 363.064 282.235 363.463 282.235C363.863 282.235 364.862 284.566 365.728 287.364C376.121 322.938 384.048 338.793 398.038 352.116C413.226 366.505 431.08 373.101 454.995 373.101C485.306 373.167 519.214 362.642 550.991 343.323C574.64 329 589.695 315.477 597.423 301.554C600.754 295.625 604.085 284.7 604.817 277.238C606.283 262.583 603.152 248.127 593.892 227.542C582.034 201.162 565.38 177.246 545.128 157.661C533.271 146.136 519.081 137.276 504.958 132.612C499.762 130.88 498.43 130.747 489.303 130.681C480.643 130.681 478.644 130.88 474.314 132.213C451.265 139.474 437.009 156.795 437.009 177.712C437.009 193.501 444.736 203.36 457.727 204.159C466.52 204.692 468.985 202.494 468.985 194.034C469.052 182.109 480.243 177.579 492.967 184.374C500.562 188.438 519.281 205.825 528.341 217.283C534.603 225.144 540.798 234.803 545.595 244.33C558.252 269.244 556.72 276.173 535.136 291.428C517.549 303.819 497.297 313.811 480.643 318.141C467.253 321.672 450.732 323.071 443.737 321.272C435.21 319.074 429.215 314.278 425.551 306.816C423.952 303.552 416.224 280.17 410.029 259.918C408.696 255.521 406.431 249.526 405.032 246.595C396.106 227.942 378.785 220.414 359.733 226.876C352.138 229.474 336.75 236.802 329.422 241.332C314.766 250.458 264.537 288.23 219.97 323.671C199.585 339.925 192.923 344.788 192.124 343.989C191.058 342.923 195.255 333.263 208.112 307.549C237.357 248.993 265.27 198.564 300.244 141.139C318.563 110.962 326.89 97.9716 370.924 30.9547C379.052 18.5639 386.579 6.63938 387.712 4.44102L389.71 0.443984L366.261 0.510601C353.338 0.510601 341.946 0.843687 341.013 1.17677Z" fill="white"/>
<path d="M1456.12 1.77637C1453.99 3.4418 1453.65 4.24121 1449.59 19.4299C1447.66 26.3581 1442.06 46.4765 1437.13 64.0634C1415.75 140.074 1410.69 166.987 1408.95 214.485C1407.42 256.121 1410.89 296.757 1419.21 335.529C1424.14 358.312 1427.81 369.237 1434.6 380.828C1440.6 391.021 1446.13 395.018 1454.19 395.084C1462.98 395.218 1468.91 391.887 1468.91 386.957C1468.91 385.625 1468.18 382.094 1467.24 379.163C1464.85 371.369 1462.91 356.58 1460.78 329.533C1459.65 314.811 1459.65 263.982 1460.78 249.925C1464.58 203.293 1469.64 176.646 1493.96 74.3891C1500.09 48.9413 1506.28 21.8948 1507.88 14.2338L1510.74 0.444025H1484.23C1458.92 0.444025 1457.72 0.510643 1456.12 1.77637Z" fill="white"/>
<path d="M1554.71 2.10971C1552.78 3.44206 1551.78 5.04087 1549.32 10.9032C1535.99 42.4131 1526.73 72.4575 1521.8 99.7039C1517.94 121.155 1520.14 146.136 1526.4 152.864C1528.66 155.329 1532.86 157.528 1536.79 158.394C1544.79 160.059 1552.51 156.995 1556.98 150.333C1560.71 144.737 1562.84 137.209 1569.5 106.366C1580.43 55.4035 1582.36 47.5426 1591.15 18.3643C1593.88 9.37099 1596.15 1.64339 1596.15 1.24369C1596.15 0.644134 1591.22 0.444282 1576.63 0.444282H1557.18L1554.71 2.10971Z" fill="white"/>
<path d="M2062.8 2.7757C2063.33 4.04143 2064.27 6.17318 2064.8 7.43891C2065.33 8.70463 2065.93 9.77051 2066.13 9.77051C2066.33 9.77051 2066.46 7.63876 2066.46 5.1073V0.4441H2064.13H2061.8L2062.8 2.7757Z" fill="white"/>
<path d="M537.401 16.3658C531.006 18.9639 526.143 23.6937 511.953 41.4138C490.036 68.7269 483.907 80.4515 488.437 86.98C492.434 92.8423 495.299 93.3753 521.279 92.6425C562.582 91.5766 566.113 91.7764 576.572 96.1732C585.698 100.037 594.758 95.7069 595.957 86.98C596.69 81.7839 595.158 79.4523 586.897 73.5233C583.1 70.7254 574.373 56.4027 564.847 37.2836C557.719 22.9609 555.054 19.2303 549.925 16.7655C546.128 14.9668 541.265 14.8336 537.401 16.3658Z" fill="white"/>
<path d="M620.539 46.0104C617.075 47.5426 615.876 52.4056 617.875 56.6691C618.474 57.8683 620.073 60 621.539 61.399L624.137 63.9304L626.335 62.0651C627.534 61.0659 629.999 58.8675 631.731 57.2687L634.995 54.2043L631.398 50.607C628.334 47.4094 624.67 45.0111 623.071 45.0778C622.804 45.1444 621.605 45.5441 620.539 46.0104Z" fill="white"/>
<path d="M1941.22 58.7343C1916.78 70.9253 1902.19 77.7869 1893.66 81.1177C1873.41 88.9785 1851.03 92.6425 1832.51 91.1103C1819.05 89.9778 1791.2 83.9156 1762.36 75.7883C1746.04 71.1918 1739.71 70.1925 1728.05 70.1925C1707.93 70.2591 1688.75 76.6544 1669.03 89.7779C1652.71 100.703 1642.18 115.426 1636.98 134.811C1635.32 140.807 1635.19 142.406 1635.19 153.997C1635.19 168.453 1636.05 173.049 1640.71 182.642C1647.24 196.232 1657.1 204.426 1673.42 209.889C1691.14 215.818 1708 214.219 1722.85 205.226L1726.58 202.894L1732.05 206.624C1756.76 223.412 1781.68 225.277 1805.33 212.02L1808.32 210.355L1811.45 216.484C1816.78 226.876 1823.11 232.672 1832.91 236.136C1842.17 239.4 1854.96 238.134 1865.48 232.872C1871.61 229.741 1877.07 225.744 1877.87 223.745C1878.74 221.414 1879.94 216.75 1879.74 216.484C1879.6 216.417 1877.61 215.884 1875.27 215.351C1871.21 214.419 1870.88 214.419 1865.35 216.084C1858.49 218.083 1848.09 218.882 1844.36 217.616C1842.96 217.15 1840.83 215.884 1839.57 214.752C1834.64 210.488 1832.84 204.16 1830.97 184.974C1829.04 165.388 1827.31 160.858 1820.51 157.994C1813.52 155.129 1805.19 159.126 1803.26 166.388C1802.59 168.919 1802.66 170.784 1803.59 177.446C1804.19 181.843 1804.86 187.972 1805.13 191.103C1805.53 196.699 1805.46 196.765 1803.53 198.964C1801.73 200.962 1801.06 201.228 1796.6 201.695C1786.54 202.827 1773.15 199.896 1763.49 194.5C1748.83 186.306 1739.24 173.782 1734.71 156.861C1732.25 148.001 1730.38 144.737 1726.52 142.938C1719.66 139.874 1713.53 142.672 1710.66 150.266C1708.46 156.129 1708.86 160.925 1713.39 182.109C1714.46 187.106 1715.19 191.369 1715.06 191.502C1714.13 192.435 1703 192.302 1697.41 191.369C1676.09 187.639 1665.83 179.844 1663.03 165.189C1660.83 153.597 1662.37 140.807 1666.9 132.146C1670.89 124.619 1683.02 113.227 1693.08 107.565C1703.87 101.436 1712.99 99.0377 1725.32 99.0377C1735.18 99.0377 1744.3 100.57 1761.76 105.1C1794.6 113.627 1800.4 115.026 1809.72 116.625C1824.11 119.023 1836.1 119.956 1847.29 119.489C1864.82 118.69 1874.21 116.625 1900.72 107.365C1910.65 103.901 1918.91 101.169 1919.04 101.303C1919.17 101.436 1918.38 105.233 1917.24 109.763C1913.58 124.885 1912.38 135.011 1912.31 151.332C1912.31 162.257 1912.58 167.92 1913.51 173.649C1915.04 183.375 1918.44 196.898 1921.57 205.359C1925.24 215.218 1933.16 230.94 1939.16 240.066C1942.09 244.53 1946.02 251.191 1947.89 254.855C1951.68 262.25 1954.88 266.78 1957.81 268.845L1959.74 270.244L1963.01 266.98C1967.14 262.916 1968.8 257.986 1968.67 249.926C1968.6 242.798 1966.74 236.669 1959.34 219.282C1952.08 202.228 1947.89 190.77 1945.62 181.776C1937.69 150.666 1939.36 124.485 1950.68 102.102C1955.15 93.242 1962.14 84.1821 1970.67 76.0548L1977 70.0593L1977.86 64.6633C1978.26 61.6655 1978.46 58.5345 1978.2 57.6685C1977.4 55.0038 1973.8 51.8062 1970.07 50.4072C1963.28 47.8757 1962.68 48.0756 1941.22 58.7343Z" fill="white"/>
<path d="M1308.1 53.8049C1306.36 55.3371 1304.63 57.269 1304.23 58.0018C1302.63 60.9995 1303.96 78.4532 1306.43 87.713C1308.49 95.3074 1311.76 100.77 1323.62 116.358C1342.94 141.673 1349 148.868 1352.4 150.733C1355.59 152.398 1360.19 153.064 1362.99 152.332C1366.12 151.466 1370.52 147.202 1372.85 142.672C1374.45 139.608 1374.65 138.542 1374.85 130.015C1375.25 114.16 1372.51 101.17 1365.99 88.0461C1361.59 79.2526 1357.52 73.6568 1350.53 66.9951C1340.27 57.2023 1329.08 51.9396 1317.29 51.2734L1311.16 50.8737L1308.1 53.8049Z" fill="white"/>
<path d="M765.098 59.1338C722.863 66.4617 681.494 96.3062 667.171 129.681C658.444 150.133 656.979 174.048 662.974 199.963C668.57 224.145 680.361 242.598 697.482 253.856C707.741 260.651 725.728 267.979 739.251 270.91C768.229 277.172 798.94 271.509 813.129 257.32C825.853 244.596 827.452 225.21 817.526 205.292C806.934 184.041 786.216 169.652 766.098 169.652C745.713 169.652 731.656 185.44 739.184 200.029C742.382 206.291 743.781 206.891 752.774 205.958L757.104 205.492L761.434 208.823C763.833 210.621 767.297 213.752 769.229 215.751C773.425 220.281 779.021 228.675 778.555 229.874C777.422 232.805 759.969 233.471 749.776 231.006C742.448 229.274 730.524 223.478 725.461 219.348C714.869 210.555 708.274 197.498 706.875 182.509C704.676 158.926 714.669 138.808 736.186 123.553C764.299 103.567 794.077 100.836 819.258 115.892C826.852 120.422 834.38 126.684 844.706 137.009C855.365 147.601 862.426 156.128 872.219 170.118C886.808 190.969 895.934 198.564 909.324 201.095C914.054 201.961 919.65 201.295 925.579 199.163C931.441 197.031 934.905 194.833 944.565 187.105C948.762 183.708 952.359 180.977 952.626 180.977C952.892 180.977 954.558 183.175 956.356 185.773C958.155 188.438 961.752 192.768 964.284 195.366C976.075 207.224 987.8 207.823 999.258 197.165C1006.79 190.236 1011.52 182.775 1024.17 158.327C1031.23 144.67 1038.1 133.145 1039.76 132.146C1040.03 131.946 1041.29 136.61 1042.49 142.539C1047.69 167.054 1049.75 173.582 1055.15 181.776C1065.08 196.965 1081.4 204.093 1100.52 201.628C1114.37 199.829 1129.09 195.166 1141.82 188.571C1153.54 182.442 1160.2 177.246 1176.79 160.925C1185.19 152.664 1193.45 145.003 1195.11 143.871C1203.97 137.875 1212.63 135.077 1223.82 134.544C1235.68 133.945 1246.07 136.277 1255 141.539L1259.33 144.004L1259.13 148.201C1258.93 153.397 1260 155.262 1264.26 157.194C1268.59 159.126 1276.78 159.193 1281.12 157.194C1287.64 154.263 1291.31 148.667 1291.37 141.606C1291.37 137.875 1291.04 136.543 1288.78 131.946C1286.64 127.749 1284.91 125.418 1279.78 120.355C1274.25 114.826 1272.39 113.493 1266.06 110.296C1252.67 103.434 1243.68 101.103 1229.02 100.57C1213.17 100.037 1200.31 102.768 1186.79 109.563C1175.53 115.159 1170.93 118.756 1154.61 134.544C1148.68 140.274 1141.42 146.802 1138.55 148.867C1128.89 156.062 1116.77 161.325 1105.38 163.323C1097.52 164.722 1093.59 163.656 1091.52 159.593C1090.99 158.593 1089.06 149.733 1087.19 139.874C1083.46 119.556 1082 114.026 1078.93 107.431C1071.54 91.5764 1057.28 82.3832 1043.56 84.4483C1034.43 85.8473 1023.11 94.241 1013.85 106.565C1009.32 112.561 1002.72 125.551 996.926 140.007C989.865 157.527 985.734 166.321 984.469 166.321C983.536 166.321 982.537 163.856 979.672 154.796C977.607 148.534 975.342 140.94 974.609 138.009C972.478 130.014 970.612 124.352 968.88 120.955C962.618 108.364 942.833 108.83 936.304 121.621C935.438 123.353 934.173 127.283 933.373 130.348C932.64 133.479 929.709 142.139 926.845 149.667C919.85 167.92 920.649 167.853 910.59 151.199C895.135 125.551 886.941 114.16 874.484 101.236C859.961 86.247 846.371 76.1212 829.051 67.6608C813.529 60.0664 802.737 57.7348 783.751 57.8014C775.824 57.8014 770.228 58.2011 765.098 59.1338Z" fill="white"/>
<path d="M193.856 75.5215C157.083 78.1862 133.634 80.5844 130.17 82.05C126.773 83.449 124.641 85.4475 123.175 88.7117C121.776 91.7761 121.643 93.1085 122.576 96.5059C123.575 99.9034 126.906 102.901 131.169 104.167C134.5 105.1 136.166 105.1 151.155 104.034C160.947 103.301 173.471 102.901 182.198 102.968C199.452 103.101 206.18 102.368 210.244 100.037C218.038 95.4401 219.304 85.7806 212.909 79.3853C208.845 75.3883 205.448 74.6555 193.856 75.5215Z" fill="white"/>
<path d="M2061.07 89.9113C2051.14 98.1052 2045.95 106.432 2040.88 122.154C2037.35 133.146 2036.29 140.341 2036.69 150.333C2037.02 159.593 2038.35 164.722 2042.28 172.65C2046.48 181.177 2055.47 191.436 2063.4 196.965L2066.47 199.03V142.672C2066.47 111.695 2066.2 86.3806 2065.93 86.3806C2065.67 86.3806 2063.47 87.9794 2061.07 89.9113Z" fill="white"/>
<path d="M127.572 131.747C80.54 132.546 60.2217 133.346 56.691 134.678C52.3609 136.21 49.6296 138.542 47.6977 142.472C42.768 152.398 48.2306 163.257 59.7554 166.254C63.2861 167.187 113.249 168.853 154.219 169.452C193.19 169.918 202.183 169.252 210.843 164.922C221.369 159.659 223.834 146.403 215.839 138.275C210.777 133.079 207.646 132.28 189.526 131.614C172.205 131.014 171.539 131.014 127.572 131.747Z" fill="white"/>
<path d="M482.841 223.878C476.579 226.277 473.448 231.006 473.382 237.868C473.315 246.861 477.978 253.79 486.105 256.787C491.168 258.653 492.034 259.785 495.299 268.579C496.631 272.243 497.963 275.64 498.23 276.106C498.829 277.172 505.291 269.578 507.156 265.581C509.355 260.918 509.555 249.859 507.623 243.464C503.626 230.34 497.63 223.812 489.17 223.212C486.838 223.079 484.373 223.345 482.841 223.878Z" fill="white"/>
<path d="M36.2398 238.401C36.0399 238.734 28.7786 238.934 20.0518 238.934C10.259 238.934 3.39748 239.2 2.06513 239.666L0 240.399V258.786V277.238L9.85934 299.555C15.322 311.813 21.5174 326.069 23.7157 331.198C26.98 338.993 28.1791 341.058 30.977 343.922C36.6395 349.651 44.034 350.984 50.8955 347.453C57.4906 344.122 60.9547 339.192 87.4018 296.224C100.592 274.707 101.258 273.575 103.323 267.179C107.187 255.388 103.323 245.262 93.3307 240.732C91.0657 239.666 89.0672 239.333 85.6031 239.4C70.6808 239.733 59.5558 239.533 48.7638 238.734C42.0354 238.267 36.373 238.134 36.2398 238.401ZM58.8896 264.048C58.2234 265.114 54.0932 271.443 49.763 278.238C45.3663 285.033 41.7024 290.629 41.6357 290.762C41.5025 290.895 31.6432 268.445 29.5114 263.049C29.2449 262.449 32.5092 262.25 44.6335 262.25H60.0887L58.8896 264.048Z" fill="white"/>
<path d="M2022.5 243.064C2018.3 245.862 2017.5 248.527 2017.3 260.384C2017.04 270.444 2017.1 271.11 2018.83 275.573C2019.97 278.571 2021.37 280.902 2022.83 282.168C2024.83 283.9 2025.36 284.1 2027.29 283.501C2030.36 282.635 2036.69 278.171 2046.81 269.777C2056.14 262.05 2057.54 259.985 2056.41 255.921C2055.47 252.723 2051.81 250.125 2042.08 245.928C2031.03 241.132 2026.36 240.466 2022.5 243.064Z" fill="white"/>
<path d="M1183.05 250.991C1162.94 252.257 1139.95 256.854 1123.9 262.716C1106.84 268.978 1087.33 280.17 1072.54 291.961C1064.81 298.156 1051.15 311.88 1045.09 319.54C1021.17 349.718 1008.98 383.227 1009.05 418.467C1009.12 454.64 1024.64 482.02 1053.08 496.343C1067.14 503.404 1086.59 507.334 1103.91 506.535C1112.17 506.202 1110.78 506.535 1131.49 499.14C1135.16 497.808 1139.35 496.742 1140.89 496.742C1142.35 496.742 1145.95 497.608 1148.88 498.674C1162.4 503.604 1174.46 502.671 1189.98 495.476C1207.77 487.283 1220.36 475.358 1232.15 455.44L1234.22 451.909L1235.88 453.841C1236.81 454.907 1239.81 458.437 1242.61 461.768C1256.47 478.422 1272.59 490.347 1288.38 495.676C1302.1 500.273 1315.89 497.475 1326.02 488.015C1332.28 482.086 1335.74 476.291 1337.34 468.83L1337.81 466.565L1334.41 467.031C1332.54 467.297 1328.75 468.363 1326.08 469.429C1320.29 471.761 1313.76 472.094 1308.56 470.362C1300.57 467.697 1288.11 456.639 1280.65 445.78C1272.92 434.455 1270.32 428.326 1255.6 386.491C1251.2 374.033 1246.67 362.109 1245.54 359.911C1242.74 354.648 1237.95 349.851 1233.28 347.653C1230.02 346.121 1228.55 345.854 1223.76 345.854C1218.83 345.854 1217.56 346.121 1213.7 347.919C1208.17 350.584 1204.84 353.915 1202.24 359.444C1200.38 363.375 1200.18 364.507 1200.11 370.17C1200.11 373.7 1200.64 379.429 1201.37 383.16C1204.84 401.346 1201.37 423.93 1193.18 436.52C1189.92 441.583 1184.12 447.912 1181.59 449.244C1179.52 450.31 1170.66 453.441 1169.73 453.441C1169.13 453.441 1164.73 442.249 1161.14 431.79C1157.27 420.332 1155.21 415.469 1152.08 410.673C1146.88 402.612 1138.89 398.149 1129.49 398.149C1116.5 398.149 1106.51 406.343 1103.85 419.133C1102.25 426.728 1103.91 433.256 1112.17 453.108C1117.57 466.098 1117.97 468.363 1115.57 471.228C1113.17 474.092 1108.71 475.491 1100.92 475.891C1089.66 476.557 1080 473.959 1070.4 467.697C1061.41 461.901 1053.82 452.975 1050.62 444.514C1046.76 434.189 1045.62 415.736 1048.15 403.145C1052.02 383.227 1064.34 358.245 1078.67 341.191C1101.91 313.478 1135.96 295.958 1174.99 291.495C1185.72 290.296 1210.77 291.028 1221.03 292.894C1244.21 297.024 1263.33 304.751 1280.52 316.876C1295.77 327.668 1316.62 351.583 1335.27 379.829C1361.32 419.2 1372.25 440.717 1378.64 465.099C1382.11 478.556 1383.97 495.876 1383.24 508.733C1382.91 515.129 1383.11 517.593 1384.31 523.389C1385.04 527.253 1386.24 531.45 1386.84 532.716C1388.37 535.78 1392.9 539.111 1397.3 540.443C1400.56 541.376 1401.09 541.376 1403.09 540.443C1407.75 538.245 1409.75 533.582 1414.55 514.063C1415.48 510.199 1417.01 504.203 1417.95 500.739C1421.01 489.414 1421.88 482.686 1421.88 469.096C1421.94 454.64 1420.94 447.312 1417.15 434.788C1414.08 424.463 1410.89 417.268 1402.49 401.28C1384.7 367.571 1370.25 344.922 1353.73 325.203C1346.4 316.409 1329.75 300.022 1321.35 293.36C1281.51 261.584 1235.95 247.594 1183.05 250.991Z" fill="white"/>
<path d="M1792.34 262.116C1784.47 265.78 1781.81 275.906 1787.07 282.235C1790.47 286.232 1798.86 287.164 1804.73 284.167C1813.05 279.97 1813.45 268.378 1805.46 262.849C1802.33 260.717 1796.07 260.384 1792.34 262.116Z" fill="white"/>
<path d="M1658.77 314.544C1647.98 316.276 1633.99 319.674 1626.26 322.338C1581.29 337.794 1529.53 383.293 1498.95 434.255C1493.56 443.315 1485.9 459.636 1482.97 468.43C1476.24 488.748 1474.37 514.196 1478.44 530.051C1484.43 553.3 1501.42 570.154 1525.53 576.749C1529.2 577.815 1533.33 578.215 1541.19 578.482C1550.78 578.748 1552.65 578.615 1559.84 577.149C1564.24 576.217 1570.43 574.684 1573.7 573.752C1576.9 572.886 1579.49 572.219 1579.49 572.419C1579.49 572.553 1578.49 577.282 1577.23 582.878C1575.96 588.407 1574.56 595.869 1574.1 599.333C1573.03 608.126 1573.1 622.582 1574.36 628.378C1578.43 647.497 1590.35 660.287 1608.14 664.684C1621.26 668.015 1640.52 664.151 1658.57 654.692C1667.63 649.895 1674.69 644.632 1682.42 636.971C1693.61 625.913 1700.94 615.321 1709.26 598.134C1712.66 591.072 1714.39 588.141 1714.93 588.541C1715.39 588.874 1718.26 591.072 1721.39 593.47C1735.71 604.462 1748.63 610.924 1763.69 614.388C1771.08 616.12 1788.67 616.12 1796.6 614.388C1818.85 609.592 1844.36 595.336 1859.69 579.214C1878.54 559.362 1885.87 533.648 1879.67 509.333C1876.47 496.676 1871.48 486.75 1862.02 474.159C1838.24 442.516 1810.79 424.263 1777.61 418.001C1771.15 416.802 1767.29 416.535 1756.7 416.535C1738.98 416.535 1725.19 418.734 1713.86 423.463C1708.66 425.595 1698.47 431.258 1695.01 433.856C1691.01 436.853 1689.61 442.782 1691.74 447.912C1692.74 450.243 1692.81 450.31 1695.61 449.91C1697.14 449.644 1702.4 448.911 1707.2 448.178C1745.5 442.449 1775.55 446.846 1801.73 461.968C1823.05 474.292 1836.97 488.149 1845.9 506.002C1851.69 517.527 1853.02 530.117 1849.43 540.443C1844.23 555.299 1830.71 566.824 1806.46 576.949C1790.54 583.678 1778.35 583.678 1765.02 577.083C1749.1 569.155 1739.24 557.097 1732.65 537.445C1729.52 528.252 1727.72 525.121 1723.45 521.257C1714.26 512.997 1699.27 515.262 1692.68 525.787C1690.81 528.785 1688.81 534.914 1688.08 539.977C1687.08 546.439 1682.28 568.023 1680.35 574.818C1674.62 595.402 1663.5 609.925 1647.44 617.985C1636.98 623.248 1623.99 626.046 1620.53 623.715C1617.67 621.849 1617.73 619.185 1620.73 607.194C1622.2 601.198 1625.13 590.806 1627.13 584.011C1630.66 572.419 1632.39 567.157 1637.92 552.034C1640.05 546.106 1640.18 545.306 1639.92 539.044C1639.72 533.848 1639.38 531.716 1638.18 529.251C1634.25 521.191 1626.73 516.128 1617.8 515.528C1611.47 515.129 1608.87 515.662 1583.49 522.39C1558.11 529.185 1552.25 530.317 1545.19 529.918C1537.06 529.451 1533.06 526.986 1530.06 520.391C1528.86 517.593 1528.6 515.928 1528.6 510.399C1528.73 495.21 1534.19 476.624 1542.59 462.701C1553.05 445.38 1587.42 401.413 1601.41 387.423C1616.2 372.634 1635.39 361.243 1658.97 353.116C1677.35 346.787 1685.81 345.988 1695.54 349.518C1701.94 351.85 1703.93 351.983 1706.27 350.184C1712.13 345.588 1709.53 332.331 1701.14 324.337C1696.61 319.94 1692.74 317.742 1685.75 315.543C1679.75 313.678 1666.96 313.145 1658.77 314.544Z" fill="white"/>
<path d="M1903.99 321.539C1896.59 322.605 1886.07 325.536 1870.28 330.932C1845.83 339.392 1802.93 352.183 1799.13 352.183C1795.2 352.183 1793.14 350.184 1791.94 345.188C1790.27 338.06 1786.21 334.33 1779.48 333.73C1772.62 333.13 1767.49 335.995 1764.42 342.124C1759.36 352.25 1760.96 365.24 1768.29 373.301C1774.68 380.429 1791.8 385.292 1804.19 383.56C1825.11 380.629 1852.69 373.434 1878.94 364.174C1898.72 357.179 1906.78 354.848 1911.05 354.848C1916.71 354.848 1916.58 354.248 1916.38 379.563C1916.24 399.348 1916.38 401.813 1917.71 409.474C1921.04 428.193 1925.37 437.719 1934.43 446.246C1945.42 456.572 1960.34 460.303 1978.26 457.105C1981.73 456.439 1984.73 456.106 1984.93 456.306C1985.13 456.439 1983.86 461.968 1982.19 468.497C1976.07 492.279 1973.87 508.001 1973.4 531.183C1972.8 559.362 1975.47 582.678 1982.53 610.658C1985.39 622.116 1991.19 639.303 1994.45 646.298C2000.18 658.489 2009.31 669.747 2019.37 676.809C2026.3 681.738 2030.36 683.404 2034.96 683.137C2038.35 682.937 2038.82 682.737 2039.02 681.472C2039.15 680.739 2037.89 677.341 2036.15 674.011C2027.89 657.556 2023.5 639.836 2019.23 606.328C2012.64 554.1 2019.23 502.738 2038.95 452.775C2041.35 446.713 2044.15 440.118 2045.21 438.053C2048.28 431.99 2052.28 429.459 2059.07 429.459C2061.54 429.459 2062.34 429.792 2064.2 431.857L2066.47 434.189V387.157C2066.47 349.718 2066.27 340.192 2065.67 340.592C2063.07 342.124 2054.27 349.052 2048.95 353.782C2032.96 368.104 2018.1 386.957 2005.58 408.808C2003.18 413.071 2000.38 417.335 1999.32 418.334C1997.05 420.532 1986.59 424.862 1977.27 427.527C1968.34 429.992 1963.41 430.058 1958.75 427.727C1949.82 423.33 1947.15 410.939 1948.62 380.828C1949.49 363.108 1949.15 354.048 1947.49 347.853C1944.09 334.929 1935.76 326.002 1924.04 322.738C1918.71 321.273 1909.85 320.74 1903.99 321.539Z" fill="white"/>
<path d="M828.052 371.369C817.06 372.901 810.065 382.227 810.065 395.284C810.065 404.811 815.261 482.553 816.727 494.81C817.526 501.539 819.391 506.269 823.988 513.197C829.184 520.991 831.382 523.056 834.713 523.056C838.044 523.056 840.509 520.791 843.573 514.796C848.969 504.47 850.035 499.407 851.634 477.09C853.299 453.974 853.566 447.446 852.833 447.446C852.367 447.446 852.234 442.782 852.5 432.923C853.433 393.686 849.569 377.897 837.711 372.834C834.847 371.569 830.783 370.969 828.052 371.369Z" fill="white"/>
<path d="M582.234 395.751C577.371 397.549 567.312 403.012 522.945 427.993C496.831 442.649 476.246 454.64 474.781 456.039C469.851 460.702 468.053 467.897 470.251 474.359C472.183 480.021 478.511 484.684 485.773 485.684C490.503 486.35 495.565 483.552 508.622 473.093C511.953 470.428 526.143 460.236 540.266 450.443C580.969 422.131 589.829 415.736 592.827 412.471C597.623 407.275 598.223 403.078 594.825 399.148C591.094 394.884 587.297 393.885 582.234 395.751Z" fill="white"/>
<path d="M698.615 424.463C697.216 424.996 694.817 426.328 693.352 427.394C685.158 433.456 682.36 444.181 686.823 453.175C688.489 456.572 690.82 459.237 699.347 467.497C722.863 490.214 738.452 501.872 757.104 510.798C771.027 517.394 788.881 522.523 795.076 521.657C807.134 520.058 812.996 512.997 810.398 503.138C809.132 498.208 806.734 494.211 802.337 489.481C796.475 483.152 730.324 431.924 723.729 428.593C714.403 423.93 704.543 422.331 698.615 424.463Z" fill="white"/>
<path d="M277.594 430.858C271.732 432.257 268.401 435.055 258.875 446.446C234.559 475.624 215.573 506.801 203.649 537.045C197.054 553.766 195.188 561.96 195.188 573.818C195.188 584.877 197.52 591.871 203.449 598.467C211.976 607.926 223.434 610.657 240.621 607.327C259.008 603.796 271.732 598.133 296.114 582.811C304.307 577.615 317.431 570.021 318.164 570.021C318.23 570.021 318.43 581.346 318.63 595.136C318.963 623.581 319.629 628.711 324.093 637.771C326.891 643.5 332.22 648.629 336.817 650.228C340.88 651.56 348.075 651.56 353.338 650.228C361.731 648.03 366.328 645.432 399.836 623.914C410.162 617.253 420.488 610.791 422.753 609.525L426.883 607.26L427.216 609.458C427.483 610.657 428.882 622.116 430.347 634.973C433.611 663.085 435.343 674.677 437.075 681.138C440.473 693.862 447.867 704.521 457.46 710.583C463.389 714.38 465.055 713.048 468.719 701.657C475.247 681.405 478.578 660.154 480.31 627.978C481.309 608.925 481.176 595.269 479.91 587.941C477.512 573.951 473.182 564.292 466.32 557.364C455.662 546.638 441.339 545.173 424.618 553.1C412.76 558.696 387.046 577.682 369.392 593.803C363.33 599.333 357.335 604.462 356.002 605.261L353.604 606.66L354.004 604.862C355.136 599.133 355.936 584.144 356.002 568.022C356.069 549.769 356.069 549.703 354.27 544.44C350.073 532.116 341.746 525.254 329.755 524.255C321.295 523.522 311.036 527.652 296.447 537.512C264.404 559.162 251.014 568.022 247.683 569.621C245.551 570.621 240.954 572.353 237.357 573.418C230.962 575.284 230.829 575.284 229.563 574.018C228.297 572.819 228.364 572.686 230.629 565.558C232.361 560.295 235.492 553.766 242.154 541.376C257.742 512.53 264.67 501.472 281.325 478.889C296.846 457.838 298.445 454.906 298.445 447.579C298.445 443.248 296.713 438.852 293.915 435.921C289.985 431.79 282.857 429.525 277.594 430.858Z" fill="white"/>
<path d="M577.771 526.387C567.512 529.252 560.717 536.313 557.919 547.038C556.453 552.701 556.653 555.965 558.918 564.892C560.983 573.219 561.783 579.747 564.581 612.989C569.577 672.479 570.643 689.333 572.242 734.233C573.108 758.215 574.307 762.811 582.101 770.006C587.697 775.136 592.427 776.868 601.22 776.868C607.349 776.868 608.215 776.668 612.412 774.736C619.806 771.205 630.865 759.547 641.857 743.559C664.44 710.85 693.752 677.275 726.86 646.298C750.443 624.248 753.707 620.85 755.372 616.32C758.503 607.926 756.572 599.333 750.443 594.203C745.513 590.14 736.12 583.611 728.925 579.281C720.598 574.351 715.469 572.153 690.154 562.76C679.362 558.763 656.446 550.036 639.192 543.374C599.422 527.986 593.826 526.054 586.698 525.654C583.034 525.454 580.103 525.721 577.771 526.387ZM655.846 605.995C675.632 611.924 692.019 616.986 692.286 617.253C692.552 617.519 676.631 633.841 656.846 653.626C637.127 673.345 620.806 689.399 620.672 689.266C620.539 689.066 619.14 669.414 617.608 645.632C616.076 621.783 614.61 600.332 614.41 597.867L614.011 593.337L616.942 594.203C618.541 594.736 636.061 599.999 655.846 605.995Z" fill="white"/>
<path d="M57.8903 547.105C54.3595 548.171 49.9628 552.035 48.0309 555.898C46.5653 558.829 44.7001 565.691 42.7015 576.017C33.7748 621.45 40.1035 662.419 60.888 693.596C72.8125 711.516 88.2011 725.506 111.517 739.495C139.163 756.216 171.739 768.474 214.707 778.466C246.15 785.728 276.528 790.258 347.342 798.052L361.265 799.584L373.389 797.119C388.245 794.121 395.906 791.856 399.57 789.392C410.162 782.264 411.294 765.21 401.768 756.349C394.44 749.488 383.715 747.822 325.425 744.225C255.144 739.895 227.364 735.698 193.39 724.24C141.495 706.72 111.584 682.338 97.5941 645.965C94.5297 638.037 92.1981 628.644 90.6659 617.319C89.9331 611.99 88.4009 600.932 87.2684 592.671C84.2707 571.22 82.2055 560.295 80.207 556.231C76.21 548.037 67.0168 544.24 57.8903 547.105Z" fill="white"/>
<path d="M1251.4 587.009C1173.6 592.338 1126.03 595.469 1088.86 597.667C1009.78 602.331 976.608 605.395 939.302 611.657C910.524 616.454 906.06 619.385 895.735 639.77C885.875 659.222 876.482 672.079 859.362 689.333C853.699 695.062 844.506 703.655 838.91 708.518C824.787 720.709 821.99 724.706 821.99 732.501C821.923 737.23 823.322 740.761 826.586 744.092C830.783 748.489 836.579 750.687 846.705 751.82C853.966 752.619 907.393 750.687 945.964 748.156C976.275 746.224 1164.93 731.302 1223.29 726.239C1233.88 725.306 1243.54 724.573 1244.74 724.573H1247.07L1246.67 734.699C1246.21 746.091 1247.01 751.153 1250.14 757.349C1252.2 761.479 1257.73 767.408 1261.4 769.54C1268.19 773.47 1278.32 774.403 1286.71 771.805C1297.5 768.541 1303.63 764.277 1324.02 745.891C1338.87 732.501 1342.94 728.97 1343.27 729.303C1343.4 729.436 1344.73 732.234 1346.27 735.498C1352.46 748.888 1361.19 758.881 1371.05 763.811C1384.97 770.806 1399.43 770.006 1416.95 761.279C1452.59 743.492 1470.31 719.377 1470.44 688.267C1470.57 668.215 1463.91 650.761 1449.72 633.774C1442.4 625.114 1436.27 620.717 1428.01 618.319C1417.35 615.188 1411.42 620.117 1412.55 631.043C1412.82 633.308 1415.02 642.901 1417.55 652.36C1423.74 675.476 1424.54 679.607 1424.08 686.402C1423.34 698.992 1414.28 710.251 1401.23 714.98C1398.83 715.846 1396.1 716.579 1395.03 716.579C1393.37 716.579 1393.1 716.179 1391.5 711.383C1390.5 708.585 1388.5 700.325 1386.97 693.063C1383.71 677.408 1381.77 671.479 1378.51 666.749C1375.51 662.419 1369.92 658.289 1365.05 656.824C1360.32 655.491 1352.66 655.958 1347.67 657.889C1342.47 659.955 1338.07 663.419 1322.15 678.074C1314.42 685.136 1307.5 691.464 1306.63 692.131L1305.03 693.396V685.735C1305.03 676.809 1303.63 671.346 1300.23 666.483C1288.78 650.562 1263.66 653.559 1257.73 671.613C1255.8 677.541 1254.87 679.34 1252.27 682.271C1250.14 684.736 1246.41 687.001 1242.74 688C1237.15 689.666 1209.77 691.997 1113.51 698.926C914.055 713.315 876.949 715.78 877.881 714.248C878.081 713.914 882.212 709.384 887.075 704.255C902.397 688.067 911.723 676.209 919.584 662.819C921.982 658.889 924.447 654.692 925.113 653.626C927.511 649.695 930.376 648.963 953.625 646.298C965.35 645.032 988 642.434 1003.92 640.636C1084.13 631.576 1119.84 629.044 1257.73 622.982C1344.4 619.185 1336.61 619.718 1341.67 617.186C1345.07 615.454 1346.33 614.322 1348 611.724C1349.8 608.793 1350 607.86 1350 602.997C1350 598.134 1349.8 597.268 1348 594.337C1345.53 590.406 1341.27 587.875 1334.01 586.009C1329.28 584.81 1326.81 584.677 1306.1 584.744C1287.91 584.81 1276.98 585.277 1251.4 587.009Z" fill="white"/>
<path d="M1874.61 629.71C1866.75 631.775 1860.55 635.906 1855.09 642.767C1851.03 647.897 1844.16 661.62 1836.37 680.206C1830.57 693.996 1829.91 696.128 1829.24 701.79C1828.18 711.116 1829.31 718.311 1833.04 726.505C1835.77 732.5 1843.5 740.495 1849.63 743.692C1857.82 747.956 1861.95 748.888 1872.61 748.822C1881.14 748.822 1883 748.555 1888.13 747.023C1912.38 739.629 1931.7 719.843 1938.03 696.061C1939.89 688.933 1939.83 677.608 1937.96 670.347C1931.43 645.698 1909.65 628.578 1884.93 628.711C1881.27 628.711 1876.61 629.177 1874.61 629.71ZM1892.86 684.603C1895.86 685.735 1900.39 690.465 1901.92 694.062C1903.99 698.859 1903.59 706.053 1900.99 711.116C1896.92 719.044 1888.6 724.506 1879.6 725.106C1876.74 725.306 1873.81 725.106 1872.34 724.573C1869.41 723.64 1865.61 720.443 1864.28 717.911C1863.35 716.113 1863.48 715.913 1871.68 705.187C1876.34 699.192 1881.47 692.397 1883.07 690.065C1885.87 686.202 1888.46 684.003 1890.4 683.937C1890.8 683.937 1891.93 684.203 1892.86 684.603Z" fill="white"/>
<path d="M755.106 719.244C750.709 721.042 748.844 727.637 751.042 733.566C752.441 737.23 756.571 741.028 759.769 741.627C767.163 742.959 772.826 736.298 770.827 728.57C768.895 721.242 761.234 716.712 755.106 719.244Z" fill="white"/>
<path d="M2018.17 761.745C1965.94 790.657 1965.34 791.057 1961.48 798.851C1959.74 802.448 1959.54 803.514 1959.54 809.177C1959.54 817.371 1961.28 821.168 1967.81 827.363C1972.93 832.16 1980.2 836.157 1999.85 844.817C2024.9 855.875 2034.56 861.005 2055.14 873.995L2066.13 880.923L2066.33 857.874C2066.4 845.217 2066.33 834.491 2066.2 834.092C2066 833.559 2036.02 812.041 2027.56 806.379C2026.56 805.713 2026.83 805.513 2047.95 792.722L2066.47 781.531V758.348C2066.47 745.624 2066.4 735.232 2066.33 735.232C2066.2 735.232 2044.55 747.156 2018.17 761.745Z" fill="white"/>
<path d="M48.6305 757.282C47.6979 757.682 43.2346 760.48 38.638 763.544C28.712 770.139 18.9193 775.402 8.19391 779.865L0.333086 783.13L0.133234 813.507L0 843.818L3.93041 849.68C10.259 859.073 13.5233 861.804 19.9852 863.203C27.1798 864.736 33.1754 861.738 40.6365 852.811C46.8319 845.417 50.9622 842.419 64.219 835.691C74.0783 830.628 75.4107 829.762 80.8733 824.432C86.669 818.703 86.7356 818.637 85.6697 817.104C85.0702 816.238 84.6038 815.106 84.6038 814.506C84.6038 813.973 81.8059 806.312 78.3418 797.519C66.0176 766.009 63.0865 760.28 57.8237 757.482C55.7586 756.416 51.0954 756.349 48.6305 757.282ZM46.3656 801.383L49.0969 810.443L45.0332 813.107C36.8393 818.437 32.1095 819.236 27.5795 815.972C23.4493 812.907 17.3205 805.646 18.1865 804.78C19.0525 803.847 42.3685 791.923 42.9015 792.056C43.2346 792.189 44.8334 796.386 46.3656 801.383Z" fill="white"/>
<path d="M1776.48 803.847C1753.03 805.913 1730.12 813.907 1711.06 826.697C1701.27 833.292 1696.27 837.489 1685.75 848.081C1670.09 863.803 1660.37 877.326 1654.24 891.782C1636.98 932.352 1640.91 982.648 1664.03 1017.16C1671.89 1028.95 1678.35 1035.54 1691.68 1045.8C1694.21 1047.73 1696.41 1049.6 1696.54 1050C1696.61 1050.33 1694.74 1051.8 1692.21 1053.13C1687.28 1055.86 1674.49 1067.85 1669.36 1074.65C1666.56 1078.38 1666.43 1078.71 1666.43 1083.24C1666.43 1089.57 1667.89 1092.17 1672.42 1093.83C1677.15 1095.5 1682.82 1094.96 1691.41 1091.97C1695.27 1090.7 1702 1088.64 1706.4 1087.44C1714.06 1085.37 1714.93 1085.31 1726.05 1085.37C1735.31 1085.44 1739.11 1085.7 1744.5 1086.84C1763.42 1090.9 1777.88 1098.76 1791.67 1112.62C1803.53 1124.54 1810.86 1136 1814.12 1147.93C1815.39 1152.46 1815.58 1154.99 1815.58 1164.91C1815.58 1174.91 1815.39 1177.37 1814.12 1181.9C1809.19 1199.75 1797.07 1213.54 1781.68 1218.74C1767.29 1223.67 1759.43 1225.73 1753.96 1226C1742.31 1226.67 1736.18 1223.14 1725.19 1209.48C1709.73 1190.23 1696.74 1176.7 1690.01 1172.71C1678.82 1166.11 1667.56 1166.58 1655.97 1174.17C1651.04 1177.37 1648.04 1179.97 1634.45 1192.89C1625.93 1200.95 1617.6 1206.88 1609.14 1210.88C1601.48 1214.54 1597.81 1215.54 1592.28 1215.54C1587.29 1215.54 1584.42 1213.74 1582.22 1209.35C1580.89 1206.62 1580.69 1205.22 1580.69 1199.69C1580.83 1191.96 1580.49 1193.09 1591.08 1160.58C1607.01 1111.82 1611.47 1095.16 1610.54 1088.7C1608.01 1072.18 1588.82 1067.05 1579.63 1080.51C1575.9 1085.84 1560.31 1123.74 1554.18 1142.26C1539.12 1187.63 1536.53 1205.88 1542.65 1223.2C1547.52 1236.93 1558.31 1247.38 1572.57 1252.11C1586.75 1256.84 1601.34 1256.31 1619.4 1250.45C1633.99 1245.72 1646.78 1238.26 1664.36 1224.27L1673.62 1216.87L1677.02 1220.07C1678.89 1221.8 1684.35 1226.87 1689.08 1231.26C1711.66 1252.38 1719.39 1257.71 1733.18 1261.64C1741.51 1264.04 1752.03 1263.77 1762.36 1260.91C1788.67 1253.71 1810.32 1244.65 1820.38 1236.59C1835.24 1224.67 1846.36 1205.02 1851.36 1181.57C1852.69 1175.57 1852.89 1172.57 1852.89 1160.92C1852.89 1148.66 1852.69 1146.39 1851.09 1138.87C1847.83 1123.41 1842.03 1109.55 1833.64 1096.96C1819.91 1076.51 1801.4 1062.46 1777.55 1054.39C1760.03 1048.53 1754.3 1044.67 1747.57 1034.14C1743.7 1028.15 1738.78 1023.22 1727.72 1014.36C1722.99 1010.56 1717.06 1005.43 1714.66 1002.97C1703.73 991.974 1696.61 978.185 1693.68 962.063C1692.28 954.269 1692.28 938.947 1693.68 930.287C1700.14 890.983 1733.58 855.676 1773.95 845.483C1787.81 841.953 1806.19 842.019 1812.72 845.55C1816.52 847.615 1818.92 851.146 1819.58 855.476C1820.78 863.07 1812.19 880.59 1801.99 891.316C1793.53 900.243 1785.14 905.106 1764.89 912.767L1754.7 916.63L1749.77 911.901C1744.37 906.771 1742.44 905.972 1736.91 906.638C1733.05 907.038 1728.92 909.902 1727.12 913.433C1724.19 919.095 1726.12 929.154 1732.65 942.012C1745.37 966.926 1765.22 984.313 1790.27 992.308C1800.53 995.638 1807.59 996.638 1819.65 996.638C1835.3 996.571 1844.5 994.772 1864.08 987.644C1869.15 985.779 1873.54 984.447 1873.74 984.647C1874.01 984.913 1874.41 988.644 1874.67 993.04C1875.41 1004.17 1875.74 1006.36 1878.67 1015.29C1881.67 1024.42 1886.87 1035.48 1890 1039.27C1893.86 1043.87 1900.32 1045.53 1905.72 1043.34C1909.38 1041.8 1910.51 1040.47 1911.65 1036.47L1912.71 1032.88L1910.05 1030.08C1903.19 1023.02 1903.12 1019.02 1909.32 965.727C1910.71 953.07 1912.25 939.88 1912.65 936.416C1914.05 923.892 1911.45 917.03 1903.59 912.9C1899.79 910.901 1892.59 910.901 1888.86 912.9C1882.73 916.164 1880.14 921.16 1877.27 935.217C1876.47 939.08 1875.21 943.211 1874.54 944.343C1872.28 948.007 1858.35 956.334 1848.29 959.932C1835.64 964.462 1819.91 965.328 1807.86 962.197C1799.6 959.998 1792.14 956.801 1785.21 952.271C1782.14 950.339 1778.81 948.34 1777.75 947.874L1775.81 947.008L1777.41 945.476C1778.28 944.61 1782.34 942.811 1786.34 941.479C1815.92 931.419 1837.83 910.169 1849.83 879.991C1854.29 868.599 1855.56 862.204 1855.09 853.144C1854.49 840.287 1850.23 830.761 1840.9 821.434C1836.3 816.771 1834.5 815.505 1828.58 812.574C1814.52 805.779 1794.07 802.315 1776.48 803.847Z" fill="white"/>
<path d="M728.459 834.758C723.796 836.823 720.132 842.419 720.132 847.482C720.132 851.146 722.13 855.143 725.128 857.674C734.654 865.468 748.644 857.874 747.178 845.55C746.379 838.821 740.65 833.825 733.855 833.825C731.99 833.892 729.591 834.291 728.459 834.758Z" fill="white"/>
<path d="M1548.85 844.817C1546.85 845.417 1543.25 847.016 1540.86 848.414C1532.93 853.144 1532.86 853.144 1506.68 853.144C1493.76 853.144 1475.77 852.811 1466.58 852.411C1448.52 851.612 1444.79 852.012 1437.93 855.209C1430.94 858.474 1425.21 866.068 1423.68 873.995C1423.34 875.927 1422.74 893.914 1422.34 914.099C1421.94 934.217 1421.28 959.465 1420.81 970.124C1419.95 991.375 1420.21 994.04 1423.34 1001.1C1427.87 1011.09 1439.26 1015.89 1451.46 1012.96C1453.19 1012.49 1470.91 1005.63 1490.89 997.637C1510.88 989.71 1532.6 981.183 1539.19 978.784C1545.79 976.386 1553.05 973.455 1555.31 972.389C1562.64 968.925 1567.37 963.396 1570.1 955.402C1572.63 947.674 1575.36 917.563 1575.9 890.117C1576.36 868.2 1575.83 861.205 1573.17 855.543C1568.97 846.616 1558.64 842.086 1548.85 844.817ZM1529.8 891.249C1530.06 893.514 1532.26 931.553 1533.06 948.007L1533.19 951.271L1499.22 959.399C1480.57 963.862 1465.18 967.459 1465.05 967.393C1464.98 967.326 1465.18 963.729 1465.58 959.332C1465.91 955.002 1466.64 942.678 1467.24 932.086C1467.78 921.427 1468.44 910.835 1468.64 908.437C1469.04 904.173 1470.64 900.043 1472.37 898.644C1473.44 897.711 1483.1 895.913 1508.48 891.782C1519.54 889.984 1528.73 888.518 1529 888.518C1529.26 888.451 1529.6 889.717 1529.8 891.249Z" fill="white"/>
<path d="M169.541 847.015C151.887 851.879 141.295 855.809 132.302 861.005C95.9286 881.856 66.0175 908.303 43.9672 939.08C26.1138 964.062 12.9902 992.841 5.06279 1024.68C-0.266584 1046 -0.0667322 1043.6 0.133119 1094.17L0.332971 1139.27L2.19825 1148.59C7.19454 1173.84 15.122 1199.82 21.9836 1213.54C31.2433 1232.13 47.0982 1246.39 62.9531 1250.52C67.9494 1251.78 77.2092 1251.85 80.2736 1250.58C84.9368 1248.58 84.5371 1246.65 77.4757 1235.46C75.2773 1232 73.0123 1228.27 72.4128 1227.13C70.6807 1223.8 62.3536 1179.83 60.3551 1163.18C56.6911 1133.47 59.6889 1093.77 68.2159 1059.32C78.8746 1016.22 99.4594 974.521 128.238 937.415C152.22 906.505 174.337 885.254 196.72 871.464C200.917 868.933 202.316 867.6 203.915 864.869C206.979 859.406 206.313 855.542 201.317 850.28C198.186 847.082 192.257 845.15 184.529 844.751C179.533 844.551 177.735 844.817 169.541 847.015Z" fill="white"/>
<path d="M1117.5 850.879C1082.33 855.076 1047.29 868.799 1012.85 891.849C976.142 916.364 952.626 949.672 943.699 989.843C940.368 1004.96 939.636 1012.03 939.702 1031.68C939.702 1051.4 940.235 1056.66 943.766 1069.98C955.357 1114.48 989.532 1145.13 1038.36 1154.85C1053.08 1157.85 1060.41 1158.45 1074.8 1158.05C1088.99 1157.72 1096.85 1156.45 1108.71 1152.66L1115.7 1150.46L1116.57 1153.52C1117.9 1158.58 1128.1 1181.17 1131.43 1186.43C1139.29 1199.09 1152.08 1206.15 1167.13 1206.22C1180.92 1206.22 1190.98 1200.35 1191.91 1191.83C1192.11 1190.23 1191.85 1189.89 1190.45 1189.69C1186.52 1189.23 1180.19 1186.56 1176.59 1183.97C1168.6 1178.04 1165.27 1170.44 1163.14 1153.39C1159.47 1123.61 1160.07 1109.49 1167.6 1057.33C1170.46 1037.41 1170.6 1035.68 1169.86 1030.68C1168.93 1024.02 1166.73 1019.35 1162.6 1015.56C1153.74 1007.23 1139.75 1007.83 1130.76 1016.82C1126.16 1021.42 1120.83 1031.94 1118.57 1040.67C1117.3 1045.73 1111.84 1110.69 1111.84 1120.95V1125.61H1109.18C1105.31 1125.61 1086.66 1123.14 1078.53 1121.61C1051.62 1116.35 1032.83 1107.16 1017.18 1091.63C1010.98 1085.5 1009.72 1083.84 1006.99 1078.31C1002.32 1068.72 1000.59 1058.13 1000.59 1038.27C1000.59 1011.23 1007.12 989.909 1021.91 968.925C1027.3 961.197 1040.23 948.207 1048.75 941.812C1068.07 927.422 1094.19 915.032 1113.51 911.168C1153.28 903.24 1195.25 912.7 1227.62 936.882C1246.87 951.271 1270.12 981.649 1282.91 1009.03C1296.04 1037.34 1302.43 1064.92 1303.43 1097.96C1304.03 1117.48 1302.1 1142 1298.7 1156.65C1290.31 1193.36 1265.66 1234.79 1232.42 1268.24C1203.91 1296.81 1171.46 1317.27 1138.95 1327.06C1124.43 1331.46 1113.91 1332.79 1093.79 1332.79C1080 1332.79 1076.67 1332.19 1072.14 1328.86C1068.21 1325.93 1066.34 1322.86 1061.81 1312.14C1055.95 1298.01 1052.49 1292.08 1046.22 1285.76C1039.96 1279.36 1034.1 1276.23 1025.24 1274.43C999.791 1269.37 968.081 1287.35 954.958 1314.33C950.361 1323.79 949.095 1330.39 949.495 1342.11C949.695 1349.64 950.161 1353.17 951.494 1358.1C957.489 1380.22 971.279 1398.41 988.533 1406.8L994.195 1409.6L1001.72 1408.73C1006.59 1408.13 1009.25 1407.6 1009.25 1407.07C1009.25 1403.8 1006.32 1395.81 1003.65 1391.74C995.927 1380.09 991.997 1360.17 994.861 1347.24C996.926 1338.12 1003.52 1330.72 1013.25 1326.66L1016.78 1325.19L1018.04 1326.79C1018.78 1327.66 1020.58 1330.52 1022.04 1333.12C1032.5 1351.17 1040.03 1358.9 1053.42 1365.43C1066.27 1371.63 1076.67 1373.09 1103.71 1372.56C1124.17 1372.16 1133.76 1370.96 1150.95 1366.76C1205.9 1353.17 1249.14 1321.86 1299.04 1259.51C1317.82 1235.99 1329.21 1215.67 1338.27 1189.29C1361.92 1120.68 1360.46 1050.8 1333.88 983.714C1311.69 927.556 1275.99 889.384 1225.49 867.867C1204.51 858.873 1180.86 852.678 1159.21 850.479C1149.68 849.547 1127.1 849.747 1117.5 850.879Z" fill="white"/>
<path d="M808 851.412C797.874 855.009 794.543 861.605 793.411 880.324C793.011 886.453 792.411 892.715 792.012 894.18C791.079 897.644 788.015 901.442 784.817 903.04C780.021 905.505 762.434 908.636 730.258 912.767C694.351 917.363 690.487 918.429 682.36 926.023C679.162 928.955 677.43 931.286 675.365 935.55C672.767 940.746 672.5 941.745 672.301 947.408C671.701 960.065 677.164 970.057 686.823 974.121C688.888 974.987 689.421 974.987 691.953 974.054C694.084 973.188 694.95 972.522 695.217 971.19C697.349 961.464 700.147 959.532 713.204 958.399C717.933 958 722.263 957.533 722.796 957.4C723.329 957.267 733.522 956.201 745.446 955.069C781.02 951.738 794.143 949.473 803.736 945.143C814.728 940.146 823.855 931.086 828.451 920.627C830.716 915.631 832.448 908.836 834.38 898.311C835.912 889.65 835.912 889.184 834.98 879.125C834.047 868.4 833.514 866.068 830.983 861.072C826.919 852.878 816.26 848.414 808 851.412Z" fill="white"/>
<path d="M379.718 910.169C378.452 910.302 374.389 910.768 370.725 911.168C341.48 914.299 307.705 922.892 278.793 934.55C259.74 942.278 246.55 949.406 235.758 957.866C229.096 963.063 213.908 978.451 207.646 986.379C180.799 1020.09 166.21 1059.32 163.079 1106.42C161.88 1125.08 163.745 1137.27 169.94 1150.19C173.471 1157.65 177.268 1162.85 183.664 1168.98C212.442 1196.49 264.137 1194.76 304.374 1164.91C321.028 1152.59 334.885 1136.87 350.406 1112.82C353.87 1107.36 356.935 1102.96 357.201 1102.96C357.401 1102.96 360.266 1107.22 363.463 1112.42C381.117 1141.2 390.11 1150.86 403.7 1155.65C407.364 1156.99 409.296 1157.19 416.024 1157.19C422.886 1157.19 424.818 1156.92 429.681 1155.32C439.673 1152.06 450.332 1146.33 470.983 1133.07C475.913 1129.94 477.445 1129.27 477.978 1129.94C478.378 1130.4 479.577 1132.14 480.71 1133.74C484.44 1139.13 519.947 1169.84 523.744 1171.04C528.741 1172.57 530.872 1168.98 530.006 1160.72C527.875 1141.26 522.279 1119.88 515.084 1103.76C510.754 1094.03 508.156 1089.7 503.626 1084.77C496.165 1076.58 488.171 1073.18 478.178 1073.78C467.586 1074.45 460.991 1078.31 446.735 1092.23C427.283 1111.15 422.153 1114.68 417.556 1112.22C414.892 1110.75 406.898 1092.3 398.371 1067.98C393.907 1055.13 389.377 1043 388.312 1040.94C382.582 1029.48 370.258 1022.75 359 1024.95C351.872 1026.35 347.075 1029.08 339.947 1035.88C329.222 1046.13 322.893 1055.46 310.17 1079.51C298.711 1101.16 283.589 1123.01 274.663 1130.94C270.865 1134.27 261.206 1139.07 255.144 1140.6C249.082 1142.13 238.156 1142.66 233.027 1141.6C217.638 1138.6 210.244 1126.54 212.376 1107.76C216.039 1075.38 228.297 1043.6 246.817 1018.62C253.212 1010.03 265.136 998.57 273.397 993.107C289.119 982.715 310.036 974.654 344.411 965.794C359.933 961.797 367.793 960.798 381.716 961.264C398.504 961.797 410.295 964.661 424.685 971.723C434.744 976.653 441.672 981.516 460.325 996.438C498.963 1027.48 549.192 1063.32 576.572 1079.38C590.961 1087.84 627.6 1106.09 638.526 1110.22C674.965 1124.01 720.665 1126.27 753.107 1115.82C774.025 1109.09 791.479 1097.03 805.602 1079.64C807.8 1076.91 810.798 1073.31 812.263 1071.78C814.795 1068.98 820.257 1058.53 819.658 1057.59C819.525 1057.33 817.193 1056.33 814.462 1055.33C809.998 1053.73 809.266 1053.6 806.934 1054.33C802.604 1055.73 797.075 1058.79 788.614 1064.39C771.094 1075.98 757.571 1080.71 738.451 1082.04C725.927 1082.84 704.343 1079.98 687.689 1075.31C657.711 1066.85 615.476 1045 584.233 1021.82C567.712 1009.49 514.618 967.459 488.77 946.142C477.379 936.749 468.052 930.62 455.995 924.758C435.676 914.765 418.089 910.568 394.707 910.102C387.779 909.969 380.984 910.035 379.718 910.169Z" fill="white"/>
<path d="M1939.89 960.997C1934.3 962.796 1930.7 966.66 1928.9 972.655C1928.37 974.454 1927.1 984.713 1926.1 995.305C1923.84 1019.55 1923.57 1039.01 1925.44 1045.67C1928.03 1055.13 1932.9 1062.86 1937.36 1064.65C1940.43 1065.85 1946.49 1065.99 1948.89 1064.85C1952.62 1063.19 1954.75 1055.46 1955.55 1041C1955.75 1036.41 1956.68 1023.68 1957.55 1012.69C1960.01 981.382 1960.21 977.119 1958.95 972.922C1957.55 968.059 1954.61 964.195 1951.02 962.463C1947.69 960.864 1942.42 960.131 1939.89 960.997Z" fill="white"/>
<path d="M1508.88 1038.94C1495.56 1043 1491.36 1061.19 1501.48 1071.58C1505.22 1075.38 1509.28 1076.98 1515.61 1076.98C1526.87 1076.98 1533.53 1070.72 1533.53 1060.19C1533.53 1053.93 1531.6 1049.2 1527.33 1044.74C1522.2 1039.47 1514.74 1037.14 1508.88 1038.94Z" fill="white"/>
<path d="M1443.59 1062.26C1438.53 1063.79 1433.8 1068.18 1431.6 1073.38C1430.87 1074.98 1429.4 1079.98 1428.34 1084.44C1425.94 1094.43 1414.95 1151.72 1414.48 1157.12C1414.02 1161.92 1415.68 1168.58 1418.28 1172.17C1423.54 1179.37 1436.4 1179.5 1442.26 1172.37C1444.79 1169.31 1445.73 1166.38 1452.25 1141.26C1461.11 1106.82 1466.31 1084.37 1466.38 1079.98C1466.44 1069.85 1458.25 1061.52 1448.32 1061.72C1446.66 1061.72 1444.53 1061.99 1443.59 1062.26Z" fill="white"/>
<path d="M936.971 1161.98C932.241 1162.51 924.78 1163.51 920.516 1164.25C852.9 1175.84 800.072 1223.27 783.751 1287.09C771.96 1333.39 777.023 1377.22 799.406 1421.39C833.181 1487.87 900.331 1534.17 975.609 1542.97C987.866 1544.43 1009.92 1544.43 1021.91 1543.03C1026.84 1542.43 1036.1 1540.9 1042.43 1539.63C1056.81 1536.64 1057.28 1536.77 1064.81 1543.7C1075 1553.09 1087.73 1561.15 1103.85 1568.35C1121.23 1576.14 1130.16 1578.27 1142.48 1577.74C1150.88 1577.41 1156.21 1576.21 1161.8 1573.41C1168.27 1570.21 1167.8 1566.61 1159.47 1555.49C1152.94 1546.7 1146.48 1539.57 1140.82 1534.84C1120.23 1517.65 1109.51 1501.8 1103.85 1479.88C1100.58 1467.22 1099.72 1459.43 1099.52 1440.71C1099.32 1422.39 1098.98 1420.12 1095.45 1412.8C1094.45 1410.73 1091.92 1407.4 1089.86 1405.33C1083.66 1399.07 1076.27 1396.07 1067.14 1396.07C1054.28 1396.07 1043.09 1403.47 1037.3 1415.73C1032.37 1426.19 1030.3 1437.84 1030.37 1455.36C1030.37 1471.35 1031.97 1480.94 1037.83 1500.8C1039.36 1505.99 1040.16 1505.26 1030.23 1507.26C987.999 1515.65 939.169 1503.66 901.53 1475.55C877.748 1457.83 859.428 1435.71 846.371 1409.06C835.513 1386.95 830.383 1367.36 829.584 1345.11C828.052 1303.21 844.839 1263.64 874.883 1238.39C891.604 1224.4 912.855 1214.21 934.306 1209.88C956.356 1205.42 968.68 1205.75 1019.91 1211.94C1041.83 1214.61 1046.49 1214.68 1049.82 1212.28C1054.02 1209.28 1055.82 1202.02 1053.55 1197.22C1051.89 1193.82 1049.75 1192.16 1036.76 1184.3C1015.65 1171.51 1004.39 1166.58 988.332 1163.18C981.071 1161.58 978.54 1161.45 962.951 1161.18C950.827 1161.05 943.033 1161.25 936.971 1161.98Z" fill="white"/>
<path d="M1437.6 1234.26C1420.61 1236.86 1399.76 1249.38 1386.1 1265.17C1377.58 1275.03 1369.52 1288.89 1365.59 1300.48C1363.45 1306.81 1363.32 1318.6 1365.32 1324.13C1366.78 1328.19 1371.05 1332.99 1375.18 1335.12L1377.78 1336.45L1381.84 1331.99C1384.9 1328.66 1390.7 1324.26 1404.62 1314.67C1414.88 1307.61 1426.14 1300.01 1429.6 1297.81L1435.93 1293.82H1441.6C1446.66 1293.82 1447.66 1294.02 1450.92 1295.82C1455.39 1298.28 1463.05 1305.74 1466.84 1311.27C1471.04 1317.6 1475.37 1326.99 1476.64 1332.59C1478.97 1343.18 1476.37 1356.84 1469.24 1371.09C1464.05 1381.55 1458.45 1389.15 1449.99 1397.21C1436.87 1409.8 1422.01 1417.59 1405.96 1420.39C1395.3 1422.25 1393.17 1421.06 1389.23 1410.86C1379.71 1386.01 1365.19 1368.29 1349.06 1361.7C1340.2 1358.17 1335.21 1357.17 1326.02 1357.24C1318.62 1357.24 1316.49 1357.5 1311.36 1359.03C1295.9 1363.7 1285.98 1372.89 1283.05 1385.35C1281.51 1391.74 1283.45 1400.54 1287.18 1404.53C1289.38 1406.87 1291.64 1407 1296.7 1405.07C1303.17 1402.67 1309.36 1401.8 1314.16 1402.67C1322.35 1404.2 1327.68 1408.13 1338.27 1420.39C1358.46 1443.77 1363.72 1463.29 1354.66 1480.61C1347.93 1493.34 1335.34 1501.53 1313.36 1507.32C1301.43 1510.52 1294.44 1511.39 1278.98 1511.79C1262.8 1512.19 1257.27 1511.52 1248.61 1507.92C1232.88 1501.4 1220.63 1486.07 1215.76 1467.02C1215.03 1464.22 1213.97 1457.83 1213.37 1452.7C1212.3 1444.44 1212.3 1442.24 1213.1 1433.05C1214.03 1421.66 1213.77 1417.19 1211.7 1411.73C1204.44 1392.34 1178.72 1388.75 1162.6 1404.8C1158.01 1409.4 1155.94 1413.39 1153.48 1422.05C1149.08 1437.64 1147.88 1448.1 1149.08 1459.03C1152.01 1484.61 1161.07 1504.79 1177.06 1521.45C1191.38 1536.44 1207.7 1546.43 1230.15 1553.89C1258.13 1563.22 1283.78 1564.22 1312.03 1556.95C1339.21 1550.03 1370.85 1532.17 1382.84 1517.18C1394.96 1501.93 1400.89 1483.28 1400.96 1460.49V1452.03H1404.36C1418.81 1452.03 1442.4 1445.24 1457.78 1436.71L1464.58 1432.91L1465.11 1435.98C1465.98 1441.37 1465.71 1450.7 1464.31 1465.02C1462.11 1486.61 1461.85 1488.81 1457.58 1512.99C1449.66 1557.95 1446.93 1581.94 1446.93 1606.12C1446.93 1618.64 1447.72 1626.9 1449.99 1637.16C1456.39 1665.87 1472.11 1689.26 1498.29 1709.11C1527.6 1731.29 1560.51 1744.35 1598.41 1748.88C1608.87 1750.14 1629.19 1750.28 1638.45 1749.21C1665.83 1745.88 1689.94 1736.15 1711.73 1719.57C1719.59 1713.64 1733.31 1699.98 1740.64 1690.86C1761.03 1665.47 1780.28 1629.7 1789 1600.92C1791.94 1591.2 1794.93 1576.21 1796.07 1566.15C1797.07 1556.49 1796.53 1531.31 1795.07 1522.31C1790.67 1495.4 1779.35 1466.02 1764.82 1444.11C1729.85 1391.28 1662.23 1374.22 1606.21 1404.13C1584.62 1415.66 1566.5 1433.45 1556.98 1452.43C1550.12 1466.16 1546.92 1479.28 1546.38 1496C1546.05 1506.33 1546.19 1508.32 1547.45 1513.52C1550.25 1525.18 1556.64 1535.77 1565.44 1542.97C1577.23 1552.82 1597.15 1558.62 1602.08 1553.69C1603.01 1552.69 1603.01 1552.29 1602.01 1548.76C1601.48 1546.7 1599.88 1542.57 1598.61 1539.63C1594.88 1531.37 1593.88 1526.71 1593.88 1517.98C1593.88 1508.79 1595.02 1504.13 1599.15 1495.67C1615.53 1462.36 1657.97 1448.97 1692.41 1466.16C1707 1473.48 1717.39 1482.94 1727.52 1498.33C1746.64 1527.24 1753.5 1556.42 1747.97 1585.13C1745.7 1596.86 1742.37 1605.79 1733.65 1623.24C1721.59 1647.29 1714.79 1657.15 1700.67 1670.87C1685.02 1686.06 1668.56 1696.05 1648.11 1702.78C1619.06 1712.31 1588.69 1712.11 1558.24 1702.11C1519.01 1689.26 1494.22 1662.81 1486.16 1625.44C1484.36 1617.04 1483.7 1594.86 1484.83 1583.8C1486.36 1569.55 1489.56 1548.76 1494.82 1519.58C1500.95 1485.61 1502.55 1475.15 1503.62 1462.36C1504.95 1445.5 1503.15 1428.12 1498.55 1414.46L1496.22 1407.4L1497.55 1403.67C1498.29 1401.54 1501.22 1395.47 1504.15 1390.15C1521.27 1358.57 1523.87 1350.44 1523.8 1329.46C1523.8 1319.4 1523.54 1315.93 1522.34 1310.6C1519.14 1296.08 1513.28 1282.23 1505.28 1270.5C1500.15 1262.91 1488.16 1250.78 1481.3 1246.19C1466.84 1236.53 1450.99 1232.2 1437.6 1234.26Z" fill="white"/>
<path d="M1981.06 1255.11C1977.53 1256.04 1974 1258.51 1971.54 1261.77C1968.14 1266.17 1948.42 1309.27 1942.62 1325.06C1929.23 1361.03 1919.51 1393.08 1915.91 1412.8C1909.12 1450.63 1916.84 1484.48 1939.16 1513.65C1943.69 1519.65 1956.01 1532.11 1963.54 1538.3C1986.99 1557.69 2010.17 1567.68 2048.81 1575.27C2054.67 1576.41 2059.8 1577.47 2060.27 1577.61C2061.34 1577.94 2059.74 1583.6 2050.81 1612.25C2036.09 1659.35 2032.22 1675.6 2023.76 1727.49C2019.77 1752.01 2019.5 1757.14 2021.77 1764.47C2023.5 1770.2 2024.5 1771.53 2028.16 1773.19C2032.22 1775.06 2033.89 1774.79 2036.62 1771.93C2041.35 1767.07 2041.35 1767.07 2055.81 1717.84L2066.47 1681.53V1605.79C2066.47 1534.24 2066.4 1530.04 2065.33 1529.71C2064.67 1529.51 2058.47 1528.31 2051.48 1526.98C2029.76 1522.85 2021.17 1520.32 2010.24 1514.85C1980.93 1500.13 1962.54 1480.01 1956.61 1456.03C1953.15 1441.97 1953.15 1429.05 1956.55 1408.73C1961.41 1379.89 1968.4 1358.84 1989.19 1310.74C1999.98 1285.82 2002.51 1278.43 2002.51 1272.3C2002.51 1267.24 2001.18 1263.77 1997.92 1260.04C1994.19 1255.78 1986.66 1253.58 1981.06 1255.11Z" fill="white"/>
<path d="M599.555 1259.51C570.443 1262.37 540.865 1274.1 513.885 1293.42C503.027 1301.21 494.699 1314.27 492.901 1326.19C491.502 1335.92 495.232 1346.31 503.027 1354.24C510.488 1361.9 518.215 1364.5 531.605 1363.9C542.131 1363.43 548.126 1361.77 551.657 1358.17C554.855 1354.97 555.787 1351.44 555.521 1343.51L555.254 1337.18L571.576 1331.92C580.569 1329.06 592.56 1325.46 598.223 1323.99C607.815 1321.46 609.148 1321.26 617.208 1321.26C623.87 1321.26 627.068 1321.6 631.065 1322.66C647.319 1327.06 664.706 1339.78 670.502 1351.57C676.764 1364.3 673.5 1376.49 658.311 1397.07C648.252 1410.66 638.792 1420.46 602.486 1455.03C570.843 1485.21 561.983 1495 550.125 1512.99C533.87 1537.64 526.875 1561.15 529.54 1581.6C530.606 1589.33 534.27 1600.52 538.001 1607.05C549.858 1627.77 572.708 1645.42 599.022 1654.15C624.47 1662.61 657.245 1663.48 691.487 1656.55C713.87 1652.08 733.056 1645.42 772.56 1628.3C779.022 1625.57 778.489 1625.17 781.153 1634.36C784.617 1646.62 792.745 1660.14 801.205 1667.87C806.201 1672.4 813.796 1677.53 819.658 1680.2C828.984 1684.53 846.638 1689.46 862.027 1692.12C884.876 1696.05 910.524 1695.72 934.506 1691.12C950.827 1688.06 958.288 1681 956.023 1670.87C954.891 1666.01 952.892 1663.14 949.095 1661.28C944.565 1659.08 939.303 1658.88 928.311 1660.48C903.263 1664.21 879.414 1662.41 857.83 1655.22C836.845 1648.22 827.519 1639.63 823.389 1623.57C822.656 1620.77 821.79 1613.91 821.39 1608.38C820.324 1592.66 818.259 1586.6 812.064 1581.07C807.8 1577.21 803.403 1575.67 796.742 1575.74C790.08 1575.81 784.484 1577.74 761.568 1587.87C724.395 1604.32 692.552 1614.78 670.835 1617.64C655.447 1619.64 637.527 1618.18 624.869 1613.91C608.681 1608.45 591.494 1596.46 587.231 1587.67C582.767 1578.27 584.966 1570.14 596.424 1553.82C608.348 1536.77 629.466 1511.66 659.177 1479.01C696.283 1438.24 704.477 1427.38 717.334 1402.34C725.928 1385.42 729.458 1372.96 729.458 1359.5C729.458 1338.72 720.199 1315.33 704.743 1297.08C688.222 1277.63 663.707 1265.1 632.863 1260.51C624.47 1259.24 607.349 1258.71 599.555 1259.51Z" fill="white"/>
<path d="M2053.01 1264.44C2049.14 1265.84 2047.41 1267.24 2044.15 1271.37C2038.35 1278.69 2035.29 1286.16 2025.43 1317.13C2016.5 1344.91 2015.64 1350.17 2018.43 1359.3C2021.77 1370.23 2030.23 1373.96 2038.49 1368.09C2041.15 1366.23 2047.21 1358.64 2049.14 1354.77C2050.01 1353.11 2054.21 1342.38 2058.6 1330.86L2066.47 1309.94V1287.69V1265.5L2064.67 1264.77C2061.6 1263.57 2055.67 1263.37 2053.01 1264.44Z" fill="white"/>
<path d="M0.0666172 1370.89C0.0666172 1405.47 0.333086 1433.11 0.666172 1432.38C3.8638 1424.65 22.9163 1374.42 24.2487 1370.29C30.0444 1351.71 30.3108 1335.32 24.9814 1324.66C22.5166 1319.8 20.0518 1316.87 15.7883 1313.67C11.9911 1310.87 4.92967 1308.14 1.59881 1308.14H0L0.0666172 1370.89Z" fill="white"/>
<path d="M353.737 1318.8C323.493 1319.86 278.26 1321.06 253.146 1321.4C173.072 1322.6 133.035 1323.99 124.241 1325.79C110.851 1328.59 103.923 1331.92 100.592 1337.25C92.265 1350.31 99.7928 1365.56 115.781 1368.1C118.979 1368.63 130.503 1368.16 167.076 1366.1C300.91 1358.5 295.447 1358.64 371.391 1362.1C414.825 1364.1 420.221 1363.9 428.282 1359.83C432.679 1357.57 437.942 1351.64 439.407 1347.31C441.805 1340.32 440.54 1332.12 436.21 1326.53C431.213 1320 425.284 1317.33 415.358 1317.07C411.694 1317 383.982 1317.73 353.737 1318.8Z" fill="white"/>
<path d="M1844.3 1331.72C1836.64 1333.45 1799.2 1349.04 1795.4 1352.04C1791.87 1354.84 1789.34 1360.03 1789.34 1364.43C1789.34 1369.76 1791.54 1373.29 1799.73 1381.02C1810.32 1390.94 1816.38 1399.61 1821.65 1412.2C1824.18 1418.26 1826.58 1420.92 1830.71 1422.06C1833.31 1422.85 1838.3 1421.32 1841.1 1418.92C1843.63 1416.79 1844.56 1414.46 1859.02 1374.49C1866.28 1354.64 1868.48 1347.78 1867.88 1347.38C1867.41 1347.11 1866.61 1345.05 1866.15 1342.78C1864.68 1335.45 1860.22 1331.66 1852.42 1331.12C1850.16 1330.92 1846.5 1331.26 1844.3 1331.72Z" fill="white"/>
<path d="M2061.8 1398.27C2056.41 1402.47 2049.08 1409.8 2045.01 1415.13C2033.22 1430.45 2030.69 1445.37 2037.62 1459.03C2039.95 1463.49 2047.15 1470.62 2052.48 1473.48C2056.74 1475.82 2065.6 1479.08 2066.2 1478.55C2066.33 1478.35 2066.4 1459.49 2066.33 1436.51L2066.13 1394.88L2061.8 1398.27Z" fill="white"/>
<path d="M270.133 1405.47C219.637 1407 154.819 1412.46 142.761 1416.13C130.303 1419.99 126.639 1434.85 136.166 1443.17C139.164 1445.9 144.226 1447.7 151.221 1448.64C156.151 1449.3 226.365 1451.97 265.803 1453.03C273.331 1453.23 293.249 1453.83 310.103 1454.43C350.673 1455.76 380.384 1455.96 387.712 1454.83C399.703 1453.03 407.431 1451.23 410.562 1449.5C414.959 1447.17 418.822 1442.64 420.022 1438.51C422.22 1431.12 420.621 1425.59 414.759 1419.66C412.494 1417.39 409.163 1414.79 407.364 1413.86C403.434 1411.93 391.709 1409.2 379.385 1407.33C363.93 1405.07 312.901 1404.14 270.133 1405.47Z" fill="white"/>
<path d="M1854.62 1489.07C1849.63 1490.4 1846.03 1492.67 1842.43 1496.67C1838.63 1500.86 1837.1 1505.33 1837.17 1511.72C1837.17 1515.79 1837.9 1518.52 1841.9 1530.37C1849.69 1553.62 1851.76 1567.35 1851.03 1592.06C1850.63 1606.65 1850.69 1607.32 1851.96 1608.58C1853.56 1610.18 1854.22 1610.18 1859.55 1608.85C1869.61 1606.32 1881 1598.86 1888.26 1590.13C1899.52 1576.47 1905.39 1553.69 1902.32 1535.3C1899.86 1519.98 1894.19 1508.79 1883.93 1498.66C1874.87 1489.67 1864.75 1486.34 1854.62 1489.07Z" fill="white"/>
<path d="M165.077 1522.98C152.753 1526.38 146.491 1539.97 152.154 1551.09C155.884 1558.35 162.013 1561.95 173.538 1563.55C198.053 1566.95 223.767 1566.35 248.216 1561.95C259.208 1559.95 264.537 1556.75 267.535 1550.29C272.997 1538.63 264.67 1527.64 248.615 1525.31C246.151 1524.98 236.158 1524.65 226.365 1524.65C216.639 1524.65 208.512 1524.38 208.379 1524.05C208.112 1523.31 185.596 1521.98 175.536 1522.05C171.473 1522.05 166.809 1522.51 165.077 1522.98Z" fill="white"/>
<path d="M42.7683 1556.82C40.8364 1558.75 39.3042 1560.62 39.3042 1560.95C39.3042 1561.35 40.5033 1563.02 42.0355 1564.75C45.9659 1569.35 47.6313 1569.15 54.6928 1563.28L58.49 1560.15L53.7601 1556.69C51.1621 1554.82 48.4308 1553.29 47.698 1553.29C46.8319 1553.29 44.8334 1554.76 42.7683 1556.82Z" fill="white"/>
<path d="M9.99258 1578.27C9.45964 1578.41 6.99481 1578.74 4.52997 1578.94L0 1579.4V1600.92C0 1618.98 0.199852 1623.04 1.06588 1625.7C3.26424 1632.23 7.26127 1633.83 11.1251 1629.7C13.8564 1626.84 27.2464 1606.52 29.7113 1601.59C32.1095 1596.53 32.709 1589.93 30.977 1586.53C28.0458 1580.8 23.9156 1578.47 16.3212 1578.21C13.3901 1578.07 10.5255 1578.14 9.99258 1578.27Z" fill="white"/>
<path d="M233.826 1669.94C196.121 1671.8 156.484 1677.93 116.247 1688.19C82.2056 1696.85 58.4232 1705.51 31.9762 1718.9C20.5181 1724.7 2.73127 1734.82 0.799375 1736.75C0.19982 1737.35 -3.16297e-05 1745.28 0.133203 1773.33L0.333054 1809.17L6.06213 1804.57C31.3767 1784.25 61.2212 1768.33 96.2618 1756.47C149.023 1738.62 203.382 1730.23 258.475 1731.36C299.111 1732.22 333.086 1736.82 373.389 1746.81C440.739 1763.53 495.965 1788.38 541.265 1822.42C548.259 1827.69 567.645 1843.68 571.442 1847.41C572.242 1848.07 570.976 1849.74 563.981 1857C553.655 1867.86 549.725 1873.05 545.928 1880.71C536.735 1899.1 538.733 1916.29 551.524 1929.08C561.783 1939.27 572.908 1943.2 597.09 1945.07C611.812 1946.2 640.791 1945.47 652.515 1943.73C665.306 1941.8 664.173 1941.4 663.041 1947.13C662.508 1949.86 662.175 1954.19 662.375 1956.99C662.974 1968.52 670.702 1976.64 681.76 1977.44C687.689 1977.91 688.289 1977.24 688.822 1969.91C689.355 1962.32 691.087 1958.86 698.415 1950.73C712.138 1935.54 715.202 1928.55 712.204 1918.95C709.873 1911.62 705.676 1907.43 698.481 1905.3C694.884 1904.3 690.487 1904.16 656.179 1904.1C618.807 1904.03 617.675 1903.96 609.547 1902.43C604.951 1901.57 601.02 1900.5 600.687 1900.1C599.222 1897.84 600.887 1896.64 630.865 1878.65C656.246 1863.46 662.774 1859.8 671.168 1856.33C690.82 1848.14 697.149 1844.27 700.147 1838.35C705.409 1828.09 700.546 1814.43 690.021 1809.77C685.691 1807.84 676.964 1806.97 670.768 1807.77C665.239 1808.5 659.51 1809.97 629.333 1818.49C617.741 1821.82 607.948 1824.36 607.615 1824.16C607.282 1823.96 605.217 1820.83 603.019 1817.23C591.76 1798.91 573.374 1780.06 550.791 1763.6C533.937 1751.34 507.49 1735.49 483.974 1723.5C405.565 1683.66 321.428 1665.61 233.826 1669.94Z" fill="white"/>
<path d="M1885.6 1680.93C1881.94 1682.79 1879.94 1685.46 1875.47 1694.19C1866.75 1711.37 1858.49 1722.7 1844.3 1736.89C1826.38 1754.81 1808.19 1767.67 1783.74 1779.72C1770.68 1786.18 1760.76 1790.12 1721.39 1804.44C1624.99 1839.54 1585.49 1855.33 1552.51 1871.72C1522.2 1886.84 1497.22 1902.03 1473.24 1920.15C1432.14 1951.2 1408.82 1976.98 1393.23 2008.62C1380.77 2034 1374.98 2061.11 1374.98 2093.96C1374.98 2132.39 1381.77 2163.1 1397.36 2195.35C1402.62 2206.27 1406.09 2210.14 1411.95 2211.8C1416.81 2213.27 1420.34 2212.73 1425.01 2209.94C1431.74 2205.87 1435.67 2199.14 1443.59 2177.89C1450.19 2160.04 1450.46 2159.51 1460.18 2138.32C1485.83 2082.76 1494.89 2064.58 1497.29 2063.78C1497.75 2063.65 1498.22 2065.44 1498.49 2068.71C1500.69 2092.76 1510.28 2113.67 1525.4 2127.53C1537.86 2138.92 1552.18 2145.92 1571.43 2149.98C1579.09 2151.65 1581.16 2151.78 1595.15 2151.85C1611.4 2151.85 1615.53 2151.45 1632.12 2148.12C1648.31 2144.85 1648.31 2144.85 1648.91 2142.19C1649.24 2140.92 1649.51 2137.12 1649.57 2133.86C1649.71 2128.2 1649.51 2127.4 1646.84 2120.54C1641.78 2107.61 1636.85 2093.02 1634.85 2085.03C1631.12 2070.31 1628.32 2053.32 1627.99 2042.99C1627.79 2038.86 1627.99 2038 1628.99 2037.33C1630.06 2036.73 1630.52 2036.93 1631.99 2038.93C1635.45 2043.66 1649.97 2057.38 1657.44 2063.05C1678.49 2078.9 1698.67 2087.49 1721.79 2090.56C1746.44 2093.76 1781.88 2088.56 1819.78 2076.17C1835.3 2071.11 1856.02 2063.11 1860.48 2060.51C1864.08 2058.38 1871.74 2049.46 1872.68 2046.26C1873.28 2044.26 1873.21 2042.99 1872.28 2039.86C1870.01 2031.8 1864.95 2024.41 1852.29 2010.55C1833.64 1990.1 1827.58 1976.91 1826.84 1954.99C1826.44 1943.2 1827.51 1934.07 1830.64 1921.95C1834.3 1907.69 1838.43 1898.23 1848.03 1881.98C1871.21 1842.68 1885.4 1812.5 1896.66 1778.46C1901.85 1762.67 1903.45 1756.81 1905.25 1746.28C1906.98 1736.02 1909.25 1715.84 1909.25 1710.51C1909.25 1701.71 1905.65 1693.25 1898.79 1685.86C1893.26 1679.86 1890 1678.6 1885.6 1680.93ZM1827.58 1832.82C1821.11 1844.54 1813.12 1858.2 1809.86 1863.26C1799.53 1879.12 1794.6 1889.77 1790.74 1904.43C1787.81 1915.49 1786.67 1924.62 1786.67 1937.01C1786.67 1961.19 1792.6 1982.97 1804.93 2003.89C1810.26 2012.95 1816.32 2020.74 1826.98 2032.34C1832.11 2037.86 1836.37 2042.66 1836.5 2042.93C1836.9 2043.93 1803.33 2047.32 1782.94 2048.32C1759.16 2049.52 1734.25 2047.72 1720.85 2043.86C1705.6 2039.46 1690.61 2029.54 1678.29 2015.81C1669.76 2006.29 1651.44 1982.51 1643.45 1970.65C1636.12 1959.79 1629.59 1955.06 1621.13 1954.46C1618.6 1954.33 1615.2 1954.53 1613.67 1954.93C1607.01 1956.72 1592.75 1969.12 1586.49 1978.64C1577.83 1991.7 1572.37 2006.75 1569.77 2024.27C1568.9 2030.34 1568.77 2034.93 1569.03 2046.26C1569.43 2064.24 1570.97 2073.5 1577.89 2101.02C1579.16 2106.01 1580.16 2110.48 1580.16 2110.81C1580.16 2112.08 1578.56 2111.61 1572.83 2108.81C1562.57 2103.88 1555.18 2097.49 1550.78 2089.89C1547.52 2084.3 1544.99 2075.04 1541.45 2056.05C1535.19 2022.21 1534.66 2020.08 1530.86 2015.48C1526.2 2009.89 1519.4 2008.75 1508.08 2011.82C1490.29 2016.61 1475.5 2025.54 1460.58 2040.6C1445.99 2055.25 1435.27 2071.31 1421.14 2099.69C1412.82 2116.47 1412.95 2116.61 1412.95 2092.29C1412.95 2065.91 1414.82 2052.39 1421.01 2034.4C1431.14 2005.02 1448.39 1982.84 1484.5 1952.79C1508.28 1933.01 1527.07 1920.95 1561.17 1903.76C1599.41 1884.44 1627.59 1872.52 1665.1 1859.73C1675.02 1856.4 1699.14 1847.94 1718.79 1841.01C1740.51 1833.35 1755.43 1828.42 1756.96 1828.42H1759.43L1752.56 1833.55C1726.65 1853.07 1710.46 1880.18 1704.8 1913.62C1701.8 1931.28 1703.87 1942.4 1711.33 1949.2C1716.59 1953.99 1720.52 1954.79 1722.85 1951.66C1723.52 1950.73 1725.85 1943.53 1728.12 1935.67C1740.37 1891.84 1747.3 1877.05 1761.56 1863.99C1767.69 1858.33 1782.48 1847.47 1798.66 1836.75C1814.92 1825.96 1838.77 1810.97 1839.1 1811.37C1839.23 1811.5 1834.04 1821.16 1827.58 1832.82Z" fill="white"/>
<path d="M730.324 1683.13C725.195 1684.99 722.197 1687.32 710.073 1698.92C693.885 1714.5 682.293 1726.76 681.028 1729.63C678.763 1735.16 680.162 1741.22 684.825 1745.41C689.022 1749.21 694.617 1749.94 700.413 1747.41C701.546 1746.95 708.74 1742.35 716.468 1737.22L730.458 1727.83L733.922 1733.36C742.848 1747.55 745.446 1751.14 749.777 1755.54C754.373 1760.14 761.368 1764.4 766.298 1765.53L768.096 1765.93V1752.88C768.096 1745.68 767.763 1736.89 767.363 1733.29C765.698 1717.64 760.369 1698.38 755.772 1691.39C750.443 1683.33 739.651 1679.8 730.324 1683.13Z" fill="white"/>
<path d="M1230.42 1683.19C1208.57 1685.13 1162.8 1694.25 1133.82 1702.58C1050.29 1726.5 978.74 1765.4 917.318 1820.29C883.743 1850.2 862.226 1877.32 845.705 1910.23C821.456 1958.72 811.664 2013.48 819.458 2057.25C824.721 2086.49 836.379 2112.34 855.431 2136.86C861.826 2145.18 875.949 2159.57 884.543 2166.64C909.524 2187.22 941.9 2201.54 974.676 2206.47C1013.98 2212.4 1055.48 2204.81 1088.46 2185.69C1105.05 2176.03 1116.04 2166.64 1118.17 2160.24C1120.03 2154.58 1119.37 2151.18 1111.64 2128.2C1102.05 2099.42 1097.78 2082.23 1094.72 2059.05C1093.32 2048.32 1093.12 2017.95 1094.39 2007.62C1097.52 1982.37 1104.58 1960.85 1114.57 1945.87C1119.44 1938.6 1130.09 1928.21 1138.22 1922.82C1155.41 1911.42 1171.86 1906.36 1191.78 1906.36C1208.77 1906.36 1218.16 1909.03 1223.49 1915.29C1224.76 1916.82 1230.55 1925.08 1236.41 1933.68C1247.87 1950.4 1249.21 1952.13 1251.6 1953.06C1254.87 1954.33 1259.66 1949.46 1263.86 1940.6C1265.86 1936.34 1266.06 1935.47 1266.06 1929.34C1266.06 1923.28 1265.86 1922.28 1263.99 1918.35C1262.86 1915.95 1259.93 1911.76 1257.47 1909.03C1255 1906.3 1250.8 1901.03 1248.21 1897.37C1229.02 1870.32 1210.23 1857.13 1183.79 1852C1175.13 1850.34 1157.61 1850.34 1147.48 1852C1109.64 1858.13 1074.34 1876.85 1053.48 1901.9C1038.5 1919.82 1029.5 1939.54 1023.64 1967.38C1020.77 1981.11 1019.71 1992.56 1019.71 2008.62C1019.78 2030 1022.77 2051.85 1029.24 2077.5C1037.1 2108.61 1049.15 2132.33 1066.14 2149.98C1067.94 2151.91 1069.34 2153.58 1069.14 2153.78C1067.81 2155.11 1055.48 2162.24 1049.55 2165.1C1025.97 2176.63 1002.59 2179.43 975.275 2174.1C930.575 2165.24 890.272 2130.53 872.419 2085.56C862.093 2059.38 860.494 2031.8 867.422 1996.5C877.548 1944.73 906.193 1896.9 953.358 1853.2C1005.79 1804.57 1068.27 1769.8 1146.35 1745.75C1228.75 1720.43 1284.11 1720.3 1337.74 1745.22C1346.47 1749.28 1349.93 1749.61 1354.59 1746.88C1357.86 1744.95 1359.19 1743.22 1360.32 1739.35C1360.99 1737.15 1360.92 1735.69 1360.06 1731.09C1357.19 1717.1 1349 1706.91 1334.81 1699.72C1322.15 1693.39 1296.97 1686.93 1273.72 1684.13C1263.53 1682.93 1239.88 1682.4 1230.42 1683.19Z" fill="white"/>
<path d="M1382.31 1783.52C1353.59 1795.31 1351.86 1795.91 1343.93 1796.44C1339.01 1796.78 1335.47 1797.44 1333.61 1798.24C1330.48 1799.64 1326.68 1803.44 1325.55 1806.37C1324.22 1809.83 1321.62 1819.89 1317.29 1838.48L1312.96 1857.4L1314.36 1876.38C1317.02 1912.42 1317.89 1917.29 1322.22 1921.95C1326.01 1926.01 1332.21 1926.81 1338.07 1924.08C1339.94 1923.22 1349.06 1916.42 1358.39 1908.89C1367.72 1901.43 1377.78 1893.44 1380.84 1891.11C1393.83 1881.25 1408.15 1873.92 1420.61 1870.72C1429.01 1868.52 1432.27 1866.13 1435.07 1860.06C1437.07 1855.67 1437.13 1849.27 1435.2 1845.07C1434.4 1843.41 1431.8 1839.74 1429.34 1836.88C1418.08 1823.62 1411.62 1810.77 1408.29 1795.04C1406.62 1787.25 1405.89 1785.59 1403.16 1782.99C1398.49 1778.52 1394.1 1778.66 1382.31 1783.52ZM1387.84 1835.01C1390.63 1840.41 1392.97 1845.21 1392.97 1845.54C1392.97 1845.94 1390.03 1847.47 1386.5 1849.07C1377.98 1852.8 1366.32 1858.66 1358.06 1863.33C1354.46 1865.39 1351.26 1867.06 1350.93 1867.06C1350.6 1867.06 1350.33 1859.6 1350.33 1850.4V1833.82L1352.86 1833.15C1354.19 1832.75 1361.19 1830.82 1368.32 1828.82C1375.44 1826.82 1381.64 1825.16 1381.97 1825.16C1382.37 1825.09 1384.97 1829.55 1387.84 1835.01Z" fill="white"/>
<path d="M2030.76 1841.74C2020.63 1845.74 2015.1 1856.8 2014.97 1873.05C2014.9 1879.05 2015.24 1881.85 2016.37 1885.91C2020.3 1899.7 2029.23 1910.63 2041.48 1916.42C2048.21 1919.62 2053.27 1920.95 2060.67 1921.48L2066.47 1921.88V1898.1C2066.47 1874.59 2066.47 1874.39 2065.07 1874.39C2061.34 1874.39 2059.94 1872.19 2057.47 1862.46C2054.21 1849.6 2051.74 1845.07 2046.28 1842.28C2042.22 1840.21 2035.22 1840.01 2030.76 1841.74Z" fill="white"/>
<path d="M293.782 1867.32C278.46 1869.32 263.804 1872.79 248.482 1878.12C228.763 1884.91 216.706 1892.11 204.581 1904.23C200.385 1908.36 196.254 1912.09 195.388 1912.42C192.524 1913.49 189.259 1913.09 179.333 1910.36C154.952 1903.63 135.566 1900.83 113.915 1900.77C86.6023 1900.7 67.8829 1904.7 46.8319 1914.96C31.0436 1922.75 20.8512 1930.21 7.79421 1943.53L0 1951.53V2020.54V2089.56L3.19763 2091.16C20.6513 2100.02 43.1013 2101.62 63.8193 2095.42C69.3485 2093.82 73.2123 2090.63 75.344 2086.03C77.4758 2081.23 77.1427 2079.77 72.6127 2075.5C69.4817 2072.51 66.1509 2070.44 56.8245 2065.64C35.9067 2055.05 29.9777 2048.32 30.8438 2036.33C31.2435 2030.2 33.4418 2023.81 38.5047 2014.08C46.5654 1998.43 60.4884 1985.37 78.2086 1976.91C92.2648 1970.18 105.388 1968.25 128.238 1969.52C145.159 1970.45 155.618 1971.71 168.875 1974.38C212.709 1983.17 249.548 2002.56 281.391 2033.6C303.241 2054.85 316.365 2076.37 322.894 2101.28C324.626 2107.95 324.759 2109.48 324.692 2119.87C324.692 2130.26 324.492 2131.73 322.827 2137.19C319.363 2148.58 314.633 2156.51 304.174 2168.23C292.849 2181.09 269.533 2197.35 245.484 2209.14C219.171 2222.06 194.589 2229.06 166.343 2231.52C155.418 2232.52 131.969 2231.99 120.577 2230.45C78.5417 2225.06 41.6357 2209.6 7.66098 2183.16L0.333086 2177.43L0.133234 2203.61C0.0666172 2217.93 0.199852 2229.92 0.46632 2230.19C0.799406 2230.45 5.66246 2233.12 11.3249 2236.05C44.1006 2252.9 79.2745 2263.43 117.579 2267.89C130.037 2269.29 162.812 2269.49 175.203 2268.23C201.117 2265.56 224.633 2260.5 247.35 2252.84C261.206 2248.11 268.001 2245.24 282.457 2238.05C305.64 2226.39 325.292 2212.67 340.414 2197.48C359.4 2178.49 369.059 2160.11 373.856 2134.19C375.788 2123.73 375.921 2100.62 374.122 2090.56C371.058 2073.64 367.061 2061.45 359.067 2045.26C341.48 2009.42 312.235 1976.04 278.127 1953.06C267.268 1945.67 259.541 1941.2 246.683 1934.74C238.023 1930.34 236.491 1929.34 236.491 1928.08C236.491 1926.61 237.29 1926.35 249.348 1923.42C282.457 1915.42 289.119 1914.29 306.439 1913.89C315.033 1913.62 322.76 1913.82 327.09 1914.29C379.052 1920.22 420.954 1950 443.67 1997.29C449.666 2009.75 462.723 2046.66 468.852 2068.57C474.181 2087.36 478.378 2107.75 480.71 2126.2C481.442 2131.99 481.909 2144.19 482.308 2166.17C482.708 2190.15 483.108 2199.48 483.974 2204.81C487.571 2227.86 495.099 2250.11 504.292 2265.1C516.683 2285.35 536.268 2300.94 558.585 2308.4C585.565 2317.32 615.809 2319.39 642.256 2314.06C666.638 2309.13 690.82 2297.87 713.337 2280.95C743.048 2258.63 758.57 2232.85 762.167 2199.81C764.765 2175.5 758.17 2142.05 746.046 2118.54C732.19 2091.49 706.742 2068.18 684.492 2062.18C676.298 2059.91 663.907 2060.11 655.979 2062.51C645.787 2065.58 638.259 2070.11 630.532 2077.9C619.873 2088.49 612.812 2101.95 609.414 2117.87C608.282 2123.27 608.282 2139.52 609.481 2144.19C611.013 2150.58 615.143 2158.24 619.34 2162.64C623.537 2166.97 630.132 2171.63 633.996 2172.9C637.66 2174.1 638.526 2172.7 641.457 2160.77C645.787 2143.65 650.717 2134.19 659.444 2126.07C666.905 2119.14 673.433 2116.74 678.23 2119.2C680.495 2120.4 692.952 2130.4 699.947 2136.59C711.605 2146.98 720.065 2162.24 723.196 2178.56C724.728 2186.42 724.728 2200.48 723.196 2208.34C719.532 2227.32 709.673 2243.78 695.217 2255.04C677.23 2269.09 656.779 2277.35 633.263 2280.15C618.274 2281.88 592.293 2279.95 578.237 2276.09C552.723 2268.96 538.2 2253.9 531.605 2227.92C528.074 2213.93 527.009 2200.14 525.61 2152.51C524.81 2124.93 524.211 2117.27 521.546 2102.02C515.417 2066.24 503.293 2026.27 487.505 1989.63C477.645 1966.92 471.183 1955.26 459.925 1940.34C430.947 1901.83 390.71 1876.65 345.077 1868.59C336.683 1867.12 333.153 1866.86 318.097 1866.66C306.372 1866.52 298.512 1866.72 293.782 1867.32Z" fill="white"/>
<path d="M1930.57 1895.04C1924.97 1897.64 1921.84 1901.63 1919.64 1909.03C1918.71 1912.09 1918.51 1916.22 1918.58 1935.27C1918.58 1969.32 1920.37 1997.89 1923.31 2012.62C1932.7 2059.18 1965.74 2087.16 2016.7 2091.62C2030.56 2092.82 2047.15 2090.63 2060.8 2085.76L2066.13 2083.9L2066.33 2055.65C2066.47 2033.13 2066.33 2027.54 2065.67 2027.81C2046.75 2036.2 2041.68 2037.86 2031.02 2039.06C2005.71 2041.86 1984.59 2028.6 1974.53 2003.42C1971.2 1995.1 1969.4 1985.84 1965.87 1958.66C1961.01 1921.22 1960.08 1915.29 1958.21 1909.69C1956.21 1903.63 1952.62 1898.77 1948.29 1896.04C1945.42 1894.3 1944.29 1894.04 1939.29 1893.84C1934.63 1893.7 1933.03 1893.9 1930.57 1895.04Z" fill="white"/>
<path d="M930.642 1949.6C922.581 1952.06 914.121 1961.59 908.392 1974.51C895.468 2003.76 899.199 2040.13 917.918 2067.38C925.446 2078.37 934.572 2087.09 945.231 2093.56C952.626 2097.95 959.154 2100.55 969.813 2103.35L978.806 2105.68L985.068 2103.82C988.466 2102.75 991.264 2101.68 991.264 2101.35C991.264 2099.95 984.735 2091.09 977.207 2082.23C956.09 2057.45 953.692 2054.12 949.628 2044.13C946.097 2035.4 944.965 2028.87 945.031 2016.95C945.098 2007.75 945.431 2004.69 948.162 1988.97C951.493 1970.18 951.893 1964.25 950.294 1959.59C947.696 1952.26 938.037 1947.33 930.642 1949.6Z" fill="white"/>
<path d="M756.305 1955.73C743.981 1957.92 739.384 1973.25 748.577 1981.71C755.705 1988.37 766.297 1986.97 771.693 1978.71C778.688 1967.92 769.095 1953.53 756.305 1955.73Z" fill="white"/>
<path d="M1172.6 1975.38C1168.93 1976.78 1162.54 1982.64 1160.34 1986.77C1157.34 1992.23 1156.27 1997.09 1156.61 2003.89C1156.94 2011.22 1158.81 2015.48 1163.94 2020.74C1168.47 2025.34 1172.73 2027.21 1178.79 2027.21C1184.59 2027.21 1188.52 2025.61 1192.71 2021.41C1200.44 2013.68 1203.64 1998.69 1199.78 1988.7C1197.91 1983.84 1193.38 1978.84 1188.78 1976.44C1184.59 1974.31 1176.93 1973.78 1172.6 1975.38Z" fill="white"/>
<path d="M1245.41 2104.21C1238.21 2106.55 1232.15 2112.41 1227.89 2121.14C1222.09 2132.99 1166.6 2265.83 1163.94 2274.16C1161.14 2282.75 1160.21 2288.68 1160.67 2294.67C1161.54 2306.73 1167.47 2315.46 1177.59 2319.46C1180.92 2320.79 1182.59 2320.99 1189.78 2320.99C1198.04 2320.92 1198.18 2320.92 1213.43 2316.46C1232.29 2310.93 1231.35 2311.13 1279.18 2302.13C1328.21 2292.87 1329.68 2292.61 1335.48 2289.74C1345.93 2284.61 1351.66 2273.62 1351.66 2258.83C1351.66 2245.44 1341.8 2201.01 1334.54 2181.56C1324.68 2155.04 1305.76 2132.06 1277.98 2112.68C1265.39 2103.88 1254.93 2101.15 1245.41 2104.21ZM1283.25 2202.94C1287.04 2208.07 1293.11 2218.46 1301.63 2234.58C1317.75 2265.1 1319.09 2268.96 1314.62 2271.56C1311.29 2273.49 1284.71 2277.55 1256.07 2280.42C1245.61 2281.48 1212.23 2284.08 1212.03 2283.88C1211.97 2283.81 1223.29 2260.63 1237.21 2232.39L1262.46 2181.09L1271.52 2190.22C1276.52 2195.28 1281.78 2201.01 1283.25 2202.94Z" fill="white"/>
<path d="M1781.68 2131.73C1777.08 2133.26 1775.01 2134.66 1771.48 2138.46C1768.22 2142.05 1766.62 2145.45 1765.69 2150.91C1764.69 2156.44 1769.35 2167.43 1776.75 2177.16C1809.06 2219.53 1828.18 2264.36 1838.97 2322.92C1840.97 2333.98 1843.96 2355.69 1843.96 2359.43C1843.96 2362.89 1842.43 2365.75 1839.9 2367.09C1835.5 2369.35 1750.37 2401.73 1744.04 2403.59C1739.84 2404.79 1723.32 2407.52 1722.92 2407.06C1722.72 2406.92 1724.25 2400.66 1726.32 2393.2C1732.38 2370.82 1734.58 2361.56 1740.11 2334.98C1750.37 2285.48 1755.63 2255.37 1755.1 2250.24C1754.1 2241.71 1749.97 2235.45 1742.84 2231.99C1738.78 2229.99 1737.91 2229.79 1732.38 2229.86C1726.58 2229.86 1726.05 2229.99 1715.73 2234.25C1681.42 2248.37 1646.44 2254.04 1606.21 2252.11C1590.09 2251.31 1585.36 2251.77 1579.09 2254.97C1575.36 2256.83 1570.23 2262.03 1568.3 2265.83C1563.97 2274.36 1563.77 2282.95 1567.7 2290.94C1570.57 2296.74 1581.63 2308.93 1598.01 2324.38C1603.88 2329.85 1608.47 2334.64 1608.34 2334.91C1607.54 2336.24 1591.42 2343.57 1583.96 2345.97C1562.17 2353.03 1540.92 2355.1 1524.87 2351.76C1514.21 2349.5 1505.81 2343.77 1501.88 2336.04C1492.56 2317.59 1500.02 2274.69 1520.14 2231.79C1524.8 2221.93 1526.47 2216.2 1526 2212.07C1524.27 2197.68 1508.95 2191.15 1498.49 2200.34C1495.16 2203.27 1493.42 2206.41 1486.23 2222.79C1472.64 2253.7 1466.51 2272.49 1463.85 2291.34C1462.38 2301.54 1462.38 2318.99 1463.78 2327.12C1467.71 2349.23 1478.24 2365.02 1494.96 2374.01C1500.69 2377.01 1511.74 2380.48 1519.6 2381.61C1546.78 2385.61 1581.49 2379.08 1625.93 2361.69C1640.05 2356.09 1644.18 2353.9 1648.91 2349.23C1655.9 2342.44 1658.57 2333.98 1656.5 2325.18C1654.57 2316.79 1651.24 2311.66 1639.58 2298.87C1636.45 2295.47 1634.05 2292.54 1634.25 2292.41C1634.39 2292.21 1650.11 2288.81 1669.16 2284.88L1703.73 2277.62L1704.13 2279.82C1704.33 2281.02 1703.53 2289.88 1702.27 2299.54C1690.21 2394.73 1686.08 2428.84 1686.08 2432.77C1686.08 2435.3 1686.48 2438.3 1687.01 2439.5C1688.95 2444.16 1698.27 2449.89 1708.6 2452.82C1713.13 2454.09 1715.39 2454.22 1728.05 2454.22C1755.23 2454.29 1768.02 2451.49 1801.99 2438.3C1810.26 2435.1 1820.45 2431.31 1824.64 2429.84C1839.17 2424.84 1852.09 2417.72 1863.95 2408.19C1871.54 2402.06 1878.8 2394.13 1880.94 2389.67C1883.87 2383.41 1883.8 2379.88 1880.67 2363.02C1879.2 2354.96 1877.34 2342.97 1876.61 2336.38C1869.28 2272.36 1854.16 2222.73 1828.38 2178.23C1825.98 2174.03 1823.98 2170.3 1823.98 2170.03C1823.98 2169.77 1844.83 2169.5 1870.28 2169.5C1906.98 2169.5 1916.51 2169.7 1916.24 2170.3C1908.65 2193.62 1905.18 2208.87 1902.65 2229.26C1899.26 2256.5 1899.12 2276.55 1902.12 2285.68C1904.32 2292.41 1906.45 2294.74 1910.38 2294.74C1912.85 2294.74 1913.65 2294.34 1915.84 2292.14C1917.24 2290.74 1919.51 2287.35 1920.84 2284.68C1923.37 2279.42 1924.77 2274.49 1942.29 2207.8C1954.48 2161.37 1954.61 2160.64 1950.68 2152.71C1948.22 2147.65 1945.02 2144.72 1939.89 2142.79C1935.03 2140.92 1923.7 2141.12 1909.78 2143.12C1871.54 2148.78 1836.5 2145.92 1800.66 2134.13C1791.47 2131.13 1785.74 2130.4 1781.68 2131.73Z" fill="white"/>
<path d="M408.03 2194.08C404.633 2195.61 402.434 2198.08 393.174 2210.8C389.111 2216.46 381.516 2226.19 376.32 2232.45C371.191 2238.65 366.061 2245.24 364.995 2247.11C358.467 2258.5 363.263 2270.09 376.054 2273.76C378.852 2274.62 400.702 2276.35 435.476 2278.55C443.67 2279.02 447.001 2278.09 450.598 2274.09C453.663 2270.69 453.929 2268.69 453.396 2255.9C452.597 2235.18 450.598 2224.19 446.268 2215.6C441.472 2206.01 433.678 2199.34 422.353 2195.01C415.891 2192.55 411.96 2192.28 408.03 2194.08Z" fill="white"/>
<path d="M1049.62 2271.89C1045.22 2273.42 1039.83 2278.49 1037.83 2282.88C1035.63 2287.81 1035.63 2295.01 1037.83 2299.87C1041.16 2307.33 1049.62 2312.53 1057.61 2311.86C1069.01 2310.99 1076.8 2302.67 1076.8 2291.41C1076.87 2283.15 1072.87 2276.69 1065.54 2272.96C1061.21 2270.69 1054.35 2270.23 1049.62 2271.89Z" fill="white"/>
<path d="M2059.6 2299.54C2045.41 2328.05 2036.42 2354.36 2032.82 2377.81C2028.89 2403.19 2030.43 2432.3 2036.42 2446.76C2041.42 2458.75 2052.01 2469.54 2063.07 2473.94L2066.47 2475.27V2381.01C2066.47 2329.18 2066.33 2286.75 2066.2 2286.75C2066.07 2286.75 2063.07 2292.54 2059.6 2299.54Z" fill="white"/>
<path d="M988.266 2310.59C986.467 2311.26 974.143 2317.79 960.953 2325.18C913.988 2351.36 896.135 2360.16 848.57 2380.28C825.987 2389.8 817.926 2392.93 803.803 2397.6C789.747 2402.26 787.282 2403.53 782.619 2408.46C773.626 2418.12 773.159 2430.44 781.353 2443.03C785.55 2449.63 829.184 2501.59 844.24 2518.11C847.837 2522.04 859.295 2533.03 869.688 2542.56C880.08 2552.08 889.606 2561.34 890.938 2563.07C898 2572.73 905.794 2577.26 915.32 2577.26C924.114 2577.33 931.841 2573.87 940.968 2565.81C965.217 2544.49 1017.71 2502.45 1031.77 2493.06C1046.29 2483.33 1061.48 2477.6 1080.2 2474.94C1084.33 2474.34 1089.06 2473.14 1090.99 2472.27C1098.05 2469.08 1102.91 2462.82 1104.85 2454.29L1105.91 2449.76L1103.25 2441.36C1099.18 2428.71 1094.52 2421.58 1059.61 2374.68C1035.7 2342.5 1025.97 2330.05 1019.98 2323.79C1013.45 2317.06 1007.92 2312.59 1003.79 2310.73C1000.12 2309.06 992.863 2309 988.266 2310.59ZM979.939 2363.82C987.533 2378.08 996.527 2389.67 1018.91 2413.98C1032.17 2428.31 1041.89 2439.37 1041.89 2439.97C1041.89 2440.23 1038.83 2441.7 1035.1 2443.3C1020.31 2449.49 1002.39 2459.35 984.669 2470.88C980.072 2473.87 964.684 2484.47 950.494 2494.46C936.305 2504.38 924.047 2512.84 923.314 2513.24C922.515 2513.71 921.183 2513.84 920.383 2513.64C917.918 2513.04 836.246 2426.64 836.978 2425.44C838.444 2422.98 850.302 2416.45 890.805 2395.47C934.706 2372.68 937.304 2371.42 939.436 2372.02C943.1 2373.08 949.628 2372.82 953.425 2371.35C957.289 2369.88 960.82 2367.82 969.946 2361.49C973.277 2359.23 976.142 2357.36 976.275 2357.36C976.408 2357.36 978.074 2360.29 979.939 2363.82Z" fill="white"/>
<path d="M63.2197 2341.57C56.558 2343.44 49.6964 2349.37 45.8326 2356.49C42.9015 2361.82 20.5181 2413.19 6.92819 2445.49L0 2462.08V2489.53C0 2515.11 0.0666172 2517.11 1.19911 2518.11C3.26424 2519.97 7.52774 2521.44 11.0585 2521.44C15.0555 2521.44 20.5847 2518.77 23.1162 2515.58C24.9148 2513.38 40.8363 2483.67 54.293 2457.62C69.1486 2428.77 85.9362 2392.07 90.666 2378.01C94.9961 2364.95 92.1316 2352.5 83.2049 2346.04C77.4758 2341.91 68.9488 2339.97 63.2197 2341.57Z" fill="white"/>
<path d="M524.943 2365.02C518.615 2366.82 513.285 2370.95 509.288 2377.28C506.823 2381.21 476.912 2452.69 473.648 2462.55C470.717 2471.34 469.918 2476.47 470.85 2481.33C471.849 2486.66 473.781 2490.59 477.179 2493.99C484.973 2501.79 496.365 2502.19 506.157 2494.99C514.018 2489.2 515.217 2487.06 537.401 2440.63C553.122 2407.72 554.655 2404.26 555.854 2398.46C557.652 2389.74 555.454 2380.01 550.191 2373.42C544.529 2366.15 533.737 2362.62 524.943 2365.02Z" fill="white"/>
<path d="M696.816 2372.75C691.286 2374.41 687.556 2379.48 687.489 2385.34C687.489 2391.4 692.752 2398.86 699.347 2402.13C703.81 2404.33 710.339 2404.26 713.603 2402.06C720.998 2397 721.331 2387.14 714.336 2379.34C709.34 2373.81 702.278 2371.15 696.816 2372.75Z" fill="white"/>
<path d="M446.535 2389.6C442.405 2390.94 439.54 2392.93 435.277 2397.53C431.946 2401.13 430.147 2404.33 421.021 2422.98C409.496 2446.49 400.836 2465.01 399.836 2468.61C399.437 2469.88 398.904 2472.27 398.704 2473.94C398.437 2475.61 397.771 2477.87 397.238 2479C396.372 2481 396.439 2481.27 398.771 2485.33C403.833 2494.13 407.497 2497.26 412.76 2497.26C416.957 2497.26 420.554 2494.92 427.483 2487.73C433.745 2481.13 434.277 2480.4 441.139 2467.28C450.865 2448.69 465.454 2418.58 467.12 2413.65C470.184 2404.59 465.521 2391.6 458.46 2389.47C455.129 2388.47 450.066 2388.54 446.535 2389.6Z" fill="white"/>
<path d="M122.376 2392.67C118.179 2394.27 115.048 2396.73 112.65 2400.2C110.784 2402.93 101.658 2426.51 88.2676 2463.28C84.1373 2474.61 81.4727 2483.13 80.2736 2488.66L78.5415 2496.99L80.9397 2501.32C82.2721 2503.65 84.0041 2506.32 84.8035 2507.18C88.1344 2510.78 93.5304 2511.51 100.725 2509.25C108.519 2506.85 112.583 2502.79 121.243 2488.8C132.701 2470.21 142.96 2445.43 148.889 2421.71C150.421 2415.45 150.621 2414.05 150.022 2410.79C148.29 2400.99 143.96 2394.6 137.564 2392.47C133.234 2391 126.439 2391.07 122.376 2392.67Z" fill="white"/>
<path d="M1372.98 2393.07C1355.73 2397.86 1318.75 2424.64 1293.31 2450.76C1282.38 2461.95 1222.56 2527.83 1206.37 2546.55C1190.32 2565.14 1166.67 2595.32 1158.87 2607.37C1149.08 2622.36 1141.22 2643.81 1138.42 2663.07C1137.49 2669.93 1137.95 2683.32 1139.42 2688.78C1143.48 2703.9 1154.54 2715.56 1169.86 2720.76C1179.59 2724.09 1184.85 2724.69 1201.77 2724.62C1210.37 2724.62 1220.23 2724.22 1223.62 2723.75C1227.02 2723.36 1229.95 2723.09 1230.09 2723.22C1230.22 2723.36 1229.75 2726.75 1229.09 2730.75C1225.82 2749.6 1228.82 2768.06 1237.21 2781.05C1240.75 2786.44 1248.07 2793.9 1253.67 2797.63C1273.39 2810.96 1302.1 2814.15 1335.54 2806.63C1355.26 2802.23 1394.9 2786.84 1410.89 2777.38C1435.67 2762.73 1452.65 2740.08 1460.92 2710.56C1468.18 2684.72 1468.38 2664.33 1461.51 2643.15C1458.98 2635.42 1453.92 2625.09 1449.79 2619.23C1438.47 2603.31 1421.34 2593.65 1402.56 2592.72C1393.23 2592.25 1387.17 2593.52 1379.11 2597.52C1366.65 2603.78 1360.72 2612.5 1363.92 2620.03C1364.92 2622.43 1369.05 2626.43 1370.85 2626.63C1371.45 2626.69 1376.64 2626.83 1382.31 2626.83C1394.1 2626.83 1394.7 2627.03 1401.29 2632.42C1409.95 2639.55 1416.55 2649.01 1419.61 2658.8C1421.48 2664.67 1422.21 2679.59 1420.94 2687.91C1418.15 2707.43 1406.42 2727.82 1392.9 2736.81C1384.77 2742.21 1358.66 2752 1340.8 2756.4C1322.15 2760.93 1307.63 2762.06 1296.57 2759.79C1282.71 2756.93 1280.78 2753.07 1284.71 2736.55C1286.78 2728.02 1287.84 2725.75 1307.9 2688.45C1330.08 2647.01 1333.61 2640.15 1335.74 2633.82C1337.41 2628.76 1337.74 2626.83 1337.47 2623.96C1336.74 2616.9 1331.61 2610.17 1324.42 2606.71C1319.02 2604.11 1312.23 2604.11 1306.76 2606.71C1299.24 2610.24 1297.04 2612.5 1282.11 2632.49C1257.13 2665.86 1251.07 2674.52 1247.61 2681.45C1243.34 2689.91 1241.54 2692.31 1238.15 2693.84C1234.15 2695.64 1229.69 2695.38 1214.76 2692.44C1199.78 2689.51 1198.51 2689.18 1194.78 2687.25C1185.85 2682.72 1185.65 2675.06 1193.78 2655.67C1201.57 2637.29 1211.1 2620.9 1225.02 2602.18C1240.95 2580.86 1320.15 2488.73 1337.27 2471.61C1351.33 2457.55 1364.32 2447.56 1381.97 2437.23C1395.76 2429.17 1400.76 2422.25 1400.16 2411.99C1399.36 2398.13 1386.64 2389.27 1372.98 2393.07Z" fill="white"/>
<path d="M312.768 2421.98C231.895 2424.58 221.236 2425.11 204.848 2427.04C188.86 2428.91 184.396 2430.57 179.267 2436.37C171.473 2445.23 173.804 2458.88 184.197 2464.95C189.992 2468.34 192.99 2468.61 234.293 2468.61C255.211 2468.61 272.464 2468.88 272.598 2469.14C272.997 2470.21 360.466 2465.08 367.727 2463.55C381.517 2460.68 388.778 2453.29 388.645 2442.3C388.578 2436.7 387.312 2433.64 383.582 2429.51C377.52 2422.98 372.657 2421.91 348.408 2421.65C338.349 2421.51 322.294 2421.71 312.768 2421.98Z" fill="white"/>
<path d="M1899.59 2433.57C1893.19 2434.84 1888.66 2436.57 1876.27 2442.63C1863.82 2448.76 1853.22 2455.55 1840.3 2465.95C1809.86 2490.39 1784.74 2516.18 1762.82 2545.55C1732.45 2586.19 1710.6 2629.69 1694.67 2681.12C1685.21 2711.96 1681.48 2736.01 1682.28 2762.66C1683.02 2789.11 1688.28 2810.82 1699.4 2834.14L1703.33 2842.33H1734.71H1766.02L1762.56 2836.87C1743.97 2807.23 1738.24 2772.25 1745.1 2730.08C1748.63 2708.5 1757.43 2678.06 1766.42 2656.14C1784.94 2611.37 1816.12 2564.34 1849.23 2531.16C1865.35 2515.11 1882.93 2499.19 1882.4 2501.25C1881.07 2506.12 1874.47 2540.16 1873.34 2548.22C1870.28 2569.67 1869.81 2593.65 1872.28 2609.51C1873.81 2619.5 1877.34 2633.16 1880.6 2641.35C1882.07 2645.08 1883 2648.28 1882.73 2648.54C1882.47 2648.74 1878.67 2650.21 1874.27 2651.74C1844.43 2662.33 1823.91 2678.59 1813.32 2700.11C1807.32 2712.1 1804.93 2724.09 1805.53 2738.08C1806.06 2751.27 1809.59 2759.99 1817.65 2768.06C1825.58 2775.98 1835.04 2779.98 1845.56 2779.85C1848.83 2779.78 1851.56 2779.65 1851.76 2779.45C1851.89 2779.31 1850.09 2775.32 1847.69 2770.59C1842.56 2760.59 1840.97 2754.27 1841.63 2746.87C1842.56 2736.68 1846.36 2729.35 1854.62 2721.56C1864.75 2711.96 1880.27 2703.17 1900.59 2695.44L1910.25 2691.78L1914.44 2693.24C1916.71 2694.04 1918.57 2694.84 1918.57 2695.04C1918.57 2695.24 1915.98 2698.31 1912.78 2701.77C1898.72 2717.29 1893.93 2726.75 1893.93 2739.14C1893.93 2745.74 1895.79 2751.87 1898.92 2755.53C1903.45 2760.79 1912.05 2763.46 1916.91 2761.06C1918.64 2760.19 1918.97 2759.59 1919.24 2756.46C1919.64 2752.53 1918.71 2753.73 1930.97 2742.87C1939.49 2735.41 1953.62 2725.75 1956.08 2725.75C1957.68 2725.75 1959.34 2727.02 1964.67 2732.22C1976.93 2744.21 1985.19 2755.86 1993.79 2773.05C2002.65 2790.91 2006.84 2807.09 2009.24 2833.47L2010.11 2842.33H2029.36H2048.61L2048.21 2836.54C2048.01 2833.27 2047.68 2826.61 2047.48 2821.68C2046.68 2803.36 2044.68 2790.57 2039.82 2773.65C2031.69 2745.27 2018.63 2722.02 1999.91 2702.84C1990.65 2693.38 1984.39 2688.25 1972.87 2680.59C1949.02 2664.8 1938.09 2654.81 1929.83 2641.08C1920.64 2625.76 1916.98 2608.71 1916.98 2581.19C1916.98 2553.68 1920.04 2532.9 1931.96 2479.14C1938.03 2451.62 1938.36 2447.89 1935.5 2442.03C1933.5 2438.1 1930.5 2435.77 1925.44 2434.24C1920.91 2432.77 1905.52 2432.44 1899.59 2433.57Z" fill="white"/>
<path d="M657.178 2440.03C638.659 2442.76 627.001 2450.22 620.539 2463.61C614.01 2477.14 614.943 2491.79 623.27 2504.25C630.665 2515.51 641.856 2524.17 653.648 2527.77C664.573 2531.16 676.364 2531.03 688.755 2527.5C696.616 2525.17 701.679 2522.3 706.875 2517.24C714.336 2509.91 718.133 2500.12 718.133 2488.2C718.133 2480.54 717.267 2476.27 714.469 2470.28C708.673 2457.69 699.347 2451.02 676.364 2443.3C664.24 2439.17 663.773 2439.1 657.178 2440.03ZM668.637 2476.61C673.766 2479 679.095 2483.87 681.227 2488.06C687.622 2500.65 675.032 2508.25 659.776 2500.99C648.984 2495.86 643.122 2486.53 646.52 2479.94C648.252 2476.54 652.848 2474.74 659.843 2474.67C663.707 2474.61 665.239 2474.94 668.637 2476.61Z" fill="white"/>
<path d="M1453.52 2474.14C1445.86 2476.81 1441.2 2480.87 1438.13 2487.73C1437 2490.2 1436.67 2492.19 1436.67 2496.59C1436.67 2503.32 1438.27 2507.25 1442.66 2511.71C1446.06 2515.11 1449.39 2516.84 1457.25 2519.37C1467.78 2522.77 1477.3 2528.77 1483.9 2536.03C1495.16 2548.49 1508.28 2570 1514.41 2586.19C1521.94 2606.04 1524.4 2628.89 1521.27 2650.34C1519.74 2660.54 1519.94 2661.33 1523.94 2661.67C1526.2 2661.8 1527.27 2661.33 1531.53 2658.4C1557.38 2640.35 1565.9 2611.17 1557.71 2568.87C1552.38 2541.09 1539.92 2518.04 1519.74 2498.52C1506.01 2485.27 1494.42 2478.14 1480.5 2474.21C1478.04 2473.54 1473.11 2473.01 1467.24 2472.81C1458.78 2472.61 1457.52 2472.74 1453.52 2474.14Z" fill="white"/>
<path d="M2009.84 2528.63C2004.78 2530.7 1999.25 2536.29 1997.18 2541.56C1993.85 2550.22 1995.65 2559.08 2002.18 2565.54C2006.84 2570.2 2011.64 2572.2 2018.17 2572.2C2022.83 2572.2 2023.96 2571.93 2027.09 2570.2C2034.02 2566.34 2037.42 2560.01 2037.42 2550.55C2037.42 2546.29 2037.02 2543.95 2035.89 2541.16C2031.69 2530.37 2019.9 2524.7 2009.84 2528.63Z" fill="white"/>
<path d="M1652.91 2540.62C1646.44 2543.89 1643.91 2548.29 1627.12 2586.86C1613.27 2618.5 1613.27 2618.5 1613.6 2623.9C1613.93 2629.76 1616.13 2633.29 1621 2635.55C1627.32 2638.48 1633.59 2637.22 1638.12 2632.09C1642.11 2627.56 1668.96 2571.27 1672.49 2560.01L1674.69 2553.08L1672.29 2549.68C1665.3 2539.63 1659.97 2537.16 1652.91 2540.62Z" fill="white"/>
<path d="M203.182 2583.53C194.589 2585.66 186.528 2590.59 179.267 2598.18C171.806 2606.04 167.009 2614.44 163.878 2625.16C161.68 2632.82 161.347 2645.55 163.145 2653.81C163.945 2657.27 164.544 2660.47 164.544 2660.93C164.544 2662.07 159.881 2664.13 153.353 2665.93C147.157 2667.6 136.698 2667.73 130.57 2666.13C117.579 2662.8 106.388 2653.54 100.259 2640.88C98.9931 2638.29 96.8614 2632.42 95.5957 2627.83C92.4647 2616.97 91.1323 2614.3 86.6023 2609.71C83.4047 2606.51 82.0724 2605.71 78.0087 2604.51C68.4158 2601.58 58.823 2603.84 52.4943 2610.57C48.8304 2614.44 47.4981 2617.9 46.632 2626.03C45.5662 2635.49 46.4988 2639.88 51.8948 2650.81C59.6224 2666.46 67.6164 2677.46 79.4743 2688.91C90.1331 2699.17 101.258 2705.83 113.582 2709.43C121.643 2711.76 126.439 2712.43 135.1 2712.43C147.624 2712.43 157.75 2710.36 176.202 2703.97C190.259 2699.17 193.723 2698.24 196.654 2698.64C197.986 2698.84 202.716 2700.77 207.113 2703.04C221.502 2710.36 232.361 2713.1 247.15 2713.1C256.943 2713.1 264.27 2711.9 284.722 2707.03C292.383 2705.24 298.645 2703.77 298.711 2703.9C298.778 2704.04 300.91 2707.83 303.375 2712.43C323.027 2748.6 349.341 2772.05 376.254 2777.12C380.517 2777.91 392.842 2777.65 394.307 2776.78C395.44 2776.05 391.642 2769.39 380.051 2751.4C362.264 2723.89 358.067 2715.43 351.739 2693.98C347.675 2680.25 348.208 2675.39 354.803 2665.73C359.799 2658.47 361.265 2654.21 360.865 2647.81C360.399 2638.88 355.136 2631.29 346.543 2627.29C343.212 2625.69 341.946 2625.49 336.084 2625.56C328.489 2625.56 324.292 2626.96 317.364 2631.69C309.77 2636.82 304.174 2643.88 301.043 2652.01C299.178 2656.94 294.714 2661.93 290.251 2664.07C284.322 2666.93 271.732 2669.79 263.138 2670.26C253.878 2670.73 247.549 2669.79 241.887 2667.13L237.823 2665.2L240.555 2660.34C245.618 2651.08 249.615 2642.81 251.213 2638.15C253.478 2631.49 253.545 2618.97 251.28 2612.17C247.416 2600.58 239.622 2591.39 229.696 2586.66C226.698 2585.19 222.568 2583.66 220.636 2583.26C215.973 2582.26 207.712 2582.39 203.182 2583.53Z" fill="white"/>
<path d="M1033.17 2594.38C1027.44 2596.32 1023.37 2598.91 1006.19 2611.64C997.393 2618.1 984.136 2627.89 976.608 2633.42C939.036 2661.07 919.85 2677.26 893.67 2703.44C860.428 2736.61 844.173 2757.8 833.381 2781.71C825.454 2799.43 821.59 2814.15 818.326 2839.47L817.993 2842.33H840.643H863.359L863.692 2840.8C865.89 2830.68 868.022 2822.68 870.154 2816.35C875.417 2800.83 886.475 2781.05 897.534 2767.39C907.726 2754.73 980.206 2680.79 987.2 2675.92L991.264 2673.06V2675.19C991.264 2676.32 990.664 2680.72 989.932 2684.98C987.8 2697.64 987.267 2704.04 987.267 2718.43C987.267 2733.95 988.399 2745.41 991.331 2759.86C994.928 2777.51 1001.92 2798.97 1008.58 2812.69C1011.72 2819.08 1013.51 2821.75 1024.57 2835.87L1029.57 2842.27H1059.75L1089.99 2842.33L1081.33 2833.87C1058.55 2811.42 1044.69 2783.24 1037.9 2745.74C1030.43 2704.3 1033.97 2671.13 1049.02 2640.88C1050.95 2636.82 1053.62 2631.89 1054.82 2629.89C1061.41 2618.97 1061.41 2607.91 1054.82 2600.58C1049.09 2594.25 1040.83 2591.85 1033.17 2594.38Z" fill="white"/>
<path d="M668.304 2607.84C660.709 2609.84 654.58 2613.44 648.851 2619.17C638.326 2629.76 634.262 2641.48 635.062 2658.8C636.127 2679.99 644.854 2694.58 661.642 2703.17C670.435 2707.63 675.631 2708.77 687.156 2708.77H697.215L702.412 2706.17C708.74 2703.04 714.736 2697.37 718.666 2690.71C723.196 2683.05 726.793 2670.59 726.793 2662.33C726.793 2660.67 727.127 2659.14 727.526 2659C728.326 2658.74 725.128 2645.35 722.397 2637.69C717.201 2623.03 704.477 2611.24 689.821 2607.51C684.358 2606.11 674.366 2606.24 668.304 2607.84Z" fill="white"/>
<path d="M427.683 2609.37C419.156 2611.84 412.227 2618.1 407.831 2627.16C394.041 2655.81 402.501 2694.38 427.816 2718.76C440.54 2731.08 456.328 2738.61 471.383 2739.54C481.909 2740.21 493.5 2736.68 498.896 2731.08C500.362 2729.55 501.428 2728.02 501.295 2727.69C501.095 2727.42 497.431 2724.95 493.101 2722.29C484.241 2716.83 480.643 2713.5 475.847 2706.43C465.255 2690.78 461.99 2678.32 462.723 2656.8C463.589 2632.56 460.058 2620.23 450.599 2613.9C443.804 2609.44 434.144 2607.51 427.683 2609.37Z" fill="white"/>
<path d="M511.953 2629.03C498.43 2633.69 491.368 2645.35 491.435 2662.8C491.568 2675.66 495.299 2688.18 502.427 2699.57C509.955 2711.56 518.681 2717.83 529.34 2718.89C532.138 2719.22 533.337 2718.96 535.469 2717.76C536.935 2716.96 538.467 2715.63 538.866 2714.83C539.666 2713.3 542.797 2696.31 546.328 2674.72L548.526 2661.33L547.393 2654.47C545.661 2644.01 542.464 2638.29 535.536 2633.02C529.14 2628.29 519.081 2626.56 511.953 2629.03Z" fill="white"/>
<path d="M1570.83 2719.82C1565.5 2720.76 1560.64 2723.22 1556.51 2727.15C1551.65 2731.75 1549.18 2735.95 1543.99 2748.4C1539.06 2760.19 1527.2 2785.44 1521.8 2795.5C1519.8 2799.23 1517.87 2803.83 1517.54 2805.83C1515.54 2816.15 1522.6 2825.15 1532.73 2825.15C1540.66 2825.15 1544.12 2822.55 1556.71 2807.23C1561.31 2801.56 1565.24 2797.23 1565.5 2797.5C1565.77 2797.77 1569.23 2808.03 1573.16 2820.22L1580.43 2842.33H1604.01H1627.52L1627.19 2837.14C1626.99 2834.34 1626.66 2828.41 1626.46 2824.01C1625.39 2801.76 1621.4 2778.51 1615.73 2761.06C1612.6 2751.6 1605.01 2736.35 1600.94 2731.42C1593.42 2722.22 1582.16 2717.89 1570.83 2719.82Z" fill="white"/>
<path d="M939.969 2760.93C926.445 2764.52 919.317 2775.12 919.317 2791.44C919.317 2795.63 920.183 2799.37 924.98 2816.15C928.111 2827.08 931.109 2837.4 931.708 2839.14L932.774 2842.33H963.018C979.673 2842.33 993.262 2842.13 993.262 2841.93C993.262 2840.73 983.403 2806.16 980.872 2798.37C975.676 2782.51 967.681 2768.52 961.419 2764.19C955.491 2760.06 947.496 2758.86 939.969 2760.93Z" fill="white"/>
</svg>
