<svg width="74" height="74" viewBox="0 0 74 74" fill="none" xmlns="http://www.w3.org/2000/svg">
<g clip-path="url(#clip0_564_494)">
<path d="M18.5 0.5H55.5C65.4411 0.5 73.5 8.55887 73.5 18.5V55.5C73.5 65.4411 65.4411 73.5 55.5 73.5H18.5C8.55887 73.5 0.5 65.4411 0.5 55.5V18.5C0.5 8.55887 8.55887 0.5 18.5 0.5Z" fill="#222222" fill-opacity="0.5" stroke="#626262"/>
<path d="M26.0552 13.0612C25.025 13.176 23.9835 13.5089 23.6858 13.8302C23.3654 14.1861 23.2738 18.9611 23.1936 37.269L23.125 54.4405L23.9148 54.739C25.1166 55.2095 25.563 55.2899 27.795 55.3587C31.103 55.4735 36.5285 55.1062 39.9395 54.5438C45.2963 53.6485 49.4627 51.0314 50.4013 47.9668C50.676 47.0599 50.6989 45.6366 50.4586 44.6725C49.8519 42.3309 47.4024 40.4829 42.5606 38.7152C38.669 37.2919 36.8146 36.4081 35.7845 35.5128C34.4109 34.2961 34.4911 32.7924 36.0478 30.7378C36.3568 30.3245 37.5129 29.062 38.6232 27.9142C40.6834 25.7906 41.0154 25.3545 41.0154 24.8035C41.0154 24.3674 40.2027 22.9211 39.9509 22.9211C39.1154 22.9211 34.4224 27.1221 33.2549 28.9243C32.4651 30.1295 32.2018 30.8985 32.053 32.3562C31.9156 33.7911 32.0645 35.6276 32.3735 36.2818C32.6368 36.8327 33.5868 37.9003 34.4109 38.566C35.3037 39.2892 36.9749 40.0926 39.2413 40.8846C42.0113 41.8488 43.1444 42.2964 44.2776 42.8704C46.6355 44.0527 47.4482 44.9709 47.4711 46.509C47.4826 47.1174 47.4368 47.2666 47.1048 47.7143C46.5783 48.4488 45.5023 49.2293 44.0487 49.941C42.492 50.7101 41.4389 51.043 39.1725 51.4906C34.9261 52.3171 31.332 52.5696 28.4474 52.2481C27.4287 52.1334 26.5474 52.0071 26.4788 51.9612C26.3757 51.9038 26.3757 47.5995 26.4673 35.0766C26.5359 25.8365 26.5932 17.8247 26.5932 17.2622V16.2636H30.359C32.4308 16.2636 34.6513 16.3211 35.3037 16.3784C41.2558 16.9753 44.8499 18.6855 46.3036 21.6125C46.7614 22.5538 46.7957 22.6801 46.7957 23.5409C46.7843 25.4233 45.8114 27.0074 42.2974 30.8526C41.6335 31.5872 41.004 32.4022 40.8208 32.7579L40.5232 33.3778L40.7522 33.6877C41.0841 34.1239 42.1257 34.6519 43.877 35.2602C48.5584 36.8672 51.6489 39.1973 53.1828 42.2735C54.5334 44.9709 54.396 48.2767 52.8393 50.8363C51.1568 53.6256 47.2994 55.9786 42.3546 57.2412C38.1882 58.2972 35.1778 58.6186 28.3216 58.6989L23.1365 58.7678L23.1823 59.8238C23.2624 61.6374 23.6287 61.8899 26.3986 62.0736C30.3476 62.3261 36.6773 61.7407 41.4618 60.6732C48.4212 59.1237 52.0152 57.1149 54.9683 53.1205C58.8601 47.852 57.9215 41.1601 52.599 36.431C51.4658 35.4209 49.9892 34.4568 48.1807 33.5615C47.2879 33.1253 46.4524 32.6662 46.315 32.5284C45.8343 32.0922 45.9945 31.6905 47.4368 29.7507C50.1495 26.0891 50.6073 22.5882 48.776 19.512C47.1964 16.849 43.1216 14.3353 39.3557 13.6925C35.8647 13.0957 28.8825 12.7628 26.0552 13.0612Z" fill="white"/>
</g>
<defs>
<clipPath id="clip0_564_494">
<rect width="74" height="74" fill="white"/>
</clipPath>
</defs>
</svg>
