<svg width="786" height="524" viewBox="0 0 786 524" fill="none" xmlns="http://www.w3.org/2000/svg">
<path d="M0.139637 510C0.399513 509.36 1.0592 509.78 5.79698 513.64C9.63518 516.78 15.1326 521.54 16.1921 522.64L17.0717 523.56H19.7504H22.4092L18.551 520.22C10.5348 513.26 6.51664 510.02 2.23865 507.08L-0.000297546 505.52L0.0196915 507.9C0.0196915 509.2 0.0796642 510.14 0.139637 510Z" fill="#313131"/>
<path d="M0.139969 477.8C0.199951 477.14 0.319885 476.76 0.479813 476.76C0.619751 476.76 1.47934 477.28 2.4189 477.92C7.49652 481.38 11.4547 484.84 24.3886 497.06C33.3444 505.54 37.0826 508.7 42.0003 512.02C51.6158 518.48 59.2722 520.66 71.0667 520.28C75.7045 520.12 78.0034 519.96 86.4594 519.16C101.253 517.74 106.65 517.98 114.246 520.36C118.285 521.62 119.544 522.14 119.544 522.56C119.544 523.02 118.784 523.18 115.346 523.36C113.367 523.46 114.806 523.5 120.643 523.52L128.64 523.54L124.741 521.64C112.787 515.78 109.349 514.98 97.7741 515.22C94.7356 515.28 90.9573 515.48 89.3581 515.64C87.7588 515.8 85.1601 516.08 83.5608 516.24C75.6045 517.06 64.9096 517.18 60.3717 516.46C55.354 515.68 49.117 512.94 43.0798 508.9C39.2216 506.32 34.184 501.92 22.6894 491.06C13.6136 482.5 8.25616 477.94 3.59835 474.86C1.89915 473.74 0.379852 472.76 0.239929 472.68C0.0600128 472.56 3.05176e-05 473.22 0.0400238 475.7C0.0600128 477.44 0.0999908 478.38 0.139969 477.8Z" fill="#313131"/>
<path d="M2.1387 444.18C9.43529 449.1 13.4334 452.56 26.7871 465.58C30.8053 469.48 35.3031 473.86 36.7824 475.28C54.674 492.34 62.2905 497.56 75.4643 501.7C80.5219 503.28 80.302 503.26 93.9556 503.26C107.269 503.26 107.929 503.22 119.244 501.92C126.041 501.14 126.76 501.08 132.338 501.08C137.175 501.06 138.635 501.12 140.394 501.42C150.329 503.1 158.905 506.9 166.621 513.06C168.461 514.52 176.917 522.86 176.917 523.2C176.917 523.28 173.738 523.38 169.86 523.42C166.002 523.44 167.941 523.48 174.218 523.48C180.475 523.48 184.553 523.44 183.254 523.38C181.275 523.28 180.855 523.2 180.695 522.9C179.875 521.46 171.039 512.4 168.221 510.14C162.983 505.92 153.108 500.94 146.871 499.36C142.633 498.3 140.014 498.06 132.138 498.06C124.881 498.06 122.982 498.18 114.746 499.06C103.291 500.32 96.0746 500.68 89.7776 500.36C80.2021 499.86 73.885 498.34 66.6684 494.78C58.0924 490.54 52.535 486 33.504 467.58C17.9113 452.5 13.6333 448.62 7.83603 444.3C6.05687 442.98 2.03876 440.4 0.63942 439.68L-0.000289917 439.34V441.04V442.72L2.1387 444.18Z" fill="#313131"/>
<path d="M0.139389 410C0.179367 409.76 0.299316 409.56 0.359283 409.56C0.959 409.56 6.95619 413.62 10.9943 416.74C16.8715 421.3 20.8297 425.02 39.5809 443.66C58.0722 462.04 62.1503 465.88 68.4473 470.92C78.2227 478.76 90.1171 484.34 101.292 486.34C106.429 487.26 109.068 487.46 117.044 487.46C126.02 487.46 130.718 487.14 145.031 485.56C165.022 483.36 173.998 483.74 184.653 487.18C200.285 492.24 212.78 502.32 223.654 518.62C225.434 521.28 226.493 523 226.493 523.22C226.493 523.28 226.193 523.38 225.833 523.42C225.494 523.46 226.393 523.52 227.832 523.52C229.292 523.54 230.491 523.52 230.491 523.46C230.491 523.22 227.273 518 225.673 515.66C218.477 505.08 209.641 496.54 199.726 490.58C188.871 484.06 177.156 480.7 165.222 480.68C160.904 480.66 160.124 480.74 148.03 482.06C134.656 483.54 127.899 483.96 117.644 483.96C110.608 483.96 106.629 483.76 102.851 483.26C91.2166 481.68 76.6834 474.44 66.2483 465.02C62.1303 461.3 55.6533 455.02 43.599 443.1C18.6307 418.36 13.6131 413.96 2.6582 407.1C1.29884 406.24 0.159378 405.56 0.099411 405.56C0.039444 405.56 0.0194397 406.66 0.0194397 408C0.039444 409.36 0.099411 410.26 0.139389 410Z" fill="#313131"/>
<path d="M0.139954 376.7C0.179932 376.18 0.319855 375.76 0.439789 375.76C1.3194 375.76 13.6936 384.34 17.112 387.3C20.4904 390.26 28.7865 398.4 38.5819 408.38C53.255 423.34 70.1271 440.28 74.2651 444.22C80.3623 450 83.9006 452.88 89.5779 456.62C98.3938 462.46 106.83 466.2 116.925 468.78C122.942 470.32 126.141 470.66 137.795 470.96C150.249 471.28 157.866 470.86 172.259 469.06C181.615 467.88 184.433 467.6 190.031 467.34C201.885 466.8 212.88 468.36 222.595 471.98C233.65 476.08 241.707 481.4 251.102 490.76C259.938 499.56 266.295 508.42 272.092 519.98L273.871 523.56H275.671C276.67 523.56 277.47 523.5 277.47 523.44C277.47 523.14 272.892 514.32 271.453 511.86C266.555 503.48 260.838 495.98 254.181 489.18C246.484 481.32 240.507 476.94 231.391 472.46C225.334 469.48 220.057 467.5 214 465.96C208.342 464.5 207.742 464.46 195.508 464.46C183.494 464.46 183.034 464.5 170.42 465.96C158.166 467.38 149.53 467.96 140.434 467.96C130.039 467.96 124.681 467.36 116.645 465.32C106.61 462.78 97.5542 458.48 88.3985 451.92C80.6221 446.34 75.1447 441.16 55.8138 421.16C41.7404 406.62 27.607 392.46 23.1891 388.48C19.3309 385.02 15.033 381.52 11.7945 379.22C9.69547 377.74 3.21851 373.58 0.939575 372.28L0 371.72L0.039978 374.7C0.059967 376.32 0.0999756 377.24 0.139954 376.7Z" fill="#313131"/>
<path d="M0.179352 343.82C0.259308 342.92 0.379242 342.12 0.459198 342.04C0.699097 341.8 1.83856 342.42 5.47687 344.82C11.674 348.92 17.6711 353.26 21.0895 356.14C29.1857 362.98 41.4799 375.54 59.5714 395.46C74.2046 411.56 84.9196 422.42 93.0957 429.42C106.529 440.92 121.682 448.8 136.735 452.16C144.711 453.94 151.868 454.74 161.244 454.9C172.219 455.08 182.114 454.36 200.805 452.04C211.54 450.72 213.719 450.54 220.096 450.42C231.99 450.2 241.346 451 248.083 452.78C267.174 457.84 283.786 468.74 297.54 485.26C301.478 490 306.316 496.82 309.294 501.86C312.473 507.26 319.27 520.68 319.929 522.9C320.069 523.32 320.009 523.34 318.71 523.42C317.97 523.46 318.77 523.5 320.509 523.52L323.647 523.56L323.388 522.92C314.632 502 305.416 487.94 291.543 474.36C278.089 461.2 264.715 453.58 247.583 449.36C240.127 447.52 236.109 447.08 226.193 447.08C216.458 447.08 210.96 447.48 198.206 449.06C181.014 451.2 173.838 451.68 162.423 451.5C149.389 451.26 143.832 450.68 136.036 448.66C129.619 447 123.741 444.78 117.244 441.56C109.288 437.62 102.291 433.06 95.2547 427.18C88.4179 421.46 75.1641 407.96 60.471 391.76C57.8323 388.86 53.7342 384.36 51.3553 381.76C34.3833 363.26 22.5888 352.42 10.7943 344.46C8.13562 342.66 0.399231 337.96 0.119354 337.96C0.0593872 337.96 0.0194092 339.64 0.0393982 341.7C0.0593872 344.54 0.0993652 345.06 0.179352 343.82Z" fill="#313131"/>
<path d="M0.139465 309.1C0.199432 308.36 0.299408 308.16 0.579254 308.16C1.09903 308.16 6.19662 311.24 11.3942 314.7C25.6475 324.18 40.1407 338.1 66.0685 367.16C78.6826 381.32 84.18 387.2 92.5361 395.56C108.209 411.22 118.964 419.38 133.237 426.46C147.19 433.4 158.045 436.5 173.518 437.98C174.777 438.1 179.835 438.24 184.733 438.3C199.806 438.48 210.221 437.8 229.692 435.38C249.622 432.88 259.558 432.54 271.072 433.98C297.32 437.26 320.349 450.46 339.18 473.06C348.256 483.94 356.432 497.62 363.289 513.36C366.208 520.08 367.267 522.8 367.047 523.02C366.947 523.12 366.108 523.28 365.188 523.36C363.829 523.48 364.209 523.5 367.307 523.54C370.246 523.56 371.045 523.5 370.965 523.3C367.447 514.44 365.768 510.64 362.229 503.54C355.473 490 350.455 481.94 343.178 472.86C337.381 465.66 330.145 458.4 323.368 452.98C308.994 441.52 293.082 434.3 275.45 431.28C264.695 429.44 253.101 429.42 236.588 431.26C234.17 431.52 229.172 432.1 225.494 432.54C208.762 434.54 200.226 435.16 189.411 435.16C166.182 435.16 151.169 432 134.336 423.56C115.925 414.34 100.272 400.66 72.1657 369.16C57.9523 353.24 51.7152 346.52 42.1797 336.88C32.0645 326.66 28.5062 323.42 22.389 318.78C13.4132 311.98 3.51788 305.62 0.439331 304.68L-0.000457764 304.54L0.0395203 307.3C0.0595093 308.82 0.0994873 309.64 0.139465 309.1Z" fill="#313131"/>
<path d="M2.65833 275.56C9.15527 279.22 13.8131 282.3 21.0897 287.76C28.2463 293.14 32.1645 296.6 41.66 305.96C52.5549 316.72 62.91 327.78 75.1643 341.76C90.4171 359.16 98.2734 367.7 107.829 377.28C116.805 386.26 121.882 390.78 129.039 396.16C146.771 409.5 164.123 417 185.632 420.64C193.089 421.9 200.585 422.28 215.498 422.1C225.714 421.96 230.032 421.78 235.689 421.26C239.547 420.88 253.62 419.32 258.078 418.76C266.095 417.76 273.011 417.1 279.488 416.74C284.246 416.48 297.36 416.6 300.758 416.96C314.532 418.36 325.607 421.6 338.741 428.06C350.235 433.7 359.031 440.04 369.106 449.96C382.88 463.48 392.715 477.36 401.931 496.26C406.449 505.52 411.346 517.26 412.506 521.56C412.766 522.58 413.026 523.44 413.066 523.5C413.126 523.54 413.925 523.56 414.865 523.52L416.584 523.46L415.325 519.66C413.505 514.2 410.987 507.98 407.308 499.86C400.991 485.92 392.135 471.5 383.04 460.36C376.803 452.72 369.386 445.22 362.429 439.54C345.897 426.02 326.106 417.2 305.656 414.28C300.479 413.52 297.38 413.32 290.023 413.22C279.868 413.08 275.75 413.34 262.077 415.06C240.067 417.82 224.254 419 209.201 419C199.666 419 195.108 418.68 187.112 417.44C164.103 413.9 145.012 405.26 126.12 389.84C120.083 384.92 111.907 377.08 103.051 367.76C94.4752 358.72 94.7951 359.08 73.0653 334.58C60.5312 320.44 52.8348 312.16 45.4583 304.96C29.5257 289.38 17.1915 279.82 3.31802 272.28C1.57886 271.34 0.119537 270.56 0.0795593 270.56C0.0395813 270.56 -0.000427246 271.34 -0.000427246 272.3V274.06L2.65833 275.56Z" fill="#313131"/>
<path d="M2.55832 241.66C12.0539 246.9 21.4894 253.32 29.9854 260.34C44.8585 272.62 55.8333 283.94 84.4599 316.56C107.769 343.12 118.844 354.92 129.539 364.58C154.207 386.86 177.256 398.5 206.423 403.44C213.799 404.7 218.797 404.96 235.089 404.96C256.859 404.96 260.717 404.66 291.163 400.78C318.57 397.26 338.561 398.48 358.271 404.88C369.946 408.66 379.681 413.4 389.617 420.1C405.249 430.68 419.183 445.02 431.157 462.9C438.534 473.92 445.87 487.64 450.808 499.64C453.886 507.12 459.584 522.32 459.584 523.06C459.584 523.22 459.304 523.36 458.944 523.42C458.584 523.46 462.143 523.48 466.88 523.48C475.396 523.46 475.416 523.46 469.279 523.36L463.082 523.26L461.643 519.16C456.105 503.44 452.847 495.52 447.17 484.16C436.315 462.46 423.481 444.9 408.088 430.66C393.035 416.76 376.183 407.02 356.932 401.08C345.038 397.42 336.621 396.1 323.548 395.84C311.253 395.58 300.678 396.22 285.565 398.16C260.717 401.32 249.582 402.12 232.59 401.9C221.016 401.76 213.799 401.18 205.063 399.74C174.957 394.78 150.949 381.42 123.462 354.36C114.206 345.22 105.21 335.42 84.5798 311.86C65.7886 290.44 57.3326 281.3 47.4972 271.78C34.5833 259.28 22.9688 250.04 11.794 243.32C9.43509 241.9 1.099 237.34 0.339355 237.06C0.0394897 236.94 -0.000488281 237.08 -0.000488281 238.58L0.0195007 240.26L2.55832 241.66Z" fill="#313131"/>
<path d="M3.65814 208.34C11.8943 212.6 22.3494 219.5 30.5655 226.08C46.7379 239.06 61.9308 254.72 90.1576 287.46C105.35 305.08 111.428 311.98 118.764 319.98C134.197 336.8 145.671 347.56 158.026 356.86C180.555 373.78 205.064 384.34 230.012 387.84C246.884 390.22 263.736 390.34 286.665 388.24C295.581 387.44 301.039 386.82 314.352 385.16C329.365 383.28 333.263 382.86 338.501 382.54C343.878 382.22 358.951 382.4 363.629 382.84C377.922 384.18 389.277 386.86 401.911 391.9C415.365 397.26 426.66 404 437.894 413.38C465.241 436.2 486.511 468.32 500.625 508.16C501.764 511.36 505.243 522.04 505.483 523.02L505.603 523.56L513.539 523.52L521.455 523.46L515.278 523.36L509.121 523.26L506.262 514.86C500.245 497.08 498.086 491.84 490.849 477.36C484.692 465.04 480.874 458.34 475.277 449.96C470.679 443.08 466.621 437.78 461.223 431.56C458.105 427.98 450.049 419.8 446.29 416.36C423.801 395.9 397.673 383.66 368.627 379.98C362.91 379.24 359.091 379.1 349.036 379.22C336.722 379.36 330.525 379.78 321.249 381.06C301.258 383.82 281.208 385.8 268.874 386.2C258.678 386.52 244.365 386.12 235.889 385.26C230.132 384.68 222.415 383.28 215.799 381.64C183.974 373.74 158.266 357.02 126.441 323.56C117.984 314.66 110.728 306.48 94.5555 287.66C75.9042 265.96 71.6862 261.24 61.551 250.66C46.618 235.1 32.4846 222.76 19.6906 214.12C14.2132 210.4 10.2351 208.08 2.5387 204.08L-0.00012207 202.76V204.62V206.46L3.65814 208.34Z" fill="#313131"/>
<path d="M0.139954 173.9C0.199951 173.02 0.299866 172.76 0.539734 172.76C1.61926 172.76 16.6722 181.58 22.6094 185.68C34.2239 193.74 43.7595 201.94 56.9733 215.3C69.9072 228.34 82.4613 242.38 104.551 268.46C126.741 294.66 140.414 309.78 151.789 320.74C177.896 345.86 203.884 361.02 233.49 368.36C245.285 371.28 256.879 372.92 270.573 373.58C275.89 373.84 290.963 373.72 296.961 373.36C311.494 372.52 320.31 371.64 342.439 368.86C362.53 366.34 360.091 366.52 377.623 366.42C396.754 366.3 399.073 366.42 407.908 368.06C436.335 373.3 459.864 384.74 481.654 403.88C508.521 427.48 530.211 461.64 545.304 504.16C547.903 511.46 551.461 522.9 551.221 523.14C551.161 523.2 550.102 523.32 548.882 523.38C547.003 523.48 547.323 523.5 550.781 523.52C553.38 523.54 554.939 523.48 554.939 523.36C554.939 523.08 550.781 510.06 549.242 505.56C537.608 471.42 521.235 442.08 500.625 418.38C497.207 414.44 486.991 404.26 483.173 400.96C464.942 385.24 445.551 374.52 424.421 368.46C416.564 366.22 405.71 364.08 398.593 363.36C392.756 362.78 377.343 362.58 368.427 362.96C362.75 363.2 358.132 363.66 346.337 365.16C310.994 369.66 306.896 369.98 282.607 369.98C260.098 369.96 255.44 369.62 242.186 367.04C216.938 362.1 192.55 350.56 171.06 333.42C153.068 319.06 139.255 304.48 101.952 260.46C71.6664 224.72 55.0941 207.42 36.7828 192.44C27.0473 184.48 14.2333 176.08 3.77826 170.86L0 168.96L0.039978 172C0.0599976 173.68 0.0999756 174.54 0.139954 173.9Z" fill="#313131"/>
<path d="M1.43933 139.46C8.23615 142.06 25.9878 153.3 35.8832 161.26C56.4735 177.84 75.3846 197.62 112.347 241.26C118.604 248.64 130.859 262.94 134.637 267.26C145.312 279.48 165.003 299.38 177.117 310.16C182.374 314.84 190.611 321.12 198.007 326.06C213.66 336.52 229.312 344.06 245.825 349.06C266.275 355.28 289.764 357.92 315.752 356.96C332.604 356.32 348.556 354.84 376.923 351.26C394.155 349.08 400.232 348.56 410.008 348.42C418.004 348.3 423.101 348.54 430.798 349.38C454.707 351.98 476.096 359.02 495.867 370.82C523.534 387.3 547.483 412.84 566.474 446.06C575.09 461.14 582.387 477.08 588.824 494.86C591.402 501.96 595.081 513.18 596.64 518.7L598.019 523.56L606.015 523.52L614.012 523.46L607.675 523.42L601.338 523.36L601.018 522.2C600.838 521.58 600.058 518.9 599.299 516.26C586.884 473.8 568.373 437.32 545.124 409.48C537.028 399.78 527.592 390.36 518.457 382.86C497.346 365.52 472.258 353.52 446.091 348.26C435.635 346.18 426.24 345.36 412.606 345.36C399.273 345.36 393.535 345.8 374.324 348.34C344.418 352.28 326.867 353.62 305.357 353.64C289.864 353.64 279.829 352.94 268.594 351.04C253.681 348.54 237.449 343.56 225.394 337.8C211.641 331.24 196.608 321.94 185.913 313.38C166.562 297.9 148.47 278.94 112.347 236.26C87.9787 207.48 81.4218 200.24 64.1299 183.04C51.5758 170.56 45.4387 164.92 37.2825 158.34C26.7275 149.82 17.9316 144.18 5.7373 138.04L0 135.16V137.02V138.9L1.43933 139.46Z" fill="#313131"/>
<path d="M0.139648 105.4C0.259583 104.8 0.359558 104.84 4.4776 106.9C28.4264 118.9 50.496 136.66 78.5628 166.56C88.0784 176.68 98.8533 189 119.544 213.46C145.351 243.94 153.408 252.86 171.099 270.56C185.713 285.16 195.088 293.56 205.803 301.6C223.295 314.74 246.184 326.42 266.415 332.56C296.78 341.78 330.724 343.24 382.12 337.54C387.258 336.98 398.453 335.58 413.366 333.66C425.52 332.08 432.916 331.56 442.852 331.56C482.873 331.56 517.997 342.88 548.542 365.56C562.136 375.68 575.589 388.78 587.204 403.24C593.841 411.5 604.956 428.08 610.873 438.56C619.029 453.02 626.206 468.62 632.643 485.92C636.001 495 641.299 511.32 644.197 521.62L644.757 523.56H646.316C647.196 523.56 647.896 523.52 647.896 523.46C647.896 523.22 643.817 509.06 642.598 505.06C630.943 466.82 612.212 429.8 590.682 402.46C579.628 388.42 566.494 375.3 553.46 365.28C531.45 348.34 507.541 337.3 481.274 331.96C467.18 329.08 451.408 327.8 436.935 328.32C427.299 328.68 422.741 329.1 411.007 330.66C344.458 339.54 313.233 340 279.668 332.56C257.659 327.66 239.567 319.96 219.037 306.74C203.304 296.6 190.37 285.68 171.519 266.64C155.627 250.58 148.87 243.02 119.544 208.46C93.4158 177.66 83.9603 167.16 68.6675 151.84C60.4913 143.64 55.8935 139.3 49.9763 134.14C37.822 123.58 25.2278 114.62 13.2935 108.08C10.5348 106.56 0.31958 101.36 0.0996704 101.36C0.0396729 101.36 0.0197144 102.38 0.0197144 103.6C0.0396729 104.84 0.0996704 105.66 0.139648 105.4Z" fill="#313131"/>
<path d="M1.83887 71.8602C11.4344 75.8002 28.0465 86.1802 41.1204 96.4002C49.2966 102.78 55.4736 108.26 66.3086 118.72C83.4006 135.24 95.4149 148.7 127.94 187.76C155.287 220.6 165.182 231.94 179.296 246.64C195.788 263.8 208.862 275.44 222.995 285.52C255.36 308.62 288.024 320.82 326.946 324.34C354.433 326.84 384.619 325.34 430.598 319.24C455.046 315.98 459.924 315.56 472.378 315.56C506.142 315.58 532.57 321.5 559.737 335.16C578.148 344.44 594.281 356.26 610.013 372.04C623.307 385.36 634.882 400.02 645.936 417.46C656.931 434.82 669.166 460.42 678.061 484.66C681.94 495.18 689.096 518.42 689.616 522.08C689.756 523.1 689.616 523.2 687.877 523.36C686.937 523.46 687.557 523.52 690.056 523.54C692.755 523.56 693.494 523.5 693.414 523.32C693.374 523.18 692.535 520.18 691.575 516.66C684.159 489.38 675.363 466.18 663.468 442.36C652.893 421.24 641.758 403.74 628.884 388.06C608.434 363.14 585.625 344.48 559.937 331.66C533.109 318.26 503.763 311.76 472.278 312.22C467.98 312.28 463.222 312.44 461.683 312.56C452.407 313.24 444.911 314.08 429.798 316.06C377.782 322.9 346.117 324.04 317.551 320.04C296.301 317.08 280.368 312.6 263.056 304.76C231.251 290.32 206.863 271.86 176.997 239.66C164.422 226.1 156.146 216.52 130.638 185.96C99.7529 148.96 90.997 139.02 75.5842 123.5C60.4113 108.22 50.1161 98.9602 38.8815 90.5402C28.0665 82.4202 20.3302 77.6802 6.33679 70.6002L-0.000244141 67.4002V69.2402V71.1002L1.83887 71.8602Z" fill="#313131"/>
<path d="M1.23975 37.7601C3.75854 38.6601 12.2946 43.1001 18.8914 46.9201C38.4223 58.2401 58.253 74.5201 80.4426 97.4401C96.3151 113.86 107.51 126.68 141.534 167.36C169.721 201.06 179.696 212.18 199.027 231.36C209.562 241.8 215.179 247 222.996 253.56C255.141 280.46 289.804 297.06 327.966 303.86C359.312 309.44 394.255 309.16 444.592 302.96C449.049 302.4 456.646 301.42 461.484 300.76C483.573 297.76 488.531 297.36 503.564 297.36C530.671 297.36 548.183 300 570.433 307.44C637.421 329.86 690.216 388.96 722.121 477.28C725.82 487.48 728.878 497.18 732.836 511.16C735.335 519.98 736.015 522.68 735.715 522.98C735.595 523.1 734.895 523.26 734.136 523.34C732.996 523.48 733.336 523.52 736.135 523.54L739.493 523.56L739.373 523.1C739.313 522.86 738.833 521.04 738.334 519.06C728.039 478.38 711.166 437.06 692.915 407.76C687.957 399.82 680.021 388.14 675.323 381.88C664.688 367.72 650.055 352.28 636.701 341.14C612.173 320.68 585.046 306.92 554.7 299.56C545.444 297.32 534.769 295.52 525.793 294.66C516.858 293.82 494.408 293.76 485.273 294.56C481.874 294.86 472.638 295.98 464.682 297.06C426.32 302.24 409.908 303.74 384.5 304.38C365.109 304.88 348.037 303.84 332.244 301.24C302.358 296.32 276.111 286.28 250.783 270.1C234.49 259.7 217.518 245.6 199.107 227.16C182.735 210.8 166.562 192.44 132.038 151.16C105.071 118.9 93.2766 105.64 77.1641 89.5601C60.6119 73.0001 46.5385 61.1801 31.0857 50.8601C21.7901 44.6401 14.4136 40.4801 3.03888 35.0401L0.000305176 33.5801V35.4401V37.3001L1.23975 37.7601Z" fill="#313131"/>
<path d="M2.03888 4.36005C4.71765 5.48004 11.9542 9.1001 16.3922 11.5201C21.4698 14.2801 25.5878 16.7801 31.685 20.8601C47.9573 31.7201 61.9308 43.5601 81.3616 62.9601C98.0338 79.6001 109.908 92.9801 137.515 126.16C164.802 158.96 172.479 168.08 182.534 179.56C196.228 195.22 210.181 209.78 223.115 221.96C231.111 229.5 238.108 235.4 247.484 242.5C279.109 266.46 310.054 280.54 346.237 287.46C363.029 290.68 377.762 291.96 397.813 291.96C423.921 291.96 445.591 290.36 478.175 286.04C501.704 282.92 508.461 282.12 517.257 281.38C525.773 280.66 530.411 280.5 538.747 280.62C566.434 281.02 591.982 285.98 616.231 295.62C653.753 310.56 687.337 337.4 715.144 374.62C727.158 390.72 737.394 407.56 747.249 427.46C751.507 436.08 753.306 439.94 756.645 447.76C766.08 469.8 773.357 491.22 780.353 517.6L781.933 523.56H783.472C784.332 523.56 785.031 523.5 785.031 523.4C785.031 523.32 784.452 520.92 783.752 518.06C780.913 506.62 775.196 487.7 770.798 475.16C755.565 431.88 735.634 394.72 711.526 364.66C700.991 351.54 689.556 339.68 677.382 329.26C654.373 309.54 627.205 294.64 598.919 286.16C587.264 282.68 570.832 279.36 561.236 278.58C552.061 277.8 534.309 277.4 524.434 277.72C515.298 278.02 509.361 278.64 486.072 281.74C437.335 288.22 407.389 289.98 378.322 288.06C329.385 284.82 289.564 270.2 251.182 241.38C231.531 226.62 213.46 209.46 190.83 184.06C180.215 172.12 173.838 164.64 153.348 140.06C109.868 87.8801 103.211 80.3601 80.1422 57.4601C63.4501 40.8801 54.3743 32.9601 41.7802 23.9601C28.0667 14.1601 15.9523 7.1001 3.03845 1.36005L-0.00012207 6.10352e-05V1.74005V3.50006L2.03888 4.36005Z" fill="#313131"/>
</svg>
