<svg xmlns="http://www.w3.org/2000/svg" width="401" height="631" fill="none" xmlns:v="https://vecta.io/nano"><path fill="#fff" d="M112 0h162v56H112z"/><path d="M169.716 24.09a2.229 2.229 0 0 0-1.037-1.675c-.606-.398-1.349-.597-2.23-.597-.644 0-1.208.104-1.69.313s-.853.494-1.123.86a2.06 2.06 0 0 0-.397 1.242c0 .388.092.722.277 1.001a2.45 2.45 0 0 0 .724.69c.294.18.601.328.923.447l.888.277 1.477.398a12.78 12.78 0 0 1 1.265.411c.468.176.916.415 1.342.718a3.64 3.64 0 0 1 1.065 1.15c.28.469.419 1.044.419 1.726 0 .786-.206 1.496-.618 2.13s-1.003 1.14-1.789 1.514-1.731.56-2.848.56c-1.042 0-1.944-.167-2.706-.504s-1.354-.804-1.79-1.406-.675-1.3-.732-2.095h1.819c.047.55.232 1.004.554 1.364.326.355.738.62 1.235.795a5.02 5.02 0 0 0 1.62.256c.672 0 1.276-.11 1.811-.327.535-.223.959-.53 1.271-.923.313-.398.469-.862.469-1.392 0-.483-.135-.876-.405-1.18a2.973 2.973 0 0 0-1.065-.738 11.25 11.25 0 0 0-1.428-.497l-1.79-.511c-1.136-.327-2.036-.794-2.699-1.4s-.994-1.399-.994-2.379c0-.814.22-1.524.661-2.13.445-.611 1.041-1.085 1.789-1.421s1.594-.511 2.522-.511c.937 0 1.771.168 2.5.504.729.331 1.307.786 1.733 1.364a3.39 3.39 0 0 1 .681 1.967h-1.704zM174.515 35V20.454h1.762v7.216h.17l6.534-7.216h2.301l-6.108 6.563L185.282 35h-2.13l-5.057-6.761-1.818 2.045V35h-1.762zm14.809-14.546V35h-1.762V20.454h1.762zM192.855 35V20.454h1.761v12.983h6.762V35h-8.523zm11.25 0V20.454h1.761v12.983h6.762V35h-8.523zm19.205-10.91a2.232 2.232 0 0 0-1.037-1.675c-.606-.398-1.35-.597-2.23-.597-.644 0-1.208.104-1.691.313s-.852.494-1.122.86a2.06 2.06 0 0 0-.398 1.242c0 .388.093.722.277 1.001.19.275.431.505.725.69.293.18.601.328.923.447l.888.277 1.477.398c.379.099.8.236 1.264.411a5.87 5.87 0 0 1 1.343.718 3.64 3.64 0 0 1 1.065 1.15c.279.469.419 1.044.419 1.726 0 .786-.206 1.496-.618 2.13s-1.004 1.14-1.79 1.514-1.73.56-2.848.56c-1.041 0-1.943-.167-2.706-.504-.757-.336-1.354-.804-1.789-1.406s-.675-1.3-.732-2.095h1.818c.048.55.232 1.004.554 1.364.327.355.739.62 1.236.795.502.17 1.042.256 1.619.256.673 0 1.276-.11 1.811-.327.536-.223.959-.53 1.272-.923a2.19 2.19 0 0 0 .469-1.392c0-.483-.135-.876-.405-1.18a2.968 2.968 0 0 0-1.066-.738 11.18 11.18 0 0 0-1.427-.497l-1.79-.511c-1.136-.327-2.036-.794-2.699-1.4s-.994-1.399-.994-2.379c0-.814.22-1.524.66-2.13.445-.611 1.042-1.085 1.79-1.421s1.593-.511 2.521-.511c.938 0 1.771.168 2.5.504.73.331 1.307.786 1.733 1.364s.659 1.233.682 1.967h-1.704z" fill="#333"/><path stroke="#454545" stroke-width="5" d="M190.5 99V56"/><path d="M17.497 157v-12.364h1.497v11.036h5.747V157h-7.244zm10.85 0h-1.57l4.54-12.364h1.546L37.403 157h-1.57l-3.695-10.408h-.096L28.347 157zm.58-4.83h6.326v1.329h-6.326v-1.329zm20.205-7.534V157h-1.449l-6.737-9.707h-.12V157h-1.498v-12.364h1.45l6.76 9.732h.121v-9.732h1.473zM60.58 148.5a4.374 4.374 0 0 0-.526-1.093 3.383 3.383 0 0 0-.766-.833 3.231 3.231 0 0 0-1.002-.525 3.986 3.986 0 0 0-1.232-.181c-.732 0-1.398.189-1.998.567s-1.077.936-1.43 1.673-.532 1.64-.532 2.71.179 1.974.537 2.711.843 1.294 1.455 1.672 1.3.567 2.065.567c.708 0 1.332-.15 1.871-.452a3.215 3.215 0 0 0 1.268-1.292c.306-.56.459-1.218.459-1.974l.459.096h-3.72v-1.328h4.71v1.328c0 1.019-.218 1.904-.652 2.657a4.502 4.502 0 0 1-1.787 1.75c-.757.411-1.626.616-2.608.616-1.095 0-2.057-.258-2.886-.773s-1.469-1.247-1.932-2.197-.688-2.077-.688-3.381c0-.978.13-1.857.392-2.638s.64-1.453 1.123-2.004a4.906 4.906 0 0 1 1.715-1.268 5.296 5.296 0 0 1 2.18-.441c.651 0 1.259.099 1.822.296a4.892 4.892 0 0 1 1.516.827 4.833 4.833 0 0 1 1.732 2.91H60.58zm12.295-3.864h1.498v8.186c0 .846-.2 1.6-.598 2.264a4.184 4.184 0 0 1-1.672 1.564c-.72.378-1.566.567-2.536.567s-1.815-.189-2.535-.567a4.227 4.227 0 0 1-1.679-1.564c-.394-.664-.591-1.418-.591-2.264v-8.186h1.497v8.066c0 .603.133 1.141.398 1.612a2.86 2.86 0 0 0 1.135 1.104c.495.266 1.087.399 1.775.399s1.28-.133 1.775-.399a2.806 2.806 0 0 0 1.135-1.104c.266-.471.398-1.009.398-1.612v-8.066zM77.87 157H76.3l4.54-12.364h1.545L86.925 157h-1.57l-3.694-10.408h-.097L77.87 157zm.579-4.83h6.327v1.329h-6.327v-1.329zm18.272-3.67a4.374 4.374 0 0 0-.525-1.093 3.383 3.383 0 0 0-.767-.833 3.231 3.231 0 0 0-1.002-.525 3.986 3.986 0 0 0-1.231-.181c-.733 0-1.399.189-1.998.567s-1.077.936-1.431 1.673-.531 1.64-.531 2.71.179 1.974.537 2.711.843 1.294 1.455 1.672 1.3.567 2.064.567c.709 0 1.332-.15 1.872-.452a3.215 3.215 0 0 0 1.268-1.292c.305-.56.458-1.218.458-1.974l.46.096h-3.72v-1.328h4.71v1.328c0 1.019-.218 1.904-.653 2.657a4.502 4.502 0 0 1-1.787 1.75c-.756.411-1.626.616-2.608.616-1.094 0-2.056-.258-2.885-.773s-1.47-1.247-1.932-2.197-.688-2.077-.688-3.381c0-.978.13-1.857.392-2.638s.64-1.453 1.123-2.004a4.906 4.906 0 0 1 1.714-1.268 5.296 5.296 0 0 1 2.18-.441c.652 0 1.26.099 1.823.296a4.892 4.892 0 0 1 1.515.827 4.69 4.69 0 0 1 1.117 1.274c.298.491.503 1.036.616 1.636H96.72zm4.182 8.5v-12.364h7.462v1.328h-5.964v4.178h5.578v1.328h-5.578v4.202h6.061V157h-7.559zm16.922-9.273a1.896 1.896 0 0 0-.881-1.424c-.516-.339-1.147-.508-1.896-.508-.547 0-1.026.089-1.437.266a2.302 2.302 0 0 0-.954.731 1.751 1.751 0 0 0-.338 1.056c0 .33.079.614.236.851s.366.429.615.586.512.28.785.38l.755.236 1.256.338a10.74 10.74 0 0 1 1.074.35c.399.149.779.352 1.141.61a3.11 3.11 0 0 1 .906.977c.237.399.356.888.356 1.467 0 .669-.175 1.272-.525 1.812s-.854.967-1.522 1.285-1.471.477-2.421.477c-.885 0-1.652-.143-2.3-.428s-1.151-.684-1.521-1.196-.573-1.104-.622-1.781h1.546c.04.467.197.854.471 1.16a2.55 2.55 0 0 0 1.05.676 4.25 4.25 0 0 0 1.376.217c.572 0 1.085-.093 1.54-.278s.815-.45 1.081-.784.398-.733.398-1.184c0-.41-.115-.744-.344-1.002a2.534 2.534 0 0 0-.906-.628 9.36 9.36 0 0 0-1.213-.422l-1.521-.435c-.966-.278-1.731-.674-2.294-1.189s-.846-1.189-.846-2.023c0-.692.188-1.295.562-1.811s.885-.921 1.521-1.207 1.354-.435 2.143-.435c.797 0 1.505.143 2.125.429s1.111.668 1.473 1.159.56 1.048.58 1.672h-1.449z" fill="#fff"/><rect y="174" width="137" height="87" rx="7" fill="#454545"/><path d="M21.75 200.73a2.58 2.58 0 0 1-1.334-.356 2.784 2.784 0 0 1-.966-.966 2.576 2.576 0 0 1-.356-1.334 2.55 2.55 0 0 1 .356-1.334 2.71 2.71 0 0 1 .966-.96 2.54 2.54 0 0 1 1.334-.362c.491 0 .936.12 1.334.362a2.66 2.66 0 0 1 .96.96c.241.398.362.843.362 1.334s-.12.932-.362 1.334a2.733 2.733 0 0 1-.96.966 2.56 2.56 0 0 1-1.334.356zm18.98-10.094h1.497v8.838c0 .789-.145 1.459-.434 2.011a2.95 2.95 0 0 1-1.226 1.255c-.527.286-1.149.429-1.865.429-.676 0-1.278-.123-1.805-.368a2.978 2.978 0 0 1-1.244-1.063c-.302-.459-.453-1.004-.453-1.636h1.473c0 .35.087.656.26.918s.418.459.724.604.654.217 1.045.217c.43 0 .797-.091 1.098-.272s.532-.446.689-.797.241-.786.241-1.298v-8.838zm7.033 12.581c-.587 0-1.12-.11-1.6-.332a2.74 2.74 0 0 1-1.14-.972c-.282-.426-.423-.941-.423-1.545 0-.531.104-.962.314-1.292s.489-.596.839-.785.736-.33 1.159-.422a14.2 14.2 0 0 1 1.286-.23 59.13 59.13 0 0 1 1.37-.163c.354-.04.612-.106.773-.199s.247-.254.247-.483v-.048c0-.596-.163-1.059-.489-1.389-.321-.33-.81-.495-1.466-.495-.68 0-1.214.149-1.6.447s-.658.616-.815.954l-1.353-.483c.242-.564.564-1.002.966-1.316s.85-.54 1.328-.664a5.505 5.505 0 0 1 1.425-.193 5.67 5.67 0 0 1 1.026.108c.39.069.767.211 1.13.429s.67.545.91.984.363 1.026.363 1.763V203h-1.425v-1.256h-.072a2.489 2.489 0 0 1-.483.646c-.225.23-.525.425-.9.586s-.83.241-1.37.241zm.218-1.279c.563 0 1.038-.111 1.424-.333a2.258 2.258 0 0 0 1.183-1.962v-1.304c-.06.073-.193.139-.398.2a7.009 7.009 0 0 1-.7.151 32.051 32.051 0 0 1-1.365.181c-.37.048-.716.127-1.038.235a1.797 1.797 0 0 0-.773.477c-.193.209-.29.495-.29.857 0 .495.184.87.55 1.123s.839.375 1.407.375zm13.883-8.211L58.434 203h-1.448l-3.429-9.273h1.545l2.56 7.389h.097l2.56-7.389h1.545zm4.327 9.49c-.588 0-1.121-.11-1.6-.332a2.74 2.74 0 0 1-1.14-.972c-.283-.426-.423-.941-.423-1.545 0-.531.104-.962.313-1.292s.49-.596.84-.785.736-.33 1.159-.422a14.18 14.18 0 0 1 1.285-.23 59.79 59.79 0 0 1 1.37-.163c.355-.04.613-.106.774-.199s.247-.254.247-.483v-.048c0-.596-.163-1.059-.489-1.389s-.81-.495-1.467-.495c-.68 0-1.213.149-1.6.447s-.658.616-.815.954l-1.352-.483c.242-.564.564-1.002.966-1.316a3.61 3.61 0 0 1 1.328-.664 5.504 5.504 0 0 1 1.425-.193 5.67 5.67 0 0 1 1.026.108c.39.069.767.211 1.13.429s.67.545.91.984.363 1.026.363 1.763V203h-1.425v-1.256h-.072a2.49 2.49 0 0 1-.483.646 2.78 2.78 0 0 1-.9.586c-.374.161-.83.241-1.37.241zm.217-1.279c.564 0 1.039-.111 1.425-.333a2.258 2.258 0 0 0 1.183-1.962v-1.304c-.06.073-.193.139-.398.2a7.002 7.002 0 0 1-.7.151 31.98 31.98 0 0 1-1.365.181c-.37.048-.716.127-1.038.235a1.797 1.797 0 0 0-.773.477c-.193.209-.29.495-.29.857 0 .495.183.87.55 1.123s.839.375 1.406.375zm13.588-8.211a1.895 1.895 0 0 0-.882-1.424c-.515-.339-1.147-.508-1.895-.508-.547 0-1.026.089-1.437.266a2.294 2.294 0 0 0-.954.731 1.748 1.748 0 0 0-.338 1.056c0 .33.079.614.236.851s.366.429.615.586.512.28.785.38l.755.236 1.255.338c.322.084.68.201 1.075.35s.779.352 1.141.61a3.1 3.1 0 0 1 .905.977c.238.399.357.888.357 1.467a3.25 3.25 0 0 1-.526 1.812c-.346.539-.853.967-1.52 1.285s-1.472.477-2.422.477c-.885 0-1.652-.143-2.3-.428s-1.15-.684-1.521-1.196a3.408 3.408 0 0 1-.622-1.781h1.546c.04.467.197.854.47 1.16a2.56 2.56 0 0 0 1.051.676 4.25 4.25 0 0 0 1.376.217c.572 0 1.085-.093 1.54-.278s.815-.45 1.08-.784a1.86 1.86 0 0 0 .399-1.184c0-.41-.115-.744-.344-1.002a2.533 2.533 0 0 0-.906-.628 9.399 9.399 0 0 0-1.213-.422l-1.522-.435c-.965-.278-1.73-.674-2.294-1.189s-.845-1.189-.845-2.023c0-.692.187-1.295.562-1.811s.885-.921 1.521-1.207 1.354-.435 2.143-.435c.797 0 1.505.143 2.125.429s1.11.668 1.473 1.159.56 1.048.58 1.672h-1.45zm7.653 9.466c-.87 0-1.618-.205-2.246-.616a4.012 4.012 0 0 1-1.449-1.696c-.337-.72-.507-1.543-.507-2.469 0-.942.174-1.773.52-2.493s.837-1.29 1.46-1.697c.628-.41 1.36-.615 2.198-.615.652 0 1.24.12 1.763.362a3.37 3.37 0 0 1 1.286 1.014 3.16 3.16 0 0 1 .621 1.521h-1.424c-.109-.422-.35-.797-.725-1.123s-.869-.495-1.497-.495c-.555 0-1.042.145-1.46.435s-.74.69-.973 1.213-.344 1.129-.344 1.83c0 .716.113 1.34.338 1.871.23.531.552.944.966 1.238.419.293.91.44 1.473.44.37 0 .707-.064 1.008-.193s.558-.314.767-.555.358-.531.447-.87h1.425a3.303 3.303 0 0 1-.598 1.48 3.35 3.35 0 0 1-1.25 1.038c-.515.253-1.115.38-1.799.38zm5.73-.193v-9.273h1.376v1.401h.096c.17-.459.475-.831.918-1.117a2.7 2.7 0 0 1 1.497-.429l.392.006a4.6 4.6 0 0 1 .357.019v1.448a4.253 4.253 0 0 0-.332-.054 3.287 3.287 0 0 0-.538-.042c-.45 0-.853.094-1.207.284s-.628.442-.833.772a2.084 2.084 0 0 0-.302 1.117V203h-1.425zm6.324 0v-9.273h1.425V203h-1.425zm.725-10.818c-.278 0-.517-.095-.719-.284a.91.91 0 0 1-.295-.682.91.91 0 0 1 .295-.682c.202-.189.441-.284.719-.284a.99.99 0 0 1 .712.284.903.903 0 0 1 .302.682.903.903 0 0 1-.302.682.991.991 0 0 1-.712.284zm3.31 14.295v-12.75h1.376v1.473h.169l.435-.615c.189-.254.458-.479.809-.677s.833-.301 1.436-.301c.781 0 1.469.195 2.065.585s1.061.944 1.395 1.66.501 1.562.501 2.536c0 .982-.167 1.833-.501 2.553s-.797 1.272-1.389 1.667c-.592.39-1.274.585-2.046.585-.596 0-1.073-.098-1.431-.296s-.634-.428-.827-.682a9.212 9.212 0 0 1-.447-.64h-.121v4.902h-1.424zm1.4-8.113c0 .7.103 1.318.308 1.853s.505.948.9 1.25.877.446 1.448.446c.596 0 1.093-.157 1.492-.471s.704-.744.905-1.279a5.03 5.03 0 0 0 .308-1.799c0-.652-.101-1.24-.302-1.763s-.497-.944-.899-1.25-.9-.465-1.504-.465c-.579 0-1.066.147-1.461.441s-.692.696-.893 1.22-.302 1.124-.302 1.817zm12.992-4.637v1.208h-4.806v-1.208h4.806zm-3.405-2.221h1.425v8.838c0 .402.058.704.175.905s.273.33.458.399a1.86 1.86 0 0 0 .598.096 2.53 2.53 0 0 0 .386-.024l.242-.048.29 1.28a2.943 2.943 0 0 1-.405.108 2.926 2.926 0 0 1-.658.061 2.87 2.87 0 0 1-1.183-.26 2.357 2.357 0 0 1-.954-.791c-.249-.354-.374-.801-.374-1.34v-9.224zM21.75 221.73a2.58 2.58 0 0 1-1.334-.356 2.784 2.784 0 0 1-.966-.966 2.576 2.576 0 0 1-.356-1.334 2.55 2.55 0 0 1 .356-1.334 2.71 2.71 0 0 1 .966-.96 2.54 2.54 0 0 1 1.334-.362c.491 0 .936.12 1.334.362a2.66 2.66 0 0 1 .96.96c.241.398.362.843.362 1.334s-.12.932-.362 1.334a2.733 2.733 0 0 1-.96.966 2.56 2.56 0 0 1-1.334.356zm13.571-8.766v-1.328h9.273v1.328h-3.888V224h-1.497v-11.036H35.32zm11.245 14.513c-.241 0-.457-.02-.646-.06a1.699 1.699 0 0 1-.392-.109l.362-1.255c.346.088.652.12.918.096a1.1 1.1 0 0 0 .706-.356c.21-.209.4-.549.574-1.02l.265-.725-3.429-9.321h1.546l2.56 7.389h.096l2.56-7.389h1.545l-3.936 10.625c-.177.479-.396.876-.658 1.19a2.476 2.476 0 0 1-.912.706 2.81 2.81 0 0 1-1.159.229zm8.546 0v-12.75h1.376v1.473h.169l.435-.615c.189-.254.459-.479.809-.677s.833-.301 1.436-.301c.781 0 1.47.195 2.065.585s1.06.944 1.395 1.66.5 1.562.5 2.536c0 .982-.166 1.833-.5 2.553s-.797 1.272-1.389 1.667c-.592.39-1.274.585-2.046.585-.596 0-1.073-.098-1.431-.296s-.634-.428-.827-.682a9.028 9.028 0 0 1-.447-.64h-.12v4.902h-1.425zm1.4-8.113c0 .7.103 1.318.308 1.853s.505.948.9 1.25.877.446 1.448.446c.596 0 1.093-.157 1.492-.471s.704-.744.905-1.279a5.03 5.03 0 0 0 .308-1.799c0-.652-.1-1.24-.302-1.763s-.497-.944-.9-1.25-.899-.465-1.503-.465c-.58 0-1.066.147-1.46.441s-.693.696-.894 1.22-.302 1.124-.302 1.817zm12.847 4.829c-.894 0-1.664-.197-2.312-.591a3.973 3.973 0 0 1-1.492-1.667c-.346-.716-.519-1.549-.519-2.499s.173-1.787.52-2.511c.35-.729.837-1.296 1.46-1.703.628-.41 1.36-.615 2.198-.615.483 0 .96.08 1.43.241s.9.423 1.286.785.695.833.924 1.425.344 1.32.344 2.185v.604h-7.147v-1.232h5.698c0-.523-.104-.99-.313-1.401a2.37 2.37 0 0 0-.882-.971c-.378-.238-.825-.357-1.34-.357-.568 0-1.059.141-1.473.423a2.78 2.78 0 0 0-.948 1.087 3.187 3.187 0 0 0-.332 1.436v.821c0 .701.12 1.294.362 1.781a2.61 2.61 0 0 0 1.02 1.105c.435.25.94.374 1.516.374.374 0 .712-.052 1.014-.157s.57-.269.79-.483a2.19 2.19 0 0 0 .514-.809l1.376.387a3.048 3.048 0 0 1-.73 1.231 3.546 3.546 0 0 1-1.268.821c-.503.194-1.068.29-1.696.29zm12.961-9.466a1.895 1.895 0 0 0-.881-1.424c-.515-.339-1.147-.508-1.896-.508-.547 0-1.026.089-1.437.266a2.294 2.294 0 0 0-.954.731 1.749 1.749 0 0 0-.338 1.056c0 .33.079.614.236.851s.366.429.616.586a4.36 4.36 0 0 0 .784.38l.755.236 1.256.338a10.74 10.74 0 0 1 1.074.35c.399.149.779.352 1.141.61a3.1 3.1 0 0 1 .906.977c.237.399.356.888.356 1.467 0 .669-.175 1.272-.525 1.812s-.853.967-1.522 1.285c-.664.318-1.47.477-2.42.477-.886 0-1.653-.143-2.3-.428s-1.152-.684-1.522-1.196a3.408 3.408 0 0 1-.622-1.781h1.546c.04.467.197.854.47 1.16a2.56 2.56 0 0 0 1.051.676 4.25 4.25 0 0 0 1.377.217c.571 0 1.084-.093 1.539-.278s.815-.45 1.08-.784.4-.733.4-1.184c0-.41-.116-.744-.345-1.002a2.533 2.533 0 0 0-.906-.628 9.399 9.399 0 0 0-1.213-.422l-1.521-.435c-.966-.278-1.73-.674-2.294-1.189s-.846-1.189-.846-2.023c0-.692.188-1.295.562-1.811s.885-.921 1.521-1.207 1.355-.435 2.143-.435c.797 0 1.506.143 2.125.429s1.111.668 1.473 1.159a2.88 2.88 0 0 1 .58 1.672H82.32zm7.653 9.466c-.869 0-1.617-.205-2.245-.616a4.011 4.011 0 0 1-1.45-1.696c-.337-.72-.506-1.543-.506-2.469 0-.942.173-1.773.519-2.493s.837-1.29 1.46-1.697c.629-.41 1.361-.615 2.198-.615.652 0 1.24.12 1.763.362a3.37 3.37 0 0 1 1.286 1.014 3.17 3.17 0 0 1 .622 1.521h-1.425c-.109-.422-.35-.797-.724-1.123s-.87-.495-1.498-.495c-.555 0-1.042.145-1.46.435s-.74.69-.973 1.213-.344 1.129-.344 1.83c0 .716.113 1.34.338 1.871.23.531.552.944.966 1.238.419.293.91.44 1.473.44.37 0 .707-.064 1.008-.193s.558-.314.767-.555a2.13 2.13 0 0 0 .447-.87h1.425a3.302 3.302 0 0 1-.598 1.48 3.35 3.35 0 0 1-1.25 1.038c-.515.253-1.114.38-1.799.38zm5.73-.193v-9.273h1.376v1.401h.096c.17-.459.475-.831.918-1.117a2.7 2.7 0 0 1 1.497-.429l.393.006.356.019v1.448a4.32 4.32 0 0 0-.332-.054 3.293 3.293 0 0 0-.538-.042c-.45 0-.853.094-1.207.284s-.628.442-.833.772a2.084 2.084 0 0 0-.302 1.117V224h-1.425zm6.325 0v-9.273h1.424V224h-1.424zm.724-10.818a1.01 1.01 0 0 1-.718-.284.908.908 0 0 1-.296-.682c0-.266.098-.493.296-.682a1.01 1.01 0 0 1 .718-.284.99.99 0 0 1 .712.284.9.9 0 0 1 .302.682.9.9 0 0 1-.302.682.991.991 0 0 1-.712.284zm3.31 14.295v-12.75h1.376v1.473h.169l.435-.615c.189-.254.459-.479.809-.677s.833-.301 1.437-.301c.78 0 1.469.195 2.064.585s1.061.944 1.395 1.66.501 1.562.501 2.536c0 .982-.167 1.833-.501 2.553s-.797 1.272-1.389 1.667c-.591.39-1.273.585-2.046.585-.596 0-1.073-.098-1.431-.296s-.634-.428-.827-.682a9.212 9.212 0 0 1-.447-.64h-.12v4.902h-1.425zm1.4-8.113c0 .7.103 1.318.308 1.853s.505.948.9 1.25.877.446 1.449.446c.595 0 1.092-.157 1.491-.471s.704-.744.905-1.279.308-1.139.308-1.799c0-.652-.1-1.24-.302-1.763-.197-.527-.497-.944-.899-1.25s-.9-.465-1.503-.465c-.58 0-1.067.147-1.461.441s-.693.696-.894 1.22-.302 1.124-.302 1.817zm12.992-4.637v1.208h-4.806v-1.208h4.806zm-3.405-2.221h1.425v8.838c0 .402.058.704.175.905a.91.91 0 0 0 .459.399 1.85 1.85 0 0 0 .597.096c.157 0 .286-.008.387-.024l.241-.048.29 1.28a2.943 2.943 0 0 1-.405.108 2.926 2.926 0 0 1-.658.061 2.87 2.87 0 0 1-1.183-.26 2.357 2.357 0 0 1-.954-.791c-.249-.354-.374-.801-.374-1.34v-9.224zM21.75 242.73a2.58 2.58 0 0 1-1.334-.356 2.784 2.784 0 0 1-.966-.966 2.576 2.576 0 0 1-.356-1.334 2.55 2.55 0 0 1 .356-1.334 2.71 2.71 0 0 1 .966-.96 2.54 2.54 0 0 1 1.334-.362c.491 0 .936.12 1.334.362a2.66 2.66 0 0 1 .96.96c.241.398.362.843.362 1.334s-.12.932-.362 1.334a2.733 2.733 0 0 1-.96.966 2.56 2.56 0 0 1-1.334.356zM35.997 245v-12.364h4.178c.97 0 1.763.175 2.378.526s1.079.815 1.377 1.406.446 1.252.446 1.98-.148 1.391-.446 1.986-.749 1.071-1.365 1.425-1.404.525-2.366.525h-2.994v-1.328h2.946c.664 0 1.197-.114 1.6-.344s.694-.539.875-.93.277-.839.277-1.334-.092-.937-.277-1.328a1.98 1.98 0 0 0-.882-.917c-.406-.226-.946-.339-1.618-.339h-2.632V245h-1.497zm11.516 3.477c-.242 0-.457-.02-.646-.06a1.699 1.699 0 0 1-.393-.109l.363-1.255c.346.088.651.12.917.096a1.1 1.1 0 0 0 .706-.356c.21-.209.4-.549.574-1.02l.266-.725-3.43-9.321h1.546l2.56 7.389h.096l2.56-7.389h1.545l-3.936 10.625c-.177.479-.396.876-.658 1.19a2.476 2.476 0 0 1-.911.706 2.81 2.81 0 0 1-1.16.229zm12.578-12.75v1.208h-4.806v-1.208h4.806zm-3.405-2.221h1.424v8.838c0 .402.059.704.175.905.121.197.274.33.46.399a1.85 1.85 0 0 0 .597.096 2.53 2.53 0 0 0 .386-.024l.242-.048.29 1.28a2.913 2.913 0 0 1-.405.108 2.928 2.928 0 0 1-.658.061 2.87 2.87 0 0 1-1.183-.26 2.352 2.352 0 0 1-.954-.791c-.25-.354-.374-.801-.374-1.34v-9.224zm7.172 5.916V245h-1.425v-12.364h1.425v4.54h.12a2.63 2.63 0 0 1 .978-1.141c.439-.286 1.023-.428 1.751-.428.632 0 1.185.126 1.66.38s.843.634 1.105 1.153.398 1.171.398 1.968V245h-1.424v-5.795c0-.737-.192-1.306-.574-1.709s-.903-.61-1.576-.61a2.63 2.63 0 0 0-1.255.296 2.162 2.162 0 0 0-.87.863c-.209.379-.313.838-.313 1.377zm12.386 5.771c-.837 0-1.572-.199-2.204-.597s-1.119-.956-1.473-1.673-.525-1.553-.525-2.511c0-.966.175-1.809.525-2.53s.846-1.279 1.473-1.678c.632-.398 1.367-.597 2.204-.597s1.57.199 2.197.597a4 4 0 0 1 1.473 1.678c.355.721.532 1.564.532 2.53 0 .958-.177 1.795-.532 2.511s-.84 1.274-1.473 1.673c-.627.398-1.36.597-2.197.597zm0-1.28c.636 0 1.159-.163 1.57-.489a2.88 2.88 0 0 0 .911-1.286 4.918 4.918 0 0 0 .296-1.726c0-.62-.099-1.197-.296-1.733a2.923 2.923 0 0 0-.911-1.298c-.411-.33-.934-.495-1.57-.495s-1.16.165-1.57.495-.714.763-.911 1.298a4.978 4.978 0 0 0-.296 1.733c0 .62.099 1.195.296 1.726s.5.96.911 1.286.934.489 1.57.489zm7.801-4.491V245H82.62v-9.273h1.377v1.449h.12a2.65 2.65 0 0 1 .99-1.135c.443-.29 1.015-.434 1.715-.434.628 0 1.177.128 1.648.386.471.253.837.64 1.099 1.159s.392 1.167.392 1.956V245h-1.424v-5.795c0-.729-.19-1.296-.568-1.703s-.897-.616-1.557-.616a2.49 2.49 0 0 0-1.22.296 2.116 2.116 0 0 0-.839.863c-.205.379-.308.838-.308 1.377zM14.743 375l-3.38-12.364h1.52l2.584 10.07h.121l2.632-10.07h1.69l2.633 10.07h.12l2.584-10.07h1.521L23.389 375h-1.546l-2.728-9.852h-.097L16.288 375h-1.545zm13.89 0v-12.364h7.463v1.328H30.13v4.178h5.578v1.328H30.13v4.202h6.061V375h-7.558zm10.161 0v-12.364h4.323c.86 0 1.571.149 2.13.447s.977.69 1.25 1.189.41 1.045.41 1.648c0 .532-.094.97-.283 1.317s-.43.619-.737.821a3.34 3.34 0 0 1-.984.446v.121c.379.024.76.157 1.141.398s.703.588.96 1.039.387 1.002.387 1.654c0 .62-.141 1.177-.423 1.672s-.726.888-1.334 1.177-1.399.435-2.373.435h-4.467zm1.497-1.328h2.97c.978 0 1.673-.189 2.083-.568.415-.382.622-.845.622-1.388 0-.419-.107-.805-.32-1.159a2.315 2.315 0 0 0-.912-.857c-.394-.218-.86-.326-1.4-.326H40.29v4.298zm0-5.602h2.777c.45 0 .857-.089 1.22-.266a2.13 2.13 0 0 0 .869-.749c.217-.322.326-.7.326-1.135a1.88 1.88 0 0 0-.567-1.382c-.379-.382-.978-.574-1.8-.574h-2.825v4.106zm13.52 7.099c-.797 0-1.507-.137-2.131-.41s-1.113-.654-1.48-1.141a3.069 3.069 0 0 1-.59-1.709h1.52a1.8 1.8 0 0 0 .411 1.032 2.36 2.36 0 0 0 .948.664c.39.157.823.236 1.298.236.531 0 1.002-.093 1.412-.278s.733-.442.966-.773a1.93 1.93 0 0 0 .35-1.147c0-.454-.112-.855-.338-1.201s-.555-.624-.99-.821-.966-.296-1.593-.296h-.99v-1.328h.99c.49 0 .921-.088 1.291-.265a2.08 2.08 0 0 0 .876-.749c.213-.322.32-.7.32-1.135 0-.419-.093-.783-.278-1.093a1.897 1.897 0 0 0-.785-.724c-.334-.173-.728-.26-1.183-.26-.427 0-.829.079-1.207.236s-.68.376-.918.67-.366.64-.386 1.05h-1.45a2.95 2.95 0 0 1 .586-1.702 3.69 3.69 0 0 1 1.437-1.147 4.638 4.638 0 0 1 1.962-.411c.765 0 1.42.155 1.968.465s.968.711 1.262 1.214.44 1.046.44 1.63c0 .696-.183 1.289-.549 1.78s-.855.832-1.479 1.021v.096c.781.129 1.39.461 1.83.996s.657 1.19.657 1.974c0 .673-.183 1.276-.549 1.812a3.73 3.73 0 0 1-1.485 1.255c-.628.306-1.342.459-2.143.459zm11.042-13.112l-3.985 14.802h-1.304l3.984-14.802h1.305zM66.735 375v-12.364h4.322c.861 0 1.572.149 2.13.447s.977.69 1.25 1.189a3.35 3.35 0 0 1 .411 1.648c0 .532-.094.97-.284 1.317a2.21 2.21 0 0 1-.736.821c-.302.201-.63.35-.984.446v.121c.378.024.759.157 1.14.398s.703.588.96 1.039.387 1.002.387 1.654c0 .62-.14 1.177-.422 1.672s-.727.888-1.335 1.177-1.398.435-2.372.435h-4.468zm1.497-1.328h2.97c.978 0 1.672-.189 2.082-.568.415-.382.622-.845.622-1.388 0-.419-.106-.805-.32-1.159a2.314 2.314 0 0 0-.911-.857c-.395-.218-.861-.326-1.4-.326h-3.043v4.298zm0-5.602h2.777c.45 0 .857-.089 1.22-.266s.655-.427.868-.749c.218-.322.326-.7.326-1.135a1.88 1.88 0 0 0-.567-1.382c-.378-.382-.978-.574-1.8-.574h-2.824v4.106zm9.56 6.93v-12.364h1.496v11.036h5.747V375h-7.244zm19.512-6.182c0 1.304-.236 2.431-.706 3.381s-1.117 1.682-1.938 2.197-1.759.773-2.813.773-1.993-.258-2.814-.773-1.467-1.247-1.938-2.197-.706-2.077-.706-3.381.236-2.431.707-3.38 1.116-1.683 1.937-2.198 1.76-.773 2.814-.773 1.992.258 2.813.773 1.467 1.248 1.938 2.198.706 2.076.706 3.38zm-1.449 0c0-1.07-.179-1.974-.537-2.71s-.835-1.294-1.443-1.673a3.744 3.744 0 0 0-2.028-.567c-.749 0-1.427.189-2.035.567s-1.084.936-1.443 1.673-.53 1.64-.53 2.71.176 1.974.53 2.711.84 1.294 1.443 1.672a3.774 3.774 0 0 0 2.035.567c.748 0 1.424-.189 2.028-.567s1.089-.936 1.443-1.672.537-1.64.537-2.711zm13.915-2.318h-1.497a3.09 3.09 0 0 0-.465-1.135 3.084 3.084 0 0 0-.797-.821 3.401 3.401 0 0 0-1.032-.507 4.111 4.111 0 0 0-1.183-.169c-.749 0-1.427.189-2.035.567s-1.084.936-1.442 1.673-.532 1.64-.532 2.71.177 1.974.532 2.711.839 1.294 1.442 1.672a3.776 3.776 0 0 0 2.035.567 4.11 4.11 0 0 0 1.183-.169 3.434 3.434 0 0 0 1.032-.501 3.169 3.169 0 0 0 1.262-1.962h1.497a4.971 4.971 0 0 1-.616 1.697 4.646 4.646 0 0 1-1.11 1.274 4.87 4.87 0 0 1-1.491.79 5.565 5.565 0 0 1-1.757.272c-1.055 0-1.992-.258-2.813-.773s-1.467-1.247-1.938-2.197-.707-2.077-.707-3.381.236-2.431.707-3.38 1.117-1.683 1.938-2.198 1.758-.773 2.813-.773c.624 0 1.209.091 1.757.272a4.802 4.802 0 0 1 1.491.797 4.55 4.55 0 0 1 1.11 1.268c.298.495.504 1.06.616 1.696zm2.42 8.5v-12.364h1.497v6.134h.145l5.554-6.134h1.956l-5.192 5.578 5.192 6.786h-1.812l-4.298-5.747-1.545 1.738V375h-1.497zm20.457-8.5h-1.497a3.107 3.107 0 0 0-1.262-1.956 3.401 3.401 0 0 0-1.032-.507 4.111 4.111 0 0 0-1.183-.169c-.749 0-1.427.189-2.035.567s-1.084.936-1.443 1.673-.531 1.64-.531 2.71.177 1.974.531 2.711.84 1.294 1.443 1.672a3.776 3.776 0 0 0 2.035.567 4.11 4.11 0 0 0 1.183-.169 3.434 3.434 0 0 0 1.032-.501 3.169 3.169 0 0 0 1.262-1.962h1.497a4.971 4.971 0 0 1-.616 1.697 4.646 4.646 0 0 1-1.11 1.274 4.87 4.87 0 0 1-1.491.79 5.565 5.565 0 0 1-1.757.272c-1.055 0-1.992-.258-2.813-.773s-1.467-1.247-1.938-2.197-.707-2.077-.707-3.381.236-2.431.707-3.38 1.117-1.683 1.938-2.198 1.758-.773 2.813-.773c.624 0 1.209.091 1.757.272a4.802 4.802 0 0 1 1.491.797 4.55 4.55 0 0 1 1.11 1.268c.298.495.504 1.06.616 1.696zm2.419 8.5v-12.364h1.498v5.506h6.592v-5.506h1.497V375h-1.497v-5.53h-6.592V375h-1.498zm13.092 0h-1.57l4.54-12.364h1.545l4.54 12.364h-1.57l-3.694-10.408h-.097L148.158 375zm.579-4.83h6.327v1.329h-6.327v-1.329zm11.899-7.534V375h-1.497v-12.364h1.497zm12.806 0V375h-1.449l-6.737-9.707h-.121V375h-1.497v-12.364h1.449l6.761 9.732h.121v-9.732h1.473z" fill="#fff"/><rect x="27" y="392" width="137" height="87" rx="7" fill="#454545"/><path d="M48.75 418.73a2.58 2.58 0 0 1-1.334-.356 2.784 2.784 0 0 1-.966-.966 2.576 2.576 0 0 1-.356-1.334 2.55 2.55 0 0 1 .356-1.334 2.71 2.71 0 0 1 .966-.96 2.54 2.54 0 0 1 1.334-.362c.491 0 .936.12 1.334.362a2.66 2.66 0 0 1 .96.96c.242.398.362.843.362 1.334s-.12.932-.362 1.334a2.733 2.733 0 0 1-.96.966 2.56 2.56 0 0 1-1.334.356zM62.997 421v-12.364h7.462v1.328h-5.965v4.178h5.578v1.328h-5.578v4.202h6.061V421h-7.558zm14-9.273v1.208H72.19v-1.208h4.806zm-3.405-2.221h1.425v8.838c0 .402.058.704.175.905s.273.33.459.399a1.85 1.85 0 0 0 .597.096c.157 0 .286-.008.387-.024l.241-.048.29 1.28a2.915 2.915 0 0 1-.405.108 2.929 2.929 0 0 1-.658.061 2.87 2.87 0 0 1-1.183-.26 2.351 2.351 0 0 1-.954-.791c-.25-.354-.374-.801-.374-1.34v-9.224zm7.172 5.916V421h-1.425v-12.364h1.425v4.54h.12c.218-.479.544-.859.979-1.141s1.022-.428 1.75-.428c.632 0 1.186.126 1.66.38s.844.634 1.105 1.153.399 1.171.399 1.968V421h-1.425v-5.795c0-.737-.191-1.306-.574-1.709s-.903-.61-1.575-.61c-.467 0-.886.099-1.256.296a2.161 2.161 0 0 0-.87.863c-.209.379-.313.838-.313 1.377zm12.507 5.771c-.894 0-1.664-.197-2.312-.591a3.973 3.973 0 0 1-1.491-1.667c-.347-.716-.52-1.549-.52-2.499s.174-1.787.52-2.511.837-1.296 1.46-1.703c.628-.41 1.36-.615 2.198-.615.483 0 .96.08 1.43.241a3.55 3.55 0 0 1 1.287.785c.386.358.694.833.923 1.425s.344 1.32.344 2.185v.604h-7.147v-1.232h5.699c0-.523-.105-.99-.314-1.401a2.37 2.37 0 0 0-.882-.971c-.378-.238-.825-.357-1.34-.357-.568 0-1.059.141-1.473.423a2.78 2.78 0 0 0-.948 1.087 3.187 3.187 0 0 0-.332 1.436v.821c0 .701.12 1.294.362 1.781a2.61 2.61 0 0 0 1.02 1.105c.435.25.94.374 1.516.374.374 0 .712-.052 1.014-.157s.57-.269.79-.483a2.19 2.19 0 0 0 .514-.809l1.377.387a3.048 3.048 0 0 1-.731 1.231 3.546 3.546 0 0 1-1.268.821c-.503.194-1.068.29-1.696.29zm6.007-.193v-9.273h1.376v1.401h.097a2.23 2.23 0 0 1 .917-1.117 2.7 2.7 0 0 1 1.497-.429l.393.006.356.019v1.448a4.23 4.23 0 0 0-.332-.054 3.285 3.285 0 0 0-.537-.042c-.451 0-.854.094-1.208.284s-.628.442-.833.772a2.087 2.087 0 0 0-.302 1.117V421h-1.424zm9.93.193c-.893 0-1.664-.197-2.312-.591a3.971 3.971 0 0 1-1.491-1.667c-.346-.716-.519-1.549-.519-2.499s.173-1.787.519-2.511.837-1.296 1.461-1.703 1.36-.615 2.197-.615c.483 0 .96.08 1.431.241s.9.423 1.286.785.694.833.924 1.425.344 1.32.344 2.185v.604H105.9v-1.232h5.699c0-.523-.105-.99-.314-1.401a2.363 2.363 0 0 0-.881-.971c-.379-.238-.825-.357-1.341-.357-.567 0-1.058.141-1.473.423a2.78 2.78 0 0 0-.947 1.087 3.179 3.179 0 0 0-.332 1.436v.821c0 .701.12 1.294.362 1.781s.585.852 1.02 1.105.94.374 1.515.374c.375 0 .713-.052 1.015-.157s.569-.269.79-.483.393-.487.514-.809l1.376.387a3.04 3.04 0 0 1-.731 1.231 3.543 3.543 0 0 1-1.267.821c-.503.194-1.069.29-1.697.29zm11.851-3.984v-5.482h1.425V421h-1.425v-1.57h-.097a3.038 3.038 0 0 1-1.014 1.202c-.459.326-1.038.489-1.739.489-.579 0-1.094-.127-1.545-.381s-.805-.644-1.063-1.159-.386-1.173-.386-1.962v-5.892h1.425v5.796c0 .676.189 1.215.567 1.618s.87.603 1.461.603c.354 0 .715-.09 1.081-.271s.68-.459.93-.833.38-.852.38-1.431zm4.034 3.791v-9.273h1.376v1.449h.121a2.33 2.33 0 0 1 .936-1.153c.431-.278.948-.416 1.551-.416.612 0 1.121.138 1.528.416s.73.658.96 1.153h.096a2.706 2.706 0 0 1 1.069-1.141c.475-.286 1.044-.428 1.708-.428.829 0 1.507.259 2.035.778s.79 1.318.79 2.409V421h-1.424v-6.206c0-.684-.187-1.173-.562-1.467a2.076 2.076 0 0 0-1.322-.441c-.652 0-1.157.198-1.515.592s-.537.885-.537 1.485V421h-1.449v-6.351c0-.527-.171-.952-.513-1.274s-.783-.489-1.322-.489c-.371 0-.717.099-1.039.296a2.23 2.23 0 0 0-.772.821c-.194.346-.29.747-.29 1.202V421h-1.425zM48.75 439.73a2.58 2.58 0 0 1-1.334-.356 2.784 2.784 0 0 1-.966-.966 2.576 2.576 0 0 1-.356-1.334 2.55 2.55 0 0 1 .356-1.334 2.71 2.71 0 0 1 .966-.96 2.54 2.54 0 0 1 1.334-.362c.491 0 .936.12 1.334.362a2.66 2.66 0 0 1 .96.96c.242.398.362.843.362 1.334s-.12.932-.362 1.334a2.733 2.733 0 0 1-.96.966 2.56 2.56 0 0 1-1.334.356zm21.008-7.003a1.895 1.895 0 0 0-.88-1.424c-.516-.339-1.148-.508-1.897-.508-.547 0-1.026.089-1.436.266a2.294 2.294 0 0 0-.954.731 1.748 1.748 0 0 0-.338 1.056c0 .33.078.614.235.851a2.09 2.09 0 0 0 .616.586 4.37 4.37 0 0 0 .785.38l.755.236 1.255.338c.322.084.68.201 1.075.35a4.95 4.95 0 0 1 1.14.61 3.1 3.1 0 0 1 .906.977c.238.399.356.888.356 1.467 0 .669-.175 1.272-.525 1.812s-.853.967-1.521 1.285-1.471.477-2.42.477c-.886 0-1.653-.143-2.301-.428s-1.151-.684-1.521-1.196a3.408 3.408 0 0 1-.622-1.781h1.545c.04.467.198.854.471 1.16a2.56 2.56 0 0 0 1.05.676 4.25 4.25 0 0 0 1.377.217c.572 0 1.085-.093 1.54-.278s.814-.45 1.08-.784a1.86 1.86 0 0 0 .399-1.184c0-.41-.115-.744-.344-1.002a2.534 2.534 0 0 0-.906-.628 9.404 9.404 0 0 0-1.213-.422l-1.522-.435c-.966-.278-1.73-.674-2.294-1.189s-.845-1.189-.845-2.023c0-.692.187-1.295.561-1.811s.886-.921 1.522-1.207 1.354-.435 2.143-.435c.797 0 1.505.143 2.125.429s1.11.668 1.473 1.159.56 1.048.58 1.672h-1.45zm7.654 9.466c-.837 0-1.572-.199-2.204-.597s-1.118-.956-1.473-1.673c-.35-.716-.525-1.553-.525-2.511 0-.966.175-1.809.525-2.53s.846-1.279 1.473-1.678c.632-.398 1.367-.597 2.204-.597s1.57.199 2.197.597a4 4 0 0 1 1.473 1.678c.355.721.532 1.564.532 2.53 0 .958-.178 1.795-.532 2.511s-.84 1.274-1.473 1.673-1.36.597-2.197.597zm0-1.28c.636 0 1.159-.163 1.57-.489a2.88 2.88 0 0 0 .911-1.286 4.918 4.918 0 0 0 .296-1.726c0-.62-.099-1.197-.296-1.733a2.921 2.921 0 0 0-.912-1.298c-.41-.33-.933-.495-1.57-.495s-1.158.165-1.569.495-.714.763-.911 1.298a4.978 4.978 0 0 0-.296 1.733c0 .62.099 1.195.296 1.726s.5.96.911 1.286.934.489 1.57.489zm7.801-11.277V442h-1.425v-12.364h1.425zM87.823 442v-9.273h1.424V442h-1.424zm.724-10.818a1.01 1.01 0 0 1-.718-.284.91.91 0 0 1-.296-.682.91.91 0 0 1 .296-.682 1.01 1.01 0 0 1 .718-.284.99.99 0 0 1 .712.284.902.902 0 0 1 .302.682.9.9 0 0 1-.302.682.993.993 0 0 1-.712.284zm6.811 11.011c-.773 0-1.455-.195-2.046-.585s-1.055-.95-1.389-1.667-.5-1.571-.5-2.553c0-.974.166-1.819.5-2.536s.799-1.269 1.395-1.66 1.284-.585 2.064-.585c.604 0 1.08.1 1.431.301s.624.423.809.677l.44.615h.121v-4.564h1.425V442h-1.376v-1.425h-.17a9.028 9.028 0 0 1-.446.64c-.193.254-.469.481-.827.682s-.835.296-1.43.296zm.193-1.28c.572 0 1.055-.149 1.45-.446s.693-.719.899-1.25.308-1.153.308-1.853c0-.693-.101-1.298-.302-1.817s-.5-.93-.894-1.22-.881-.441-1.46-.441c-.604 0-1.108.155-1.51.465s-.698.723-.9 1.25c-.197.523-.295 1.111-.295 1.763 0 .66.1 1.259.302 1.799s.507.962.905 1.279c.403.314.902.471 1.497.471zm6.864 1.087v-9.273h1.425V442h-1.425zm.725-10.818c-.278 0-.517-.095-.719-.284a.91.91 0 0 1-.295-.682.91.91 0 0 1 .295-.682c.202-.189.441-.284.719-.284s.515.095.712.284a.903.903 0 0 1 .302.682.903.903 0 0 1-.302.682.993.993 0 0 1-.712.284zm7.342 1.545v1.208h-4.805v-1.208h4.805zm-3.405-2.221h1.425v8.838c0 .402.058.704.175.905s.274.33.459.399a1.85 1.85 0 0 0 .598.096 2.54 2.54 0 0 0 .386-.024l.241-.048.29 1.28a2.883 2.883 0 0 1-.404.108 2.932 2.932 0 0 1-.658.061c-.403 0-.797-.087-1.184-.26a2.348 2.348 0 0 1-.953-.791c-.25-.354-.375-.801-.375-1.34v-9.224zm6.466 14.971c-.242 0-.457-.02-.646-.06a1.69 1.69 0 0 1-.392-.109l.362-1.255c.346.088.652.12.917.096s.501-.143.707-.356.4-.549.573-1.02l.266-.725-3.429-9.321h1.545l2.56 7.389h.097l2.559-7.389h1.546l-3.936 10.625c-.178.479-.397.876-.658 1.19a2.481 2.481 0 0 1-.912.706 2.808 2.808 0 0 1-1.159.229zM48.75 460.73a2.58 2.58 0 0 1-1.334-.356 2.784 2.784 0 0 1-.966-.966 2.576 2.576 0 0 1-.356-1.334 2.55 2.55 0 0 1 .356-1.334 2.71 2.71 0 0 1 .966-.96 2.54 2.54 0 0 1 1.334-.362c.491 0 .936.12 1.334.362a2.66 2.66 0 0 1 .96.96c.242.398.362.843.362 1.334s-.12.932-.362 1.334a2.733 2.733 0 0 1-.96.966 2.56 2.56 0 0 1-1.334.356zM62.997 463v-12.364h1.497v5.506h6.593v-5.506h1.497V463h-1.497v-5.53h-6.593V463h-1.497zm15.12.217c-.588 0-1.121-.11-1.6-.332a2.74 2.74 0 0 1-1.141-.972c-.282-.426-.423-.941-.423-1.545 0-.531.105-.962.314-1.292s.49-.596.84-.785.736-.33 1.158-.422l1.286-.23a59.79 59.79 0 0 1 1.37-.163c.355-.04.612-.106.773-.199s.248-.254.248-.483v-.048c0-.596-.163-1.059-.49-1.389-.321-.33-.81-.495-1.466-.495-.68 0-1.214.149-1.6.447s-.658.616-.815.954l-1.352-.483c.241-.564.563-1.002.966-1.316s.849-.54 1.328-.664a5.504 5.504 0 0 1 1.425-.193 5.68 5.68 0 0 1 1.026.108c.39.069.767.211 1.129.429s.67.545.911.984.363 1.026.363 1.763V463h-1.425v-1.256h-.072a2.489 2.489 0 0 1-.484.646c-.225.23-.525.425-.899.586s-.831.241-1.37.241zm.217-1.279c.563 0 1.038-.111 1.425-.333a2.258 2.258 0 0 0 1.183-1.962v-1.304c-.06.073-.193.139-.398.2a7.009 7.009 0 0 1-.7.151 31.98 31.98 0 0 1-1.365.181c-.37.048-.716.127-1.038.235a1.797 1.797 0 0 0-.773.477c-.193.209-.29.495-.29.857 0 .495.183.87.55 1.123s.838.375 1.406.375zM84.967 463v-9.273h1.377v1.401h.096c.17-.459.475-.831.918-1.117a2.699 2.699 0 0 1 1.497-.429l.392.006.356.019v1.448a4.248 4.248 0 0 0-.332-.054 3.287 3.287 0 0 0-.537-.042c-.45 0-.853.094-1.207.284s-.628.442-.833.772a2.085 2.085 0 0 0-.302 1.117V463h-1.425zm9.544.193c-.772 0-1.454-.195-2.046-.585s-1.055-.95-1.389-1.667-.5-1.571-.5-2.553c0-.974.166-1.819.5-2.536s.8-1.269 1.395-1.66 1.284-.585 2.065-.585c.603 0 1.08.1 1.43.301s.624.423.81.677l.44.615h.12v-4.564h1.425V463h-1.376v-1.425h-.169a9.021 9.021 0 0 1-.447.64c-.193.254-.469.481-.827.682s-.835.296-1.43.296zm.194-1.28c.571 0 1.054-.149 1.448-.446s.695-.719.9-1.25.308-1.153.308-1.853c0-.693-.1-1.298-.302-1.817s-.499-.93-.893-1.22-.882-.441-1.461-.441c-.604 0-1.107.155-1.51.465-.398.306-.698.723-.9 1.25a4.995 4.995 0 0 0-.295 1.763c0 .66.1 1.259.302 1.799s.507.962.905 1.279c.403.314.902.471 1.498.471zm8.288-4.491V463h-1.424v-12.364h1.424v4.54h.121c.217-.479.543-.859.978-1.141s1.022-.428 1.751-.428c.632 0 1.185.126 1.66.38s.843.634 1.105 1.153.398 1.171.398 1.968V463h-1.425v-5.795c0-.737-.191-1.306-.573-1.709s-.904-.61-1.576-.61c-.467 0-.885.099-1.255.296a2.163 2.163 0 0 0-.87.863c-.209.379-.314.838-.314 1.377zm11.348 5.795c-.587 0-1.121-.11-1.6-.332a2.747 2.747 0 0 1-1.141-.972c-.281-.426-.422-.941-.422-1.545 0-.531.105-.962.314-1.292s.489-.596.839-.785.736-.33 1.159-.422l1.286-.23a59.13 59.13 0 0 1 1.37-.163c.354-.04.612-.106.773-.199s.248-.254.248-.483v-.048c0-.596-.163-1.059-.489-1.389s-.811-.495-1.467-.495c-.681 0-1.214.149-1.6.447s-.658.616-.815.954l-1.352-.483c.241-.564.563-1.002.965-1.316s.85-.54 1.329-.664a5.499 5.499 0 0 1 1.424-.193 5.69 5.69 0 0 1 1.027.108 3.28 3.28 0 0 1 1.128.429c.367.217.671.545.912.984s.362 1.026.362 1.763V463h-1.424v-1.256h-.073a2.462 2.462 0 0 1-.483.646c-.225.23-.525.425-.899.586s-.831.241-1.371.241zm.218-1.279c.563 0 1.038-.111 1.424-.333a2.261 2.261 0 0 0 1.184-1.962v-1.304c-.061.073-.194.139-.399.2a7.026 7.026 0 0 1-.7.151 32 32 0 0 1-1.365.181c-.37.048-.716.127-1.038.235a1.802 1.802 0 0 0-.773.477c-.193.209-.289.495-.289.857 0 .495.183.87.549 1.123s.839.375 1.407.375zm10.665-8.211v1.208h-4.805v-1.208h4.805zm-3.404-2.221h1.424v8.838c0 .402.059.704.175.905s.274.33.459.399a1.85 1.85 0 0 0 .598.096 2.53 2.53 0 0 0 .386-.024l.242-.048.289 1.28a2.883 2.883 0 0 1-.404.108 2.926 2.926 0 0 1-.658.061c-.403 0-.797-.087-1.183-.26a2.344 2.344 0 0 1-.954-.791c-.25-.354-.374-.801-.374-1.34v-9.224zM183.312 526h-3.815v-12.364h3.985c1.199 0 2.225.248 3.078.743a4.85 4.85 0 0 1 1.962 2.119c.455.917.683 2.016.683 3.296 0 1.288-.23 2.397-.689 3.326a4.898 4.898 0 0 1-2.004 2.137c-.877.495-1.944.743-3.2.743zm-2.318-1.328h2.222c1.022 0 1.869-.197 2.541-.592a3.642 3.642 0 0 0 1.504-1.684c.33-.729.495-1.596.495-2.602 0-.998-.163-1.857-.489-2.578s-.813-1.28-1.461-1.666-1.455-.586-2.421-.586h-2.391v9.708zM191.642 526h-1.57l4.54-12.364h1.546L200.697 526h-1.569l-3.695-10.408h-.096L191.642 526zm.58-4.83h6.326v1.329h-6.326v-1.329zm8.281-6.206v-1.328h9.272v1.328h-3.887V526h-1.498v-11.036h-3.887zM211.149 526h-1.57l4.54-12.364h1.545l4.54 12.364h-1.569l-3.695-10.408h-.097L211.149 526zm.579-4.83h6.327v1.329h-6.327v-1.329zM222.13 526v-12.364h4.322c.862 0 1.572.149 2.131.447s.976.69 1.25 1.189.411 1.045.411 1.648c0 .532-.095.97-.284 1.317a2.213 2.213 0 0 1-.737.821 3.32 3.32 0 0 1-.984.446v.121c.379.024.759.157 1.141.398s.703.588.96 1.039.387 1.002.387 1.654c0 .62-.141 1.177-.423 1.672s-.726.888-1.334 1.177-1.399.435-2.373.435h-4.467zm1.497-1.328h2.97c.978 0 1.673-.189 2.083-.568s.622-.845.622-1.388c0-.419-.107-.805-.32-1.159a2.31 2.31 0 0 0-.912-.857c-.394-.218-.861-.326-1.4-.326h-3.043v4.298zm0-5.602h2.777c.451 0 .857-.089 1.22-.266a2.13 2.13 0 0 0 .869-.749c.217-.322.326-.7.326-1.135 0-.543-.189-1.004-.568-1.382s-.978-.574-1.799-.574h-2.825v4.106zm10.067 6.93h-1.57l4.54-12.364h1.545l4.54 12.364h-1.569l-3.695-10.408h-.097L233.694 526zm.579-4.83h6.327v1.329h-6.327v-1.329zm17.163-4.443a1.894 1.894 0 0 0-.881-1.424c-.515-.339-1.147-.508-1.896-.508-.547 0-1.026.089-1.437.266a2.292 2.292 0 0 0-.953.731 1.744 1.744 0 0 0-.338 1.056c0 .33.078.614.235.851a2.08 2.08 0 0 0 .616.586 4.34 4.34 0 0 0 .785.38l.754.236 1.256.338a10.74 10.74 0 0 1 1.074.35c.399.149.779.352 1.141.61s.669.579.906.977.356.888.356 1.467c0 .669-.175 1.272-.525 1.812s-.853.967-1.521 1.285-1.471.477-2.421.477c-.886 0-1.652-.143-2.3-.428s-1.151-.684-1.522-1.196-.573-1.104-.621-1.781h1.545c.04.467.197.854.471 1.16s.628.527 1.05.676.886.217 1.377.217c.571 0 1.084-.093 1.539-.278s.815-.45 1.081-.784c.265-.339.398-.733.398-1.184 0-.41-.114-.744-.344-1.002a2.53 2.53 0 0 0-.905-.628 9.43 9.43 0 0 0-1.214-.422l-1.521-.435c-.966-.278-1.731-.674-2.294-1.189s-.845-1.189-.845-2.023c0-.692.187-1.295.561-1.811s.886-.921 1.521-1.207 1.355-.435 2.144-.435c.796 0 1.505.143 2.125.429s1.11.668 1.473 1.159.559 1.048.579 1.672h-1.449zm4.08 9.273v-12.364h7.461v1.328h-5.964v4.178h5.578v1.328h-5.578v4.202h6.061V526h-7.558z" fill="#fff"/><rect x="153" y="544" width="137" height="87" rx="7" fill="#454545"/><path d="M170.75 570.73a2.58 2.58 0 0 1-1.334-.356 2.775 2.775 0 0 1-.966-.966 2.57 2.57 0 0 1-.356-1.334 2.55 2.55 0 0 1 .356-1.334 2.71 2.71 0 0 1 .966-.96 2.537 2.537 0 0 1 1.334-.362c.491 0 .936.12 1.334.362a2.66 2.66 0 0 1 .96.96c.242.398.362.843.362 1.334s-.12.932-.362 1.334a2.725 2.725 0 0 1-.96.966 2.559 2.559 0 0 1-1.334.356zm14.247 2.27v-12.364h4.178c.97 0 1.763.175 2.378.526.62.346 1.079.815 1.377 1.406a4.34 4.34 0 0 1 .446 1.98c0 .729-.148 1.391-.446 1.986s-.749 1.071-1.365 1.425-1.404.525-2.366.525h-2.994v-1.328h2.946c.664 0 1.197-.114 1.599-.344s.695-.539.876-.93.277-.839.277-1.334-.092-.937-.277-1.328a1.979 1.979 0 0 0-.882-.917c-.406-.226-.945-.339-1.618-.339h-2.632V573h-1.497zm14.265.193c-.837 0-1.571-.199-2.203-.597s-1.119-.956-1.473-1.673-.525-1.553-.525-2.511c0-.966.175-1.809.525-2.53s.845-1.279 1.473-1.678 1.366-.597 2.203-.597 1.57.199 2.198.597a4 4 0 0 1 1.473 1.678c.354.721.531 1.564.531 2.53 0 .958-.177 1.795-.531 2.511s-.841 1.274-1.473 1.673-1.36.597-2.198.597zm0-1.28c.636 0 1.16-.163 1.57-.489s.714-.754.912-1.286a4.923 4.923 0 0 0 .295-1.726c0-.62-.098-1.197-.295-1.733a2.925 2.925 0 0 0-.912-1.298c-.41-.33-.934-.495-1.57-.495s-1.159.165-1.569.495-.715.763-.912 1.298a4.982 4.982 0 0 0-.296 1.733c0 .62.099 1.195.296 1.726s.501.96.912 1.286.934.489 1.569.489zm12.945-6.109l-1.28.362a2.38 2.38 0 0 0-.356-.622 1.73 1.73 0 0 0-.628-.507c-.265-.133-.605-.199-1.02-.199-.567 0-1.04.131-1.419.392-.374.258-.561.586-.561.984 0 .355.129.634.386.84s.66.376 1.208.513l1.376.338c.829.201 1.447.509 1.853.923s.61.94.61 1.588c0 .531-.153 1.006-.459 1.425-.301.418-.724.748-1.267.99s-1.176.362-1.896.362c-.946 0-1.729-.205-2.348-.616s-1.013-1.01-1.178-1.799l1.353-.338c.128.499.372.874.73 1.123s.835.375 1.419.375c.664 0 1.191-.141 1.582-.423s.591-.628.591-1.026a1.08 1.08 0 0 0-.338-.809c-.225-.222-.571-.387-1.038-.495l-1.546-.363c-.849-.201-1.473-.513-1.871-.935-.395-.427-.592-.96-.592-1.6 0-.523.147-.986.441-1.389a3 3 0 0 1 1.213-.947c.515-.23 1.099-.344 1.751-.344.918 0 1.638.201 2.161.603s.902.934 1.123 1.594zm6.346-2.077v1.208h-4.805v-1.208h4.805zm-3.404-2.221h1.424v8.838c0 .402.059.704.175.905s.274.33.459.399.389.096.598.096a2.53 2.53 0 0 0 .386-.024l.242-.048.289 1.28a2.883 2.883 0 0 1-.404.108 2.926 2.926 0 0 1-.658.061 2.87 2.87 0 0 1-1.183-.26 2.344 2.344 0 0 1-.954-.791c-.25-.354-.374-.801-.374-1.34v-9.224zm9.191 15.164c-.688 0-1.28-.088-1.775-.265a3.78 3.78 0 0 1-1.238-.688 3.763 3.763 0 0 1-.778-.906l1.135-.797c.128.169.291.362.489.58s.466.412.809.573.798.248 1.358.248c.748 0 1.366-.181 1.853-.544s.731-.929.731-1.702v-1.883h-.121a7.743 7.743 0 0 1-.447.627c-.189.246-.463.465-.821.658s-.833.284-1.437.284c-.748 0-1.42-.177-2.016-.531s-1.06-.869-1.407-1.546-.513-1.497-.513-2.463c0-.949.167-1.777.501-2.481s.799-1.256 1.395-1.642 1.284-.585 2.065-.585c.603 0 1.082.1 1.436.301s.632.423.821.677l.447.615h.145v-1.473h1.376v9.539c0 .796-.181 1.444-.543 1.944a3.088 3.088 0 0 1-1.449 1.104c-.604.238-1.276.356-2.016.356zm-.048-5.095c.571 0 1.054-.131 1.448-.392s.695-.638.9-1.129.308-1.079.308-1.763c0-.668-.101-1.258-.302-1.769s-.499-.911-.894-1.201-.881-.435-1.46-.435c-.604 0-1.107.153-1.51.459a2.797 2.797 0 0 0-.899 1.232 4.761 4.761 0 0 0-.296 1.714c0 .644.101 1.214.302 1.709s.507.877.905 1.159.902.416 1.498.416zm6.664 1.425v-9.273h1.377v1.401h.096c.169-.459.475-.831.918-1.117a2.7 2.7 0 0 1 1.497-.429l.393.006.356.019v1.448a4.32 4.32 0 0 0-.332-.054 3.288 3.288 0 0 0-.538-.042c-.45 0-.853.094-1.207.284s-.628.442-.833.772a2.087 2.087 0 0 0-.302 1.117V573h-1.425zm9.931.193c-.893 0-1.664-.197-2.312-.591a3.971 3.971 0 0 1-1.491-1.667c-.346-.716-.519-1.549-.519-2.499s.173-1.787.519-2.511c.35-.729.837-1.296 1.461-1.703s1.36-.615 2.197-.615c.483 0 .96.08 1.431.241s.899.423 1.286.785.694.833.923 1.425.345 1.32.345 2.185v.604h-7.148v-1.232h5.699c0-.523-.105-.99-.314-1.401a2.359 2.359 0 0 0-.882-.971c-.378-.238-.825-.357-1.34-.357-.567 0-1.058.141-1.473.423a2.79 2.79 0 0 0-.948 1.087 3.192 3.192 0 0 0-.332 1.436v.821c0 .701.121 1.294.363 1.781s.585.852 1.02 1.105.94.374 1.515.374c.374 0 .712-.052 1.014-.157a2.15 2.15 0 0 0 .791-.483c.221-.217.393-.487.513-.809l1.377.387a3.051 3.051 0 0 1-.731 1.231 3.539 3.539 0 0 1-1.268.821c-.503.194-1.068.29-1.696.29zm12.961-9.466a1.894 1.894 0 0 0-.881-1.424c-.515-.339-1.147-.508-1.896-.508-.547 0-1.026.089-1.436.266a2.289 2.289 0 0 0-.954.731 1.744 1.744 0 0 0-.338 1.056c0 .33.078.614.235.851a2.08 2.08 0 0 0 .616.586 4.34 4.34 0 0 0 .785.38l.754.236 1.256.338c.322.084.68.201 1.075.35s.778.352 1.141.61.668.579.905.977.356.888.356 1.467c0 .669-.175 1.272-.525 1.812s-.853.967-1.521 1.285-1.471.477-2.421.477c-.885 0-1.652-.143-2.3-.428s-1.151-.684-1.521-1.196-.574-1.104-.622-1.781h1.545c.04.467.197.854.471 1.16a2.56 2.56 0 0 0 1.051.676c.426.145.885.217 1.376.217a4.05 4.05 0 0 0 1.539-.278c.455-.189.815-.45 1.081-.784a1.86 1.86 0 0 0 .398-1.184c0-.41-.114-.744-.344-1.002a2.53 2.53 0 0 0-.905-.628 9.43 9.43 0 0 0-1.214-.422l-1.521-.435c-.966-.278-1.731-.674-2.294-1.189s-.845-1.189-.845-2.023c0-.692.187-1.295.561-1.811s.886-.921 1.522-1.207 1.354-.435 2.143-.435c.797 0 1.505.143 2.125.429s1.11.668 1.473 1.159.559 1.048.579 1.672h-1.449zm8.571 5.409h1.642l1.377 1.811.362.483 2.053 2.729h-1.643l-1.352-1.811-.338-.459-2.101-2.753zm5.941-2.318c0 1.304-.236 2.431-.707 3.381s-1.117 1.682-1.938 2.197-1.758.773-2.813.773-1.992-.258-2.813-.773-1.467-1.247-1.938-2.197-.706-2.077-.706-3.381.235-2.431.706-3.38 1.117-1.683 1.938-2.198 1.759-.773 2.813-.773 1.992.258 2.813.773 1.467 1.248 1.938 2.198.707 2.076.707 3.38zm-1.449 0c0-1.07-.179-1.974-.538-2.71-.354-.737-.835-1.294-1.442-1.673a3.745 3.745 0 0 0-2.029-.567c-.748 0-1.426.189-2.034.567s-1.085.936-1.443 1.673-.531 1.64-.531 2.71.177 1.974.531 2.711.839 1.294 1.443 1.672a3.775 3.775 0 0 0 2.034.567c.749 0 1.425-.189 2.029-.567s1.088-.936 1.442-1.672.538-1.64.538-2.711zm3.966 6.182v-12.364h1.497v11.036h5.747V573h-7.244zM170.75 591.73a2.58 2.58 0 0 1-1.334-.356 2.775 2.775 0 0 1-.966-.966 2.57 2.57 0 0 1-.356-1.334 2.55 2.55 0 0 1 .356-1.334 2.71 2.71 0 0 1 .966-.96 2.537 2.537 0 0 1 1.334-.362c.491 0 .936.12 1.334.362a2.66 2.66 0 0 1 .96.96c.242.398.362.843.362 1.334s-.12.932-.362 1.334a2.725 2.725 0 0 1-.96.966 2.559 2.559 0 0 1-1.334.356zm14.247-10.094h1.787l4.202 10.263h.145l4.201-10.263h1.787V594h-1.4v-9.393h-.121L191.734 594h-1.352l-3.864-9.393h-.12V594h-1.401v-12.364zm18.698 12.557c-.837 0-1.572-.199-2.203-.597s-1.119-.956-1.473-1.673-.526-1.553-.526-2.511c0-.966.175-1.809.526-2.53s.845-1.279 1.473-1.678 1.366-.597 2.203-.597 1.57.199 2.197.597 1.123.958 1.474 1.678.531 1.564.531 2.53c0 .958-.177 1.795-.531 2.511s-.842 1.274-1.474 1.673-1.36.597-2.197.597zm0-1.28c.636 0 1.159-.163 1.57-.489a2.88 2.88 0 0 0 .911-1.286 4.923 4.923 0 0 0 .296-1.726c0-.62-.099-1.197-.296-1.733a2.923 2.923 0 0 0-.911-1.298c-.411-.33-.934-.495-1.57-.495s-1.159.165-1.57.495-.714.763-.911 1.298a4.982 4.982 0 0 0-.296 1.733c0 .62.099 1.195.296 1.726a2.88 2.88 0 0 0 .911 1.286c.411.326.934.489 1.57.489zm7.801-4.491V594h-1.424v-9.273h1.376v1.449h.121c.217-.471.547-.849.99-1.135s1.014-.434 1.714-.434c.628 0 1.177.128 1.648.386s.837.64 1.099 1.159.392 1.167.392 1.956V594h-1.424v-5.795c0-.729-.189-1.296-.568-1.703s-.897-.616-1.557-.616a2.49 2.49 0 0 0-1.22.296 2.116 2.116 0 0 0-.839.863c-.205.379-.308.838-.308 1.377zm12.263 9.248c-.688 0-1.28-.088-1.775-.265a3.78 3.78 0 0 1-1.238-.688 3.763 3.763 0 0 1-.778-.906l1.135-.797c.128.169.291.362.489.58s.466.412.808.573c.347.165.799.248 1.359.248.748 0 1.366-.181 1.853-.544s.731-.929.731-1.702v-1.883h-.121a7.743 7.743 0 0 1-.447.627c-.189.246-.463.465-.821.658s-.833.284-1.437.284c-.748 0-1.42-.177-2.016-.531s-1.061-.869-1.407-1.546-.513-1.497-.513-2.463c0-.949.167-1.777.501-2.481s.799-1.256 1.395-1.642 1.284-.585 2.064-.585c.604 0 1.083.1 1.437.301s.632.423.821.677l.447.615h.145v-1.473h1.376v9.539c0 .796-.181 1.444-.543 1.944a3.088 3.088 0 0 1-1.449 1.104c-.604.238-1.276.356-2.016.356zm-.049-5.095c.572 0 1.055-.131 1.449-.392s.695-.638.9-1.129.308-1.079.308-1.763c0-.668-.101-1.258-.302-1.769s-.499-.911-.894-1.201-.881-.435-1.461-.435c-.603 0-1.106.153-1.509.459a2.797 2.797 0 0 0-.899 1.232 4.761 4.761 0 0 0-.296 1.714c0 .644.101 1.214.302 1.709s.507.877.905 1.159.902.416 1.497.416zm10.432 1.618c-.837 0-1.571-.199-2.203-.597s-1.119-.956-1.473-1.673-.525-1.553-.525-2.511c0-.966.175-1.809.525-2.53s.845-1.279 1.473-1.678 1.366-.597 2.203-.597 1.57.199 2.198.597a4 4 0 0 1 1.473 1.678c.354.721.531 1.564.531 2.53 0 .958-.177 1.795-.531 2.511s-.841 1.274-1.473 1.673-1.361.597-2.198.597zm0-1.28c.636 0 1.159-.163 1.57-.489a2.88 2.88 0 0 0 .911-1.286 4.9 4.9 0 0 0 .296-1.726 4.96 4.96 0 0 0-.296-1.733 2.923 2.923 0 0 0-.911-1.298c-.411-.33-.934-.495-1.57-.495s-1.159.165-1.569.495-.715.763-.912 1.298a4.982 4.982 0 0 0-.296 1.733c0 .62.099 1.195.296 1.726s.501.96.912 1.286.933.489 1.569.489zM244.527 594h-3.815v-12.364h3.984c1.2 0 2.226.248 3.079.743s1.507 1.197 1.962 2.119.682 2.016.682 3.296c0 1.288-.229 2.397-.688 3.326a4.904 4.904 0 0 1-2.004 2.137c-.877.495-1.944.743-3.2.743zm-2.318-1.328h2.222c1.022 0 1.869-.197 2.541-.592a3.646 3.646 0 0 0 1.503-1.684c.331-.729.496-1.596.496-2.602 0-.998-.163-1.857-.489-2.578s-.813-1.28-1.461-1.666-1.455-.586-2.421-.586h-2.391v9.708zM252.931 594v-12.364h4.322c.861 0 1.572.149 2.131.447s.976.69 1.25 1.189.41 1.045.41 1.648c0 .532-.094.97-.283 1.317a2.213 2.213 0 0 1-.737.821c-.302.201-.63.35-.984.446v.121c.378.024.759.157 1.141.398s.702.588.96 1.039.386 1.002.386 1.654c0 .62-.141 1.177-.422 1.672s-.727.888-1.334 1.177-1.399.435-2.373.435h-4.467zm1.497-1.328h2.97c.978 0 1.672-.189 2.083-.568a1.82 1.82 0 0 0 .622-1.388c0-.419-.107-.805-.32-1.159a2.316 2.316 0 0 0-.912-.857c-.394-.218-.861-.326-1.4-.326h-3.043v4.298zm0-5.602h2.777c.451 0 .857-.089 1.219-.266.367-.177.656-.427.87-.749s.326-.7.326-1.135c0-.543-.189-1.004-.568-1.382s-.978-.574-1.799-.574h-2.825v4.106zm-83.678 25.66a2.58 2.58 0 0 1-1.334-.356 2.775 2.775 0 0 1-.966-.966 2.57 2.57 0 0 1-.356-1.334 2.55 2.55 0 0 1 .356-1.334 2.71 2.71 0 0 1 .966-.96 2.537 2.537 0 0 1 1.334-.362c.491 0 .936.12 1.334.362a2.66 2.66 0 0 1 .96.96c.242.398.362.843.362 1.334s-.12.932-.362 1.334a2.725 2.725 0 0 1-.96.966 2.559 2.559 0 0 1-1.334.356zm14.247 2.27v-12.364h7.414v1.328h-5.917v4.178h5.361v1.328h-5.361V615h-1.497zm9.785 0v-9.273h1.424V615h-1.424zm.724-10.818a1.01 1.01 0 0 1-.718-.284.908.908 0 0 1-.296-.682c0-.266.098-.493.296-.682a1.01 1.01 0 0 1 .718-.284.99.99 0 0 1 .712.284.9.9 0 0 1 .302.682.9.9 0 0 1-.302.682.991.991 0 0 1-.712.284zm3.31 10.818v-9.273h1.376v1.401h.097a2.23 2.23 0 0 1 .917-1.117 2.7 2.7 0 0 1 1.497-.429l.393.006.356.019v1.448a4.23 4.23 0 0 0-.332-.054 3.285 3.285 0 0 0-.537-.042c-.451 0-.853.094-1.208.284s-.627.442-.833.772a2.087 2.087 0 0 0-.302 1.117V615h-1.424zm9.93.193c-.893 0-1.664-.197-2.312-.591a3.971 3.971 0 0 1-1.491-1.667c-.346-.716-.519-1.549-.519-2.499s.173-1.787.519-2.511c.35-.729.837-1.296 1.461-1.703s1.36-.615 2.198-.615a4.39 4.39 0 0 1 1.43.241c.471.161.9.423 1.286.785s.694.833.924 1.425.344 1.32.344 2.185v.604h-7.148v-1.232h5.699c0-.523-.105-.99-.314-1.401a2.363 2.363 0 0 0-.881-.971c-.379-.238-.825-.357-1.34-.357-.568 0-1.059.141-1.473.423s-.727.64-.948 1.087a3.179 3.179 0 0 0-.332 1.436v.821c0 .701.12 1.294.362 1.781a2.61 2.61 0 0 0 1.02 1.105c.435.25.94.374 1.515.374.375 0 .713-.052 1.015-.157s.569-.269.79-.483.393-.487.514-.809l1.376.387a3.05 3.05 0 0 1-.73 1.231 3.556 3.556 0 0 1-1.268.821c-.503.194-1.069.29-1.697.29zm6.2-.193v-12.364h1.425v4.564h.121l.434-.615c.19-.254.459-.479.809-.677s.834-.301 1.437-.301c.781 0 1.469.195 2.065.585s1.06.944 1.394 1.66.501 1.562.501 2.536c0 .982-.167 1.833-.501 2.553s-.796 1.272-1.388 1.667-1.274.585-2.047.585c-.595 0-1.072-.098-1.43-.296s-.634-.428-.827-.682a8.564 8.564 0 0 1-.447-.64h-.169V615h-1.377zm1.401-4.636c0 .7.103 1.318.308 1.853s.505.948.899 1.25.878.446 1.449.446c.596 0 1.093-.157 1.491-.471s.705-.744.906-1.279a5.03 5.03 0 0 0 .308-1.799c0-.652-.101-1.24-.302-1.763s-.497-.944-.9-1.25-.899-.465-1.503-.465c-.579 0-1.066.147-1.461.441s-.692.696-.893 1.22-.302 1.124-.302 1.817zm11.693 4.853c-.587 0-1.12-.11-1.599-.332a2.735 2.735 0 0 1-1.141-.972c-.282-.426-.423-.941-.423-1.545 0-.531.105-.962.314-1.292s.489-.596.839-.785a4.4 4.4 0 0 1 1.159-.422l1.286-.23 1.371-.163c.354-.04.611-.106.772-.199s.248-.254.248-.483v-.048c0-.596-.163-1.059-.489-1.389s-.811-.495-1.467-.495c-.68 0-1.214.149-1.6.447s-.658.616-.815.954l-1.352-.483c.241-.564.563-1.002.966-1.316s.849-.54 1.328-.664a5.506 5.506 0 0 1 1.425-.193 5.69 5.69 0 0 1 1.026.108c.39.069.766.211 1.129.429s.67.545.911.984.362 1.026.362 1.763V615h-1.424v-1.256h-.073a2.462 2.462 0 0 1-.483.646c-.225.23-.525.425-.899.586s-.831.241-1.371.241zm.218-1.279c.563 0 1.038-.111 1.425-.333a2.259 2.259 0 0 0 1.183-1.962v-1.304c-.061.073-.193.139-.399.2a6.965 6.965 0 0 1-.7.151 32 32 0 0 1-1.364.181 5.465 5.465 0 0 0-1.039.235 1.792 1.792 0 0 0-.772.477c-.194.209-.29.495-.29.857 0 .495.183.87.549 1.123s.839.375 1.407.375zm13.201-6.134l-1.28.362a2.38 2.38 0 0 0-.356-.622 1.73 1.73 0 0 0-.628-.507c-.265-.133-.605-.199-1.02-.199-.567 0-1.04.131-1.419.392-.374.258-.561.586-.561.984 0 .355.129.634.386.84s.66.376 1.208.513l1.376.338c.829.201 1.447.509 1.853.923s.61.94.61 1.588c0 .531-.153 1.006-.459 1.425s-.724.748-1.267.99-1.176.362-1.896.362c-.946 0-1.729-.205-2.348-.616s-1.013-1.01-1.178-1.799l1.353-.338c.128.499.372.874.73 1.123s.835.375 1.419.375c.664 0 1.191-.141 1.581-.423.395-.286.592-.628.592-1.026a1.08 1.08 0 0 0-.338-.809c-.225-.222-.571-.387-1.038-.495l-1.546-.363c-.849-.201-1.473-.513-1.871-.935-.395-.427-.592-.96-.592-1.6 0-.523.147-.986.441-1.389a3 3 0 0 1 1.213-.947c.515-.23 1.099-.344 1.751-.344.918 0 1.638.201 2.161.603s.902.934 1.123 1.594zm6.202 7.389c-.894 0-1.665-.197-2.313-.591a3.971 3.971 0 0 1-1.491-1.667c-.346-.716-.519-1.549-.519-2.499s.173-1.787.519-2.511c.35-.729.837-1.296 1.461-1.703s1.361-.615 2.198-.615a4.39 4.39 0 0 1 1.43.241c.471.161.9.423 1.286.785s.694.833.924 1.425.344 1.32.344 2.185v.604h-7.148v-1.232h5.699c0-.523-.105-.99-.314-1.401a2.363 2.363 0 0 0-.881-.971c-.378-.238-.825-.357-1.34-.357-.568 0-1.059.141-1.473.423s-.727.64-.948 1.087a3.179 3.179 0 0 0-.332 1.436v.821c0 .701.121 1.294.362 1.781.246.483.586.852 1.02 1.105s.94.374 1.516.374c.374 0 .712-.052 1.014-.157s.569-.269.791-.483a2.2 2.2 0 0 0 .513-.809l1.376.387a3.05 3.05 0 0 1-.73 1.231 3.547 3.547 0 0 1-1.268.821c-.503.194-1.069.29-1.696.29zm8.16-469.229v-1.328h9.273v1.328h-3.888V157h-1.497v-11.036h-3.888zM267.404 157v-12.364h7.462v1.328h-5.964v4.178h5.578v1.328h-5.578v4.202h6.061V157h-7.559zm20.109-8.5h-1.497a3.09 3.09 0 0 0-.465-1.135 3.096 3.096 0 0 0-.796-.821 3.395 3.395 0 0 0-1.033-.507 4.111 4.111 0 0 0-1.183-.169 3.77 3.77 0 0 0-2.034.567c-.604.379-1.085.936-1.443 1.673s-.532 1.64-.532 2.71.178 1.974.532 2.711.839 1.294 1.443 1.672a3.77 3.77 0 0 0 2.034.567 4.11 4.11 0 0 0 1.183-.169 3.428 3.428 0 0 0 1.033-.501 3.148 3.148 0 0 0 1.261-1.962h1.497a4.991 4.991 0 0 1-.615 1.697 4.65 4.65 0 0 1-1.111 1.274 4.87 4.87 0 0 1-1.491.79 5.565 5.565 0 0 1-1.757.272c-1.054 0-1.992-.258-2.813-.773s-1.467-1.247-1.938-2.197-.706-2.077-.706-3.381.235-2.431.706-3.38 1.117-1.683 1.938-2.198 1.759-.773 2.813-.773c.624 0 1.209.091 1.757.272a4.802 4.802 0 0 1 1.491.797c.443.346.813.769 1.111 1.268s.503 1.06.615 1.696zm2.42 8.5v-12.364h1.497v5.506h6.592v-5.506h1.497V157h-1.497v-5.53h-6.592V157h-1.497zm22.388-12.364V157h-1.449l-6.737-9.707h-.121V157h-1.497v-12.364h1.449l6.761 9.732h.121v-9.732h1.473zm13.427 6.182c0 1.304-.235 2.431-.706 3.381s-1.117 1.682-1.938 2.197-1.759.773-2.813.773-1.992-.258-2.813-.773-1.467-1.247-1.938-2.197-.706-2.077-.706-3.381.235-2.431.706-3.38 1.117-1.683 1.938-2.198 1.758-.773 2.813-.773 1.992.258 2.813.773 1.467 1.248 1.938 2.198.706 2.076.706 3.38zm-1.449 0c0-1.07-.179-1.974-.537-2.71s-.835-1.294-1.443-1.673a3.74 3.74 0 0 0-2.028-.567c-.749 0-1.427.189-2.035.567s-1.084.936-1.442 1.673-.532 1.64-.532 2.71.177 1.974.532 2.711.839 1.294 1.442 1.672a3.776 3.776 0 0 0 2.035.567 3.74 3.74 0 0 0 2.028-.567c.608-.378 1.089-.936 1.443-1.672s.537-1.64.537-2.711zm3.967 6.182v-12.364h1.497v11.036h5.747V157h-7.244zm19.513-6.182c0 1.304-.236 2.431-.707 3.381s-1.117 1.682-1.938 2.197-1.758.773-2.813.773-1.992-.258-2.813-.773-1.467-1.247-1.938-2.197-.706-2.077-.706-3.381.235-2.431.706-3.38 1.117-1.683 1.938-2.198 1.759-.773 2.813-.773 1.992.258 2.813.773 1.467 1.248 1.938 2.198.707 2.076.707 3.38zm-1.449 0c0-1.07-.179-1.974-.538-2.71-.354-.737-.835-1.294-1.442-1.673a3.745 3.745 0 0 0-2.029-.567c-.748 0-1.427.189-2.034.567s-1.085.936-1.443 1.673-.531 1.64-.531 2.71.177 1.974.531 2.711.839 1.294 1.443 1.672a3.772 3.772 0 0 0 2.034.567c.749 0 1.425-.189 2.029-.567s1.088-.936 1.442-1.672.538-1.64.538-2.711zm12.418-2.318a4.358 4.358 0 0 0-.526-1.093 3.37 3.37 0 0 0-.766-.833 3.236 3.236 0 0 0-1.002-.525 3.99 3.99 0 0 0-1.232-.181c-.732 0-1.398.189-1.998.567s-1.077.936-1.431 1.673-.531 1.64-.531 2.71.179 1.974.537 2.711.843 1.294 1.455 1.672 1.3.567 2.065.567c.708 0 1.332-.15 1.871-.452a3.218 3.218 0 0 0 1.268-1.292c.306-.56.459-1.218.459-1.974l.459.096h-3.719v-1.328h4.709v1.328c0 1.019-.218 1.904-.652 2.657a4.51 4.51 0 0 1-1.787 1.75c-.757.411-1.626.616-2.608.616-1.095 0-2.057-.258-2.886-.773s-1.469-1.247-1.932-2.197-.688-2.077-.688-3.381c0-.978.131-1.857.392-2.638s.64-1.453 1.123-2.004a4.908 4.908 0 0 1 1.715-1.268 5.294 5.294 0 0 1 2.179-.441c.652 0 1.26.099 1.823.296a4.893 4.893 0 0 1 2.632 2.101c.298.491.503 1.036.616 1.636h-1.545zm5.679-3.864V157h-1.497v-12.364h1.497zM367.429 157v-12.364h7.461v1.328h-5.964v4.178h5.578v1.328h-5.578v4.202h6.061V157h-7.558zm16.921-9.273a1.894 1.894 0 0 0-.881-1.424c-.515-.339-1.147-.508-1.896-.508-.547 0-1.026.089-1.436.266a2.289 2.289 0 0 0-.954.731 1.744 1.744 0 0 0-.338 1.056c0 .33.078.614.235.851a2.08 2.08 0 0 0 .616.586 4.34 4.34 0 0 0 .785.38l.754.236 1.256.338c.322.084.68.201 1.075.35a4.95 4.95 0 0 1 1.14.61c.367.253.669.579.906.977s.356.888.356 1.467c0 .669-.175 1.272-.525 1.812s-.853.967-1.521 1.285-1.471.477-2.421.477c-.886 0-1.652-.143-2.3-.428s-1.151-.684-1.521-1.196-.574-1.104-.622-1.781h1.545c.04.467.197.854.471 1.16s.628.527 1.05.676.886.217 1.377.217a4.05 4.05 0 0 0 1.539-.278c.455-.189.815-.45 1.081-.784a1.86 1.86 0 0 0 .398-1.184c0-.41-.114-.744-.344-1.002a2.53 2.53 0 0 0-.905-.628 9.43 9.43 0 0 0-1.214-.422l-1.521-.435c-.966-.278-1.731-.674-2.294-1.189s-.845-1.189-.845-2.023c0-.692.187-1.295.561-1.811.379-.519.886-.921 1.522-1.207s1.354-.435 2.143-.435c.797 0 1.505.143 2.125.429s1.11.668 1.473 1.159.559 1.048.579 1.672h-1.449z" fill="#fff"/><g fill="#454545"><rect x="252" y="174" width="149" height="110" rx="7"/><rect x="252" y="305" width="149" height="110" rx="7"/></g><path d="M273.75 200.73a2.58 2.58 0 0 1-1.334-.356 2.775 2.775 0 0 1-.966-.966 2.57 2.57 0 0 1-.356-1.334 2.55 2.55 0 0 1 .356-1.334 2.71 2.71 0 0 1 .966-.96 2.537 2.537 0 0 1 1.334-.362c.491 0 .936.12 1.334.362a2.66 2.66 0 0 1 .96.96c.242.398.362.843.362 1.334s-.12.932-.362 1.334a2.725 2.725 0 0 1-.96.966 2.559 2.559 0 0 1-1.334.356zm14.247 2.27v-12.364h4.178c.966 0 1.758.165 2.378.495s1.079.775 1.377 1.347.446 1.221.446 1.95-.148 1.374-.446 1.937-.755 1.007-1.371 1.329-1.402.476-2.36.476h-3.381v-1.352h3.333c.66 0 1.191-.096 1.593-.29s.701-.466.882-.821.277-.784.277-1.279-.092-.928-.277-1.298-.481-.656-.888-.858-.943-.308-1.612-.308h-2.632V203h-1.497zm5.82-5.554l3.042 5.554h-1.738l-2.995-5.554h1.691zm8.649 5.747c-.893 0-1.664-.197-2.312-.591a3.971 3.971 0 0 1-1.491-1.667c-.346-.716-.519-1.549-.519-2.499s.173-1.787.519-2.511c.35-.729.837-1.296 1.461-1.703s1.36-.615 2.197-.615c.483 0 .96.08 1.431.241s.9.423 1.286.785.694.833.924 1.425.344 1.32.344 2.185v.604h-7.148v-1.232h5.699c0-.523-.105-.99-.314-1.401a2.359 2.359 0 0 0-.882-.971c-.378-.238-.825-.357-1.34-.357-.567 0-1.058.141-1.473.423a2.79 2.79 0 0 0-.948 1.087 3.192 3.192 0 0 0-.332 1.436v.821c0 .701.121 1.294.363 1.781s.585.852 1.02 1.105.94.374 1.515.374a3.07 3.07 0 0 0 1.014-.157 2.15 2.15 0 0 0 .791-.483c.222-.217.393-.487.513-.809l1.377.387a3.051 3.051 0 0 1-.731 1.231 3.543 3.543 0 0 1-1.267.821c-.504.194-1.069.29-1.697.29zm8.736.024c-.588 0-1.121-.11-1.6-.332a2.741 2.741 0 0 1-1.141-.972c-.282-.426-.423-.941-.423-1.545 0-.531.105-.962.314-1.292s.489-.596.839-.785a4.4 4.4 0 0 1 1.159-.422l1.286-.23a59.772 59.772 0 0 1 1.371-.163c.354-.04.611-.106.772-.199s.248-.254.248-.483v-.048c0-.596-.163-1.059-.489-1.389s-.811-.495-1.467-.495c-.68 0-1.213.149-1.6.447s-.658.616-.815.954l-1.352-.483c.241-.564.563-1.002.966-1.316s.849-.54 1.328-.664a5.506 5.506 0 0 1 1.425-.193 5.68 5.68 0 0 1 1.026.108c.39.069.767.211 1.129.429s.67.545.911.984.363 1.026.363 1.763V203h-1.425v-1.256h-.073a2.478 2.478 0 0 1-.482.646c-.226.23-.526.425-.9.586s-.831.241-1.37.241zm.217-1.279c.563 0 1.038-.111 1.425-.333a2.259 2.259 0 0 0 1.183-1.962v-1.304c-.06.073-.193.139-.399.2a6.965 6.965 0 0 1-.7.151 31.303 31.303 0 0 1-1.364.181c-.37.048-.717.127-1.039.235a1.798 1.798 0 0 0-.772.477c-.193.209-.29.495-.29.857 0 .495.183.87.549 1.123s.839.375 1.407.375zm10.4 1.255c-.869 0-1.618-.205-2.246-.616s-1.11-.976-1.449-1.696-.507-1.543-.507-2.469c0-.942.173-1.773.52-2.493s.837-1.29 1.46-1.697 1.361-.615 2.198-.615c.652 0 1.24.12 1.763.362a3.37 3.37 0 0 1 1.286 1.014 3.16 3.16 0 0 1 .621 1.521h-1.424c-.109-.422-.35-.797-.725-1.123s-.869-.495-1.497-.495c-.555 0-1.042.145-1.461.435-.414.286-.738.69-.972 1.213s-.344 1.129-.344 1.83c0 .716.113 1.34.338 1.871s.552.944.966 1.238.91.44 1.473.44a2.54 2.54 0 0 0 1.008-.193c.302-.129.558-.314.767-.555s.358-.531.447-.87h1.424a3.295 3.295 0 0 1-.597 1.48c-.314.434-.731.78-1.25 1.038-.515.253-1.115.38-1.799.38zm9.762-9.466v1.208h-4.806v-1.208h4.806zm-3.405-2.221h1.425v8.838c0 .402.058.704.175.905s.273.33.459.399a1.85 1.85 0 0 0 .597.096c.157 0 .286-.008.387-.024l.241-.048.29 1.28a2.943 2.943 0 0 1-.405.108 2.926 2.926 0 0 1-.658.061 2.87 2.87 0 0 1-1.183-.26 2.357 2.357 0 0 1-.954-.791c-.249-.354-.374-.801-.374-1.34v-9.224zm10.474-.87h1.497v8.838c0 .789-.145 1.459-.434 2.011s-.699.97-1.226 1.255-1.149.429-1.865.429c-.677 0-1.278-.123-1.805-.368a2.976 2.976 0 0 1-1.244-1.063c-.302-.459-.453-1.004-.453-1.636h1.473c0 .35.087.656.26.918s.418.459.724.604.654.217 1.045.217c.43 0 .797-.091 1.098-.272s.532-.446.689-.797.241-.786.241-1.298v-8.838zm11.259 3.091a1.896 1.896 0 0 0-.881-1.424c-.516-.339-1.147-.508-1.896-.508-.547 0-1.026.089-1.437.266a2.302 2.302 0 0 0-.954.731 1.751 1.751 0 0 0-.338 1.056c0 .33.079.614.236.851s.366.429.615.586.512.28.785.38l.755.236 1.256.338a10.74 10.74 0 0 1 1.074.35c.399.149.779.352 1.141.61a3.11 3.11 0 0 1 .906.977c.237.399.356.888.356 1.467 0 .669-.175 1.272-.525 1.812s-.854.967-1.522 1.285-1.471.477-2.421.477c-.885 0-1.652-.143-2.3-.428s-1.151-.684-1.521-1.196-.573-1.104-.622-1.781h1.546c.04.467.197.854.471 1.16a2.55 2.55 0 0 0 1.05.676 4.25 4.25 0 0 0 1.376.217c.572 0 1.085-.093 1.54-.278s.815-.45 1.081-.784.398-.733.398-1.184c0-.41-.115-.744-.344-1.002a2.534 2.534 0 0 0-.906-.628 9.36 9.36 0 0 0-1.213-.422l-1.521-.435c-.966-.278-1.731-.674-2.294-1.189s-.846-1.189-.846-2.023c0-.692.188-1.295.562-1.811s.885-.921 1.521-1.207 1.354-.435 2.143-.435c.797 0 1.505.143 2.125.429s1.111.668 1.473 1.159.56 1.048.58 1.672h-1.449zM273.75 221.73a2.58 2.58 0 0 1-1.334-.356 2.775 2.775 0 0 1-.966-.966 2.57 2.57 0 0 1-.356-1.334 2.55 2.55 0 0 1 .356-1.334 2.71 2.71 0 0 1 .966-.96 2.537 2.537 0 0 1 1.334-.362c.491 0 .936.12 1.334.362a2.66 2.66 0 0 1 .96.96c.242.398.362.843.362 1.334s-.12.932-.362 1.334a2.725 2.725 0 0 1-.96.966 2.559 2.559 0 0 1-1.334.356zm24.051-10.094V224h-1.449l-6.737-9.707h-.121V224h-1.497v-12.364h1.449l6.761 9.732h.121v-9.732h1.473zm6.691 12.557c-.894 0-1.665-.197-2.313-.591a3.971 3.971 0 0 1-1.491-1.667c-.346-.716-.519-1.549-.519-2.499s.173-1.787.519-2.511c.35-.729.837-1.296 1.461-1.703s1.361-.615 2.198-.615c.483 0 .96.08 1.43.241s.9.423 1.286.785.695.833.924 1.425.344 1.32.344 2.185v.604h-7.148v-1.232h5.699c0-.523-.104-.99-.314-1.401a2.363 2.363 0 0 0-.881-.971c-.378-.238-.825-.357-1.34-.357-.568 0-1.059.141-1.473.423s-.727.64-.948 1.087a3.192 3.192 0 0 0-.332 1.436v.821c0 .701.121 1.294.362 1.781s.586.852 1.02 1.105.94.374 1.516.374c.374 0 .712-.052 1.014-.157s.569-.269.791-.483a2.2 2.2 0 0 0 .513-.809l1.376.387a3.05 3.05 0 0 1-.73 1.231 3.547 3.547 0 0 1-1.268.821c-.503.194-1.069.29-1.696.29zm6.82-9.466l2.221 3.791 2.222-3.791h1.642l-2.994 4.637 2.994 4.636h-1.642l-2.222-3.598-2.221 3.598h-1.642l2.946-4.636-2.946-4.637h1.642zm12.151 0v1.208h-4.806v-1.208h4.806zm-3.405-2.221h1.425v8.838c0 .402.058.704.175.905s.273.33.458.399a1.86 1.86 0 0 0 .598.096 2.53 2.53 0 0 0 .386-.024l.242-.048.29 1.28a2.943 2.943 0 0 1-.405.108 2.926 2.926 0 0 1-.658.061 2.87 2.87 0 0 1-1.183-.26 2.357 2.357 0 0 1-.954-.791c-.249-.354-.374-.801-.374-1.34v-9.224zm10.474-.87h1.497v8.838c0 .789-.145 1.459-.435 2.011s-.698.97-1.225 1.255-1.149.429-1.866.429c-.676 0-1.277-.123-1.805-.368a2.98 2.98 0 0 1-1.243-1.063c-.302-.459-.453-1.004-.453-1.636h1.473c0 .35.087.656.26.918s.418.459.724.604.654.217 1.044.217c.431 0 .797-.091 1.099-.272s.531-.446.688-.797.242-.786.242-1.298v-8.838zm11.259 3.091a1.895 1.895 0 0 0-.882-1.424c-.515-.339-1.147-.508-1.895-.508-.548 0-1.027.089-1.437.266a2.295 2.295 0 0 0-.954.731 1.751 1.751 0 0 0-.338 1.056c0 .33.079.614.236.851s.366.429.615.586a4.37 4.37 0 0 0 .785.38l.755.236 1.255.338a10.75 10.75 0 0 1 1.075.35c.398.149.779.352 1.141.61.366.253.668.579.905.977s.357.888.357 1.467a3.25 3.25 0 0 1-.526 1.812c-.346.539-.853.967-1.521 1.285s-1.471.477-2.421.477c-.885 0-1.652-.143-2.3-.428s-1.151-.684-1.521-1.196a3.407 3.407 0 0 1-.622-1.781h1.546c.04.467.197.854.47 1.16a2.56 2.56 0 0 0 1.051.676 4.25 4.25 0 0 0 1.376.217c.572 0 1.085-.093 1.54-.278s.815-.45 1.08-.784a1.86 1.86 0 0 0 .399-1.184c0-.41-.115-.744-.344-1.002a2.543 2.543 0 0 0-.906-.628 9.413 9.413 0 0 0-1.213-.422l-1.522-.435c-.966-.278-1.73-.674-2.294-1.189s-.845-1.189-.845-2.023c0-.692.187-1.295.562-1.811s.885-.921 1.521-1.207 1.354-.435 2.143-.435c.797 0 1.505.143 2.125.429s1.111.668 1.473 1.159.559 1.048.58 1.672h-1.449zM273.75 242.73a2.58 2.58 0 0 1-1.334-.356 2.775 2.775 0 0 1-.966-.966 2.57 2.57 0 0 1-.356-1.334 2.55 2.55 0 0 1 .356-1.334 2.71 2.71 0 0 1 .966-.96 2.537 2.537 0 0 1 1.334-.362c.491 0 .936.12 1.334.362a2.66 2.66 0 0 1 .96.96c.242.398.362.843.362 1.334s-.12.932-.362 1.334a2.725 2.725 0 0 1-.96.966 2.559 2.559 0 0 1-1.334.356zm14.247 2.27v-12.364h4.178c.966 0 1.758.165 2.378.495s1.079.775 1.377 1.347.446 1.221.446 1.95-.148 1.374-.446 1.937-.755 1.007-1.371 1.329-1.402.476-2.36.476h-3.381v-1.352h3.333c.66 0 1.191-.096 1.593-.29s.701-.466.882-.821.277-.784.277-1.279-.092-.928-.277-1.298-.481-.656-.888-.858-.943-.308-1.612-.308h-2.632V245h-1.497zm5.82-5.554l3.042 5.554h-1.738l-2.995-5.554h1.691zm8.649 5.747c-.893 0-1.664-.197-2.312-.591a3.971 3.971 0 0 1-1.491-1.667c-.346-.716-.519-1.549-.519-2.499s.173-1.787.519-2.511c.35-.729.837-1.296 1.461-1.703s1.36-.615 2.197-.615c.483 0 .96.08 1.431.241s.9.423 1.286.785.694.833.924 1.425.344 1.32.344 2.185v.604h-7.148v-1.232h5.699c0-.523-.105-.99-.314-1.401a2.359 2.359 0 0 0-.882-.971c-.378-.238-.825-.357-1.34-.357-.567 0-1.058.141-1.473.423a2.79 2.79 0 0 0-.948 1.087 3.192 3.192 0 0 0-.332 1.436v.821c0 .701.121 1.294.363 1.781s.585.852 1.02 1.105.94.374 1.515.374a3.07 3.07 0 0 0 1.014-.157 2.15 2.15 0 0 0 .791-.483c.222-.217.393-.487.513-.809l1.377.387a3.051 3.051 0 0 1-.731 1.231 3.543 3.543 0 0 1-1.267.821c-.504.194-1.069.29-1.697.29zm8.736.024c-.588 0-1.121-.11-1.6-.332a2.741 2.741 0 0 1-1.141-.972c-.282-.426-.423-.941-.423-1.545 0-.531.105-.962.314-1.292s.489-.596.839-.785a4.4 4.4 0 0 1 1.159-.422l1.286-.23a59.772 59.772 0 0 1 1.371-.163c.354-.04.611-.106.772-.199s.248-.254.248-.483v-.048c0-.596-.163-1.059-.489-1.389s-.811-.495-1.467-.495c-.68 0-1.213.149-1.6.447s-.658.616-.815.954l-1.352-.483c.241-.564.563-1.002.966-1.316s.849-.54 1.328-.664a5.506 5.506 0 0 1 1.425-.193 5.68 5.68 0 0 1 1.026.108c.39.069.767.211 1.129.429s.67.545.911.984.363 1.026.363 1.763V245h-1.425v-1.256h-.073a2.478 2.478 0 0 1-.482.646c-.226.23-.526.425-.9.586s-.831.241-1.37.241zm.217-1.279c.563 0 1.038-.111 1.425-.333a2.259 2.259 0 0 0 1.183-1.962v-1.304c-.06.073-.193.139-.399.2a6.965 6.965 0 0 1-.7.151 31.303 31.303 0 0 1-1.364.181c-.37.048-.717.127-1.039.235a1.798 1.798 0 0 0-.772.477c-.193.209-.29.495-.29.857 0 .495.183.87.549 1.123s.839.375 1.407.375zm10.4 1.255c-.869 0-1.618-.205-2.246-.616s-1.11-.976-1.449-1.696-.507-1.543-.507-2.469c0-.942.173-1.773.52-2.493s.837-1.29 1.46-1.697 1.361-.615 2.198-.615c.652 0 1.24.12 1.763.362a3.37 3.37 0 0 1 1.286 1.014 3.16 3.16 0 0 1 .621 1.521h-1.424c-.109-.422-.35-.797-.725-1.123s-.869-.495-1.497-.495c-.555 0-1.042.145-1.461.435-.414.286-.738.69-.972 1.213s-.344 1.129-.344 1.83c0 .716.113 1.34.338 1.871s.552.944.966 1.238.91.44 1.473.44a2.54 2.54 0 0 0 1.008-.193c.302-.129.558-.314.767-.555s.358-.531.447-.87h1.424a3.295 3.295 0 0 1-.597 1.48c-.314.434-.731.78-1.25 1.038-.515.253-1.115.38-1.799.38zm9.762-9.466v1.208h-4.806v-1.208h4.806zm-3.405-2.221h1.425v8.838c0 .402.058.704.175.905s.273.33.459.399a1.85 1.85 0 0 0 .597.096c.157 0 .286-.008.387-.024l.241-.048.29 1.28a2.943 2.943 0 0 1-.405.108 2.926 2.926 0 0 1-.658.061 2.87 2.87 0 0 1-1.183-.26 2.357 2.357 0 0 1-.954-.791c-.249-.354-.374-.801-.374-1.34v-9.224zm20.326-.87V245h-1.449l-6.737-9.707h-.121V245h-1.497v-12.364h1.449l6.762 9.732h.12v-9.732h1.473zm5.532 12.581c-.588 0-1.121-.11-1.6-.332a2.741 2.741 0 0 1-1.141-.972c-.282-.426-.423-.941-.423-1.545 0-.531.105-.962.314-1.292s.489-.596.839-.785a4.4 4.4 0 0 1 1.159-.422l1.286-.23a59.772 59.772 0 0 1 1.371-.163c.354-.04.611-.106.772-.199s.248-.254.248-.483v-.048c0-.596-.163-1.059-.489-1.389s-.811-.495-1.467-.495c-.68 0-1.213.149-1.6.447s-.658.616-.815.954l-1.352-.483c.241-.564.563-1.002.966-1.316s.849-.54 1.328-.664a5.506 5.506 0 0 1 1.425-.193 5.68 5.68 0 0 1 1.026.108c.39.069.767.211 1.129.429s.67.545.911.984.363 1.026.363 1.763V245h-1.425v-1.256h-.073a2.478 2.478 0 0 1-.482.646c-.226.23-.526.425-.9.586s-.831.241-1.37.241zm.217-1.279c.563 0 1.038-.111 1.425-.333a2.259 2.259 0 0 0 1.183-1.962v-1.304c-.06.073-.193.139-.399.2a6.965 6.965 0 0 1-.7.151 31.93 31.93 0 0 1-1.364.181c-.37.048-.717.127-1.038.235a1.796 1.796 0 0 0-.773.477c-.193.209-.29.495-.29.857 0 .495.183.87.549 1.123s.84.375 1.407.375zm10.666-8.211v1.208h-4.806v-1.208h4.806zm-3.405-2.221h1.425v8.838c0 .402.058.704.175.905s.273.33.458.399a1.86 1.86 0 0 0 .598.096c.157 0 .286-.008.387-.024l.241-.048.29 1.28a2.943 2.943 0 0 1-.405.108 2.926 2.926 0 0 1-.658.061 2.87 2.87 0 0 1-1.183-.26 2.357 2.357 0 0 1-.954-.791c-.249-.354-.374-.801-.374-1.34v-9.224zM367.06 245v-9.273h1.425V245h-1.425zm.724-10.818c-.277 0-.517-.095-.718-.284a.911.911 0 0 1-.296-.682.91.91 0 0 1 .296-.682c.201-.189.441-.284.718-.284s.515.095.713.284a.902.902 0 0 1 .301.682.9.9 0 0 1-.301.682.995.995 0 0 1-.713.284zm10.892 1.545L375.247 245h-1.448l-3.429-9.273h1.545l2.56 7.389h.096l2.56-7.389h1.545zm5.437 9.466c-.894 0-1.665-.197-2.312-.591a3.98 3.98 0 0 1-1.492-1.667c-.346-.716-.519-1.549-.519-2.499s.173-1.787.519-2.511c.351-.729.838-1.296 1.461-1.703s1.361-.615 2.198-.615c.483 0 .96.08 1.431.241a3.55 3.55 0 0 1 1.285.785c.387.358.695.833.924 1.425s.344 1.32.344 2.185v.604h-7.148v-1.232h5.699c0-.523-.104-.99-.314-1.401a2.363 2.363 0 0 0-.881-.971c-.378-.238-.825-.357-1.34-.357-.568 0-1.059.141-1.473.423s-.727.64-.948 1.087a3.192 3.192 0 0 0-.332 1.436v.821c0 .701.121 1.294.362 1.781s.586.852 1.02 1.105.94.374 1.516.374c.374 0 .712-.052 1.014-.157s.569-.269.791-.483a2.2 2.2 0 0 0 .513-.809l1.376.387a3.05 3.05 0 0 1-.73 1.231 3.547 3.547 0 0 1-1.268.821c-.503.194-1.068.29-1.696.29zM273.75 263.73a2.58 2.58 0 0 1-1.334-.356 2.775 2.775 0 0 1-.966-.966 2.57 2.57 0 0 1-.356-1.334 2.55 2.55 0 0 1 .356-1.334 2.71 2.71 0 0 1 .966-.96 2.537 2.537 0 0 1 1.334-.362c.491 0 .936.12 1.334.362a2.66 2.66 0 0 1 .96.96c.242.398.362.843.362 1.334s-.12.932-.362 1.334a2.725 2.725 0 0 1-.96.966 2.559 2.559 0 0 1-1.334.356zm24.051-10.094V266h-1.449l-6.737-9.707h-.121V266h-1.497v-12.364h1.449l6.761 9.732h.121v-9.732h1.473zm6.57 12.557c-.837 0-1.572-.199-2.204-.597s-1.118-.956-1.473-1.673-.525-1.553-.525-2.511c0-.966.175-1.809.525-2.53.355-.72.846-1.279 1.473-1.678s1.367-.597 2.204-.597 1.569.199 2.197.597a4 4 0 0 1 1.473 1.678c.354.721.532 1.564.532 2.53 0 .958-.178 1.795-.532 2.511s-.841 1.274-1.473 1.673-1.36.597-2.197.597zm0-1.28c.636 0 1.159-.163 1.569-.489s.715-.754.912-1.286a4.923 4.923 0 0 0 .296-1.726c0-.62-.099-1.197-.296-1.733a2.917 2.917 0 0 0-.912-1.298c-.41-.33-.933-.495-1.569-.495s-1.159.165-1.57.495-.714.763-.911 1.298a4.96 4.96 0 0 0-.296 1.733 4.9 4.9 0 0 0 .296 1.726 2.88 2.88 0 0 0 .911 1.286c.411.326.934.489 1.57.489zm9.878 1.28c-.773 0-1.455-.195-2.047-.585s-1.054-.95-1.388-1.667-.501-1.571-.501-2.553c0-.974.167-1.819.501-2.536s.799-1.269 1.394-1.66 1.284-.585 2.065-.585c.604 0 1.081.1 1.431.301s.623.423.809.677l.44.615h.121v-4.564h1.425V266h-1.377v-1.425h-.169a8.813 8.813 0 0 1-.446.64c-.194.254-.469.481-.827.682s-.836.296-1.431.296zm.193-1.28c.571 0 1.054-.149 1.449-.446s.694-.719.899-1.25.308-1.153.308-1.853c0-.693-.1-1.298-.302-1.817s-.499-.93-.893-1.22-.882-.441-1.461-.441c-.604 0-1.107.155-1.509.465s-.699.723-.9 1.25a4.973 4.973 0 0 0-.296 1.763c0 .66.101 1.259.302 1.799s.507.962.906 1.279.901.471 1.497.471zm10.752 1.28c-.894 0-1.664-.197-2.312-.591a3.98 3.98 0 0 1-1.492-1.667c-.346-.716-.519-1.549-.519-2.499s.173-1.787.519-2.511.838-1.296 1.461-1.703 1.361-.615 2.198-.615c.483 0 .96.08 1.431.241a3.55 3.55 0 0 1 1.285.785c.387.358.695.833.924 1.425s.344 1.32.344 2.185v.604h-7.148v-1.232h5.699c0-.523-.104-.99-.314-1.401a2.363 2.363 0 0 0-.881-.971c-.378-.238-.825-.357-1.34-.357-.568 0-1.059.141-1.473.423s-.727.64-.948 1.087a3.192 3.192 0 0 0-.332 1.436v.821c0 .701.121 1.294.362 1.781s.586.852 1.02 1.105.94.374 1.516.374c.374 0 .712-.052 1.014-.157s.569-.269.791-.483a2.2 2.2 0 0 0 .513-.809l1.376.387a3.05 3.05 0 0 1-.73 1.231 3.547 3.547 0 0 1-1.268.821c-.503.194-1.068.29-1.696.29zm10.933-12.557h1.497v8.838c0 .789-.145 1.459-.435 2.011a2.95 2.95 0 0 1-1.225 1.255c-.528.286-1.149.429-1.866.429-.676 0-1.278-.123-1.805-.368a2.973 2.973 0 0 1-1.243-1.063c-.302-.459-.453-1.004-.453-1.636h1.473c0 .35.086.656.259.918a1.79 1.79 0 0 0 .725.604c.306.144.654.217 1.044.217.431 0 .797-.091 1.099-.272s.531-.446.688-.797.242-.786.242-1.298v-8.838zm11.258 3.091a1.894 1.894 0 0 0-.881-1.424c-.515-.339-1.147-.508-1.896-.508-.547 0-1.026.089-1.436.266a2.289 2.289 0 0 0-.954.731 1.744 1.744 0 0 0-.338 1.056c0 .33.078.614.235.851a2.08 2.08 0 0 0 .616.586 4.37 4.37 0 0 0 .785.38l.754.236 1.256.338c.322.084.68.201 1.075.35s.778.352 1.141.61c.366.253.668.579.905.977s.356.888.356 1.467c0 .669-.175 1.272-.525 1.812s-.853.967-1.521 1.285-1.471.477-2.421.477c-.885 0-1.652-.143-2.3-.428s-1.151-.684-1.521-1.196-.574-1.104-.622-1.781h1.545c.041.467.198.854.471 1.16a2.56 2.56 0 0 0 1.051.676c.426.145.885.217 1.376.217.572 0 1.085-.093 1.539-.278s.815-.45 1.081-.784a1.86 1.86 0 0 0 .399-1.184c0-.41-.115-.744-.345-1.002a2.53 2.53 0 0 0-.905-.628 9.376 9.376 0 0 0-1.214-.422l-1.521-.435c-.966-.278-1.73-.674-2.294-1.189s-.845-1.189-.845-2.023c0-.692.187-1.295.561-1.811.379-.519.886-.921 1.522-1.207s1.354-.435 2.143-.435c.797 0 1.505.143 2.125.429s1.111.668 1.473 1.159.559 1.048.579 1.672h-1.449zM274.75 330.73a2.58 2.58 0 0 1-1.334-.356 2.775 2.775 0 0 1-.966-.966 2.57 2.57 0 0 1-.356-1.334 2.55 2.55 0 0 1 .356-1.334 2.71 2.71 0 0 1 .966-.96 2.537 2.537 0 0 1 1.334-.362c.491 0 .936.12 1.334.362a2.66 2.66 0 0 1 .96.96c.242.398.362.843.362 1.334s-.12.932-.362 1.334a2.725 2.725 0 0 1-.96.966 2.559 2.559 0 0 1-1.334.356zm22.699-6.23a4.39 4.39 0 0 0-.525-1.093 3.394 3.394 0 0 0-.767-.833 3.236 3.236 0 0 0-1.002-.525 3.986 3.986 0 0 0-1.232-.181c-.732 0-1.398.189-1.998.567s-1.077.936-1.431 1.673-.531 1.64-.531 2.71.179 1.974.537 2.711.844 1.294 1.455 1.672 1.3.567 2.065.567c.708 0 1.332-.15 1.871-.452a3.212 3.212 0 0 0 1.268-1.292c.306-.56.459-1.218.459-1.974l.459.096h-3.719v-1.328h4.709v1.328c0 1.019-.218 1.904-.652 2.657a4.51 4.51 0 0 1-1.787 1.75c-.757.411-1.626.616-2.608.616-1.095 0-2.057-.258-2.886-.773s-1.469-1.247-1.932-2.197-.688-2.077-.688-3.381c0-.978.131-1.857.393-2.638s.64-1.453 1.122-2.004a4.908 4.908 0 0 1 1.715-1.268 5.294 5.294 0 0 1 2.179-.441c.652 0 1.26.099 1.823.296a4.893 4.893 0 0 1 1.516.827c.446.354.819.779 1.117 1.274s.503 1.036.615 1.636h-1.545zm3.989 8.5v-9.273h1.376v1.401h.097a2.23 2.23 0 0 1 .917-1.117 2.701 2.701 0 0 1 1.498-.429l.392.006.356.019v1.448a4.23 4.23 0 0 0-.332-.054 3.285 3.285 0 0 0-.537-.042c-.451 0-.853.094-1.208.284s-.627.442-.833.772a2.087 2.087 0 0 0-.302 1.117V333h-1.424zm9.054.217c-.588 0-1.121-.11-1.6-.332a2.741 2.741 0 0 1-1.141-.972c-.282-.426-.423-.941-.423-1.545 0-.531.105-.962.314-1.292a2.22 2.22 0 0 1 .839-.785 4.4 4.4 0 0 1 1.159-.422l1.286-.23a59.772 59.772 0 0 1 1.371-.163c.354-.04.611-.106.772-.199s.248-.254.248-.483v-.048c0-.596-.163-1.059-.489-1.389s-.811-.495-1.467-.495c-.68 0-1.213.149-1.6.447s-.658.616-.815.954l-1.352-.483c.241-.564.563-1.002.966-1.316s.849-.54 1.328-.664a5.506 5.506 0 0 1 1.425-.193 5.68 5.68 0 0 1 1.026.108c.39.069.767.211 1.129.429s.67.545.911.984.363 1.026.363 1.763V333h-1.425v-1.256h-.073a2.478 2.478 0 0 1-.482.646c-.226.23-.526.425-.9.586s-.831.241-1.37.241zm.217-1.279c.563 0 1.038-.111 1.425-.333a2.259 2.259 0 0 0 1.183-1.962v-1.304c-.06.073-.193.139-.398.2a7.05 7.05 0 0 1-.701.151 31.93 31.93 0 0 1-1.364.181c-.37.048-.717.127-1.038.235a1.796 1.796 0 0 0-.773.477c-.193.209-.29.495-.29.857 0 .495.183.87.549 1.123s.84.375 1.407.375zm6.633 4.539v-12.75h1.376v1.473h.17l.434-.615c.189-.254.459-.479.809-.677s.833-.301 1.437-.301c.781 0 1.469.195 2.065.585s1.06.944 1.394 1.66.501 1.562.501 2.536c0 .982-.167 1.833-.501 2.553s-.797 1.272-1.388 1.667-1.274.585-2.047.585c-.596 0-1.072-.098-1.431-.296s-.634-.428-.827-.682a8.813 8.813 0 0 1-.446-.64h-.121v4.902h-1.425zm1.401-8.113c0 .7.102 1.318.308 1.853s.505.948.899 1.25.877.446 1.449.446c.596 0 1.093-.157 1.491-.471s.704-.744.906-1.279a5.03 5.03 0 0 0 .307-1.799c0-.652-.1-1.24-.301-1.763s-.497-.944-.9-1.25-.899-.465-1.503-.465c-.58 0-1.067.147-1.461.441s-.692.696-.894 1.22-.301 1.124-.301 1.817zm10.383-.942V333h-1.425v-12.364h1.425v4.54h.121c.217-.479.543-.859.978-1.141s1.022-.428 1.751-.428c.631 0 1.185.126 1.66.38s.843.634 1.105 1.153.398 1.171.398 1.968V333h-1.425v-5.795c0-.737-.191-1.306-.573-1.709s-.904-.61-1.576-.61c-.467 0-.885.099-1.256.296a2.16 2.16 0 0 0-.869.863c-.209.379-.314.838-.314 1.377zm13.304 1.714h1.642l1.377 1.811.362.483 2.052 2.729h-1.642l-1.352-1.811-.338-.459-2.101-2.753zm5.94-2.318c0 1.304-.235 2.431-.706 3.381s-1.117 1.682-1.938 2.197-1.759.773-2.813.773-1.992-.258-2.813-.773-1.467-1.247-1.938-2.197-.706-2.077-.706-3.381.235-2.431.706-3.38 1.117-1.683 1.938-2.198 1.759-.773 2.813-.773 1.992.258 2.813.773 1.467 1.248 1.938 2.198.706 2.076.706 3.38zm-1.448 0c0-1.07-.18-1.974-.538-2.71s-.835-1.294-1.443-1.673a3.74 3.74 0 0 0-2.028-.567 3.77 3.77 0 0 0-2.034.567c-.604.379-1.085.936-1.443 1.673s-.532 1.64-.532 2.71.178 1.974.532 2.711.839 1.294 1.443 1.672a3.77 3.77 0 0 0 2.034.567 3.74 3.74 0 0 0 2.028-.567c.608-.378 1.089-.936 1.443-1.672s.538-1.64.538-2.711zm3.966 6.182v-12.364h1.497v11.036h5.747V333h-7.244zm-76.138 18.73a2.58 2.58 0 0 1-1.334-.356 2.775 2.775 0 0 1-.966-.966 2.57 2.57 0 0 1-.356-1.334 2.55 2.55 0 0 1 .356-1.334 2.71 2.71 0 0 1 .966-.96 2.537 2.537 0 0 1 1.334-.362c.491 0 .936.12 1.334.362a2.66 2.66 0 0 1 .96.96c.242.398.362.843.362 1.334s-.12.932-.362 1.334a2.725 2.725 0 0 1-.96.966 2.559 2.559 0 0 1-1.334.356zm14.247 2.27v-12.364h4.178c.97 0 1.763.175 2.378.526s1.079.815 1.377 1.406a4.34 4.34 0 0 1 .446 1.98c0 .729-.148 1.391-.446 1.986s-.749 1.071-1.365 1.425-1.404.525-2.366.525h-2.994v-1.328h2.946c.664 0 1.197-.114 1.599-.344s.695-.539.876-.93.277-.839.277-1.334-.092-.937-.277-1.328a1.979 1.979 0 0 0-.882-.917c-.406-.226-.945-.339-1.618-.339h-2.632V354h-1.497zm10.598 0v-9.273h1.376v1.401h.097c.169-.459.475-.831.918-1.117a2.696 2.696 0 0 1 1.497-.429l.392.006.356.019v1.448a4.23 4.23 0 0 0-.332-.054 3.285 3.285 0 0 0-.537-.042 2.51 2.51 0 0 0-1.207.284c-.35.185-.628.442-.833.772a2.078 2.078 0 0 0-.302 1.117V354h-1.425zm6.325 0v-9.273h1.425V354h-1.425zm.725-10.818c-.278 0-.518-.095-.719-.284a.911.911 0 0 1-.296-.682.91.91 0 0 1 .296-.682c.201-.189.441-.284.719-.284s.515.095.712.284a.903.903 0 0 1 .302.682.903.903 0 0 1-.302.682.993.993 0 0 1-.712.284zm9.878 3.622l-1.28.362a2.408 2.408 0 0 0-.356-.622 1.74 1.74 0 0 0-.628-.507c-.266-.133-.606-.199-1.021-.199-.567 0-1.04.131-1.418.392s-.562.586-.562.984c0 .355.129.634.387.84s.66.376 1.207.513l1.377.338c.829.201 1.446.509 1.853.923s.61.94.61 1.588c0 .531-.153 1.006-.459 1.425s-.725.748-1.268.99-1.175.362-1.896.362c-.945 0-1.728-.205-2.348-.616s-1.012-1.01-1.177-1.799l1.352-.338c.129.499.372.874.731 1.123s.835.375 1.418.375c.664 0 1.192-.141 1.582-.423s.592-.628.592-1.026a1.08 1.08 0 0 0-.338-.809c-.226-.222-.572-.387-1.039-.495l-1.545-.363c-.849-.201-1.473-.513-1.872-.935s-.591-.96-.591-1.6a2.3 2.3 0 0 1 .44-1.389c.298-.402.703-.718 1.214-.947s1.098-.344 1.75-.344c.918 0 1.638.201 2.162.603s.901.934 1.123 1.594zm2.313 7.196v-9.273h1.377v1.449h.12c.194-.495.505-.879.936-1.153s.948-.416 1.552-.416c.611 0 1.12.138 1.527.416s.73.658.96 1.153h.096a2.706 2.706 0 0 1 1.069-1.141c.475-.286 1.044-.428 1.708-.428.829 0 1.508.259 2.035.778s.791 1.318.791 2.409V354h-1.425v-6.206c0-.684-.187-1.173-.561-1.467a2.08 2.08 0 0 0-1.323-.441c-.652 0-1.157.198-1.515.592s-.537.885-.537 1.485V354h-1.449v-6.351c0-.527-.171-.952-.513-1.274s-.783-.489-1.322-.489c-.37 0-.717.099-1.039.296a2.23 2.23 0 0 0-.772.821c-.193.346-.29.747-.29 1.202V354h-1.425zm17.504.217c-.587 0-1.121-.11-1.599-.332a2.735 2.735 0 0 1-1.141-.972c-.282-.426-.423-.941-.423-1.545 0-.531.105-.962.314-1.292s.489-.596.839-.785.736-.33 1.159-.422l1.286-.23a59.13 59.13 0 0 1 1.37-.163c.354-.04.612-.106.773-.199s.248-.254.248-.483v-.048c0-.596-.163-1.059-.489-1.389s-.811-.495-1.467-.495c-.681 0-1.214.149-1.6.447s-.658.616-.815.954l-1.352-.483c.241-.564.563-1.002.965-1.316s.85-.54 1.329-.664a5.499 5.499 0 0 1 1.424-.193 5.69 5.69 0 0 1 1.027.108 3.28 3.28 0 0 1 1.128.429c.367.217.671.545.912.984s.362 1.026.362 1.763V354h-1.424v-1.256h-.073a2.462 2.462 0 0 1-.483.646c-.225.23-.525.425-.899.586s-.831.241-1.371.241zm.218-1.279c.563 0 1.038-.111 1.424-.333a2.255 2.255 0 0 0 1.184-1.962v-1.304c-.061.073-.194.139-.399.2a7.026 7.026 0 0 1-.7.151 32 32 0 0 1-1.364.181 5.465 5.465 0 0 0-1.039.235 1.802 1.802 0 0 0-.773.477c-.193.209-.289.495-.289.857 0 .495.183.87.549 1.123s.839.375 1.407.375zM274.75 372.73a2.58 2.58 0 0 1-1.334-.356 2.775 2.775 0 0 1-.966-.966 2.57 2.57 0 0 1-.356-1.334 2.55 2.55 0 0 1 .356-1.334 2.71 2.71 0 0 1 .966-.96 2.537 2.537 0 0 1 1.334-.362c.491 0 .936.12 1.334.362a2.66 2.66 0 0 1 .96.96c.242.398.362.843.362 1.334s-.12.932-.362 1.334a2.725 2.725 0 0 1-.96.966 2.559 2.559 0 0 1-1.334.356zm22.699-6.23a4.39 4.39 0 0 0-.525-1.093 3.394 3.394 0 0 0-.767-.833 3.236 3.236 0 0 0-1.002-.525 3.986 3.986 0 0 0-1.232-.181c-.732 0-1.398.189-1.998.567s-1.077.936-1.431 1.673-.531 1.64-.531 2.71.179 1.974.537 2.711.844 1.294 1.455 1.672 1.3.567 2.065.567c.708 0 1.332-.15 1.871-.452a3.212 3.212 0 0 0 1.268-1.292c.306-.56.459-1.218.459-1.974l.459.096h-3.719v-1.328h4.709v1.328c0 1.019-.218 1.904-.652 2.657a4.51 4.51 0 0 1-1.787 1.75c-.757.411-1.626.616-2.608.616-1.095 0-2.057-.258-2.886-.773s-1.469-1.247-1.932-2.197-.688-2.077-.688-3.381c0-.978.131-1.857.393-2.638s.64-1.453 1.122-2.004a4.908 4.908 0 0 1 1.715-1.268 5.294 5.294 0 0 1 2.179-.441c.652 0 1.26.099 1.823.296a4.893 4.893 0 0 1 1.516.827c.446.354.819.779 1.117 1.274s.503 1.036.615 1.636h-1.545zm4.57 8.5v-9.273h1.425V375h-1.425zm.724-10.818c-.277 0-.517-.095-.718-.284a.911.911 0 0 1-.296-.682.91.91 0 0 1 .296-.682c.201-.189.441-.284.718-.284s.515.095.713.284a.902.902 0 0 1 .301.682.9.9 0 0 1-.301.682.995.995 0 0 1-.713.284zm7.343 1.545v1.208h-4.806v-1.208h4.806zm-3.405-2.221h1.425v8.838c0 .402.058.704.175.905s.273.33.458.399a1.86 1.86 0 0 0 .598.096 2.53 2.53 0 0 0 .386-.024l.242-.048.29 1.28a2.943 2.943 0 0 1-.405.108 2.926 2.926 0 0 1-.658.061 2.87 2.87 0 0 1-1.183-.26 2.357 2.357 0 0 1-.954-.791c-.249-.354-.374-.801-.374-1.34v-9.224zM274.75 393.73a2.58 2.58 0 0 1-1.334-.356 2.775 2.775 0 0 1-.966-.966 2.57 2.57 0 0 1-.356-1.334 2.55 2.55 0 0 1 .356-1.334 2.71 2.71 0 0 1 .966-.96 2.537 2.537 0 0 1 1.334-.362c.491 0 .936.12 1.334.362a2.66 2.66 0 0 1 .96.96c.242.398.362.843.362 1.334s-.12.932-.362 1.334a2.725 2.725 0 0 1-.96.966 2.559 2.559 0 0 1-1.334.356zm21.009-7.003a1.898 1.898 0 0 0-.882-1.424c-.515-.339-1.147-.508-1.895-.508-.548 0-1.027.089-1.437.266a2.289 2.289 0 0 0-.954.731 1.751 1.751 0 0 0-.338 1.056c0 .33.078.614.235.851a2.09 2.09 0 0 0 .616.586 4.37 4.37 0 0 0 .785.38l.754.236 1.256.338c.322.084.68.201 1.075.35s.778.352 1.141.61c.366.253.668.579.905.977s.356.888.356 1.467c0 .669-.175 1.272-.525 1.812s-.853.967-1.521 1.285-1.471.477-2.421.477c-.885 0-1.652-.143-2.3-.428s-1.151-.684-1.521-1.196-.574-1.104-.622-1.781h1.545c.041.467.198.854.471 1.16a2.56 2.56 0 0 0 1.051.676c.426.145.885.217 1.376.217.572 0 1.085-.093 1.54-.278s.814-.45 1.08-.784a1.86 1.86 0 0 0 .399-1.184c0-.41-.115-.744-.345-1.002a2.53 2.53 0 0 0-.905-.628 9.376 9.376 0 0 0-1.214-.422l-1.521-.435c-.966-.278-1.73-.674-2.294-1.189s-.845-1.189-.845-2.023c0-.692.187-1.295.561-1.811.379-.519.886-.921 1.522-1.207s1.354-.435 2.143-.435c.797 0 1.505.143 2.125.429s1.111.668 1.473 1.159.559 1.048.579 1.672h-1.448zm6.614 9.49c-.587 0-1.12-.11-1.599-.332a2.735 2.735 0 0 1-1.141-.972c-.282-.426-.423-.941-.423-1.545 0-.531.105-.962.314-1.292s.489-.596.839-.785a4.4 4.4 0 0 1 1.159-.422l1.286-.23 1.371-.163c.354-.04.611-.106.772-.199s.248-.254.248-.483v-.048c0-.596-.163-1.059-.489-1.389s-.811-.495-1.467-.495c-.68 0-1.214.149-1.6.447s-.658.616-.815.954l-1.352-.483c.241-.564.563-1.002.966-1.316s.849-.54 1.328-.664a5.506 5.506 0 0 1 1.425-.193 5.69 5.69 0 0 1 1.026.108c.39.069.766.211 1.129.429s.67.545.911.984.362 1.026.362 1.763V396h-1.424v-1.256h-.073a2.462 2.462 0 0 1-.483.646c-.225.23-.525.425-.899.586s-.831.241-1.371.241zm.218-1.279c.563 0 1.038-.111 1.425-.333a2.259 2.259 0 0 0 1.183-1.962v-1.304c-.061.073-.193.139-.399.2a6.965 6.965 0 0 1-.7.151 32 32 0 0 1-1.364.181 5.465 5.465 0 0 0-1.039.235 1.792 1.792 0 0 0-.772.477c-.194.209-.29.495-.29.857 0 .495.183.87.549 1.123s.839.375 1.407.375zm13.201-6.134l-1.28.362a2.38 2.38 0 0 0-.356-.622 1.73 1.73 0 0 0-.628-.507c-.265-.133-.605-.199-1.02-.199-.567 0-1.04.131-1.419.392s-.561.586-.561.984c0 .355.129.634.386.84s.66.376 1.208.513l1.376.338c.829.201 1.447.509 1.853.923s.61.94.61 1.588c0 .531-.153 1.006-.459 1.425s-.724.748-1.267.99-1.176.362-1.896.362c-.946 0-1.729-.205-2.348-.616s-1.013-1.01-1.178-1.799l1.353-.338c.128.499.372.874.73 1.123s.835.375 1.419.375c.664 0 1.191-.141 1.581-.423s.592-.628.592-1.026a1.08 1.08 0 0 0-.338-.809c-.225-.222-.571-.387-1.038-.495l-1.546-.363c-.849-.201-1.473-.513-1.871-.935s-.592-.96-.592-1.6c0-.523.147-.986.441-1.389a3 3 0 0 1 1.213-.947c.515-.23 1.099-.344 1.751-.344.918 0 1.638.201 2.161.603s.902.934 1.123 1.594zm8.882 0l-1.28.362a2.38 2.38 0 0 0-.356-.622 1.73 1.73 0 0 0-.628-.507c-.266-.133-.606-.199-1.02-.199-.568 0-1.041.131-1.419.392s-.561.586-.561.984c0 .355.129.634.386.84s.66.376 1.207.513l1.377.338c.829.201 1.447.509 1.853.923s.61.94.61 1.588c0 .531-.153 1.006-.459 1.425s-.724.748-1.268.99-1.175.362-1.895.362c-.946 0-1.729-.205-2.349-.616s-1.012-1.01-1.177-1.799l1.352-.338c.129.499.373.874.731 1.123s.835.375 1.419.375c.664 0 1.191-.141 1.581-.423s.592-.628.592-1.026a1.08 1.08 0 0 0-.338-.809c-.226-.222-.572-.387-1.038-.495l-1.546-.363c-.849-.201-1.473-.513-1.871-.935s-.592-.96-.592-1.6c0-.523.147-.986.441-1.389a3 3 0 0 1 1.213-.947c.515-.23 1.099-.344 1.751-.344.917 0 1.638.201 2.161.603s.902.934 1.123 1.594z" fill="#fff"/><path stroke="#454545" stroke-width="5" d="M65 101.5h256m-231 217h133M67.5 129v-25m25 242v-25m128 176V321m98-192v-25m-128 212V104"/></svg>